%TF.GenerationSoftware,KiCad,Pcbnew,8.0.7*%
%TF.CreationDate,2025-01-25T21:28:28+10:00*%
%TF.ProjectId,MFOS_Power_Supply_PCB,4d464f53-5f50-46f7-9765-725f53757070,rev?*%
%TF.SameCoordinates,Original*%
%TF.FileFunction,Drillmap*%
%TF.FilePolarity,Positive*%
%FSLAX45Y45*%
G04 Gerber Fmt 4.5, Leading zero omitted, Abs format (unit mm)*
G04 Created by KiCad (PCBNEW 8.0.7) date 2025-01-25 21:28:28*
%MOMM*%
%LPD*%
G01*
G04 APERTURE LIST*
%ADD10C,0.050000*%
%ADD11C,0.200000*%
%ADD12C,0.100000*%
%ADD13C,0.110000*%
%ADD14C,0.120000*%
%ADD15C,0.320000*%
G04 APERTURE END LIST*
D10*
X8900000Y-7200000D02*
X19900000Y-7200000D01*
X19900000Y-11288000D01*
X8900000Y-11288000D01*
X8900000Y-7200000D01*
D11*
D12*
X16360000Y-7610000D02*
X16440000Y-7690000D01*
X16440000Y-7610000D02*
X16360000Y-7690000D01*
X16360000Y-8110000D02*
X16440000Y-8190000D01*
X16440000Y-8110000D02*
X16360000Y-8190000D01*
X16360000Y-8510000D02*
X16440000Y-8590000D01*
X16440000Y-8510000D02*
X16360000Y-8590000D01*
X16360000Y-9010000D02*
X16440000Y-9090000D01*
X16440000Y-9010000D02*
X16360000Y-9090000D01*
X16360000Y-9610000D02*
X16440000Y-9690000D01*
X16440000Y-9610000D02*
X16360000Y-9690000D01*
X16360000Y-10110000D02*
X16440000Y-10190000D01*
X16440000Y-10110000D02*
X16360000Y-10190000D01*
X16360000Y-10460000D02*
X16440000Y-10540000D01*
X16440000Y-10460000D02*
X16360000Y-10540000D01*
X16360000Y-10960000D02*
X16440000Y-11040000D01*
X16440000Y-10960000D02*
X16360000Y-11040000D01*
X18960000Y-7852000D02*
X19040000Y-7932000D01*
X19040000Y-7852000D02*
X18960000Y-7932000D01*
X18960000Y-8868000D02*
X19040000Y-8948000D01*
X19040000Y-8868000D02*
X18960000Y-8948000D01*
X18960000Y-9552000D02*
X19040000Y-9632000D01*
X19040000Y-9552000D02*
X18960000Y-9632000D01*
X18960000Y-10568000D02*
X19040000Y-10648000D01*
X19040000Y-10568000D02*
X18960000Y-10648000D01*
X9250000Y-8900000D02*
G75*
G02*
X9150000Y-8900000I-50000J0D01*
G01*
X9150000Y-8900000D02*
G75*
G02*
X9250000Y-8900000I50000J0D01*
G01*
X9250000Y-9600000D02*
G75*
G02*
X9150000Y-9600000I-50000J0D01*
G01*
X9150000Y-9600000D02*
G75*
G02*
X9250000Y-9600000I50000J0D01*
G01*
X19550000Y-8300000D02*
G75*
G02*
X19450000Y-8300000I-50000J0D01*
G01*
X19450000Y-8300000D02*
G75*
G02*
X19550000Y-8300000I50000J0D01*
G01*
X19550000Y-9200000D02*
G75*
G02*
X19450000Y-9200000I-50000J0D01*
G01*
X19450000Y-9200000D02*
G75*
G02*
X19550000Y-9200000I50000J0D01*
G01*
X19550000Y-10100000D02*
G75*
G02*
X19450000Y-10100000I-50000J0D01*
G01*
X19450000Y-10100000D02*
G75*
G02*
X19550000Y-10100000I50000J0D01*
G01*
D13*
X9900000Y-7837000D02*
X9900000Y-7947000D01*
X9845000Y-7892000D02*
X9955000Y-7892000D01*
X9900000Y-8853000D02*
X9900000Y-8963000D01*
X9845000Y-8908000D02*
X9955000Y-8908000D01*
X9900000Y-9237000D02*
X9900000Y-9347000D01*
X9845000Y-9292000D02*
X9955000Y-9292000D01*
X9900000Y-10253000D02*
X9900000Y-10363000D01*
X9845000Y-10308000D02*
X9955000Y-10308000D01*
X17100000Y-9845000D02*
X17100000Y-9955000D01*
X17045000Y-9900000D02*
X17155000Y-9900000D01*
X17100000Y-10099000D02*
X17100000Y-10209000D01*
X17045000Y-10154000D02*
X17155000Y-10154000D01*
X17100000Y-10353000D02*
X17100000Y-10463000D01*
X17045000Y-10408000D02*
X17155000Y-10408000D01*
X17600000Y-8091000D02*
X17600000Y-8201000D01*
X17545000Y-8146000D02*
X17655000Y-8146000D01*
X17600000Y-8345000D02*
X17600000Y-8455000D01*
X17545000Y-8400000D02*
X17655000Y-8400000D01*
X17600000Y-8599000D02*
X17600000Y-8709000D01*
X17545000Y-8654000D02*
X17655000Y-8654000D01*
X18200000Y-7837000D02*
X18200000Y-7947000D01*
X18145000Y-7892000D02*
X18255000Y-7892000D01*
X18200000Y-8853000D02*
X18200000Y-8963000D01*
X18145000Y-8908000D02*
X18255000Y-8908000D01*
X18200000Y-9537000D02*
X18200000Y-9647000D01*
X18145000Y-9592000D02*
X18255000Y-9592000D01*
X18200000Y-10553000D02*
X18200000Y-10663000D01*
X18145000Y-10608000D02*
X18255000Y-10608000D01*
X18600000Y-7837000D02*
X18600000Y-7947000D01*
X18545000Y-7892000D02*
X18655000Y-7892000D01*
X18600000Y-8853000D02*
X18600000Y-8963000D01*
X18545000Y-8908000D02*
X18655000Y-8908000D01*
X18600000Y-9537000D02*
X18600000Y-9647000D01*
X18545000Y-9592000D02*
X18655000Y-9592000D01*
X18600000Y-10553000D02*
X18600000Y-10663000D01*
X18545000Y-10608000D02*
X18655000Y-10608000D01*
D14*
X11142427Y-7892427D02*
X11142427Y-7807573D01*
X11057573Y-7807573D01*
X11057573Y-7892427D01*
X11142427Y-7892427D01*
X11142427Y-8642427D02*
X11142427Y-8557573D01*
X11057573Y-8557573D01*
X11057573Y-8642427D01*
X11142427Y-8642427D01*
X11142427Y-9942427D02*
X11142427Y-9857573D01*
X11057573Y-9857573D01*
X11057573Y-9942427D01*
X11142427Y-9942427D01*
X11142427Y-10692427D02*
X11142427Y-10607573D01*
X11057573Y-10607573D01*
X11057573Y-10692427D01*
X11142427Y-10692427D01*
X13142427Y-7892427D02*
X13142427Y-7807573D01*
X13057573Y-7807573D01*
X13057573Y-7892427D01*
X13142427Y-7892427D01*
X13142427Y-8642427D02*
X13142427Y-8557573D01*
X13057573Y-8557573D01*
X13057573Y-8642427D01*
X13142427Y-8642427D01*
X13142427Y-9942427D02*
X13142427Y-9857573D01*
X13057573Y-9857573D01*
X13057573Y-9942427D01*
X13142427Y-9942427D01*
X13142427Y-10692427D02*
X13142427Y-10607573D01*
X13057573Y-10607573D01*
X13057573Y-10692427D01*
X13142427Y-10692427D01*
X15142427Y-7892427D02*
X15142427Y-7807573D01*
X15057573Y-7807573D01*
X15057573Y-7892427D01*
X15142427Y-7892427D01*
X15142427Y-8642427D02*
X15142427Y-8557573D01*
X15057573Y-8557573D01*
X15057573Y-8642427D01*
X15142427Y-8642427D01*
X15142427Y-9942427D02*
X15142427Y-9857573D01*
X15057573Y-9857573D01*
X15057573Y-9942427D01*
X15142427Y-9942427D01*
X15142427Y-10692427D02*
X15142427Y-10607573D01*
X15057573Y-10607573D01*
X15057573Y-10692427D01*
X15142427Y-10692427D01*
D15*
X9300000Y-7760000D02*
X9460000Y-7600000D01*
X9300000Y-7440000D01*
X9140000Y-7600000D01*
X9300000Y-7760000D01*
X9300000Y-11060000D02*
X9460000Y-10900000D01*
X9300000Y-10740000D01*
X9140000Y-10900000D01*
X9300000Y-11060000D01*
X19500000Y-7760000D02*
X19660000Y-7600000D01*
X19500000Y-7440000D01*
X19340000Y-7600000D01*
X19500000Y-7760000D01*
X19500000Y-11060000D02*
X19660000Y-10900000D01*
X19500000Y-10740000D01*
X19340000Y-10900000D01*
X19500000Y-11060000D01*
D11*
X9158277Y-11601984D02*
X9158277Y-11401984D01*
X9158277Y-11401984D02*
X9205896Y-11401984D01*
X9205896Y-11401984D02*
X9234467Y-11411508D01*
X9234467Y-11411508D02*
X9253515Y-11430555D01*
X9253515Y-11430555D02*
X9263039Y-11449603D01*
X9263039Y-11449603D02*
X9272563Y-11487698D01*
X9272563Y-11487698D02*
X9272563Y-11516269D01*
X9272563Y-11516269D02*
X9263039Y-11554365D01*
X9263039Y-11554365D02*
X9253515Y-11573412D01*
X9253515Y-11573412D02*
X9234467Y-11592460D01*
X9234467Y-11592460D02*
X9205896Y-11601984D01*
X9205896Y-11601984D02*
X9158277Y-11601984D01*
X9358277Y-11601984D02*
X9358277Y-11468650D01*
X9358277Y-11506746D02*
X9367801Y-11487698D01*
X9367801Y-11487698D02*
X9377324Y-11478174D01*
X9377324Y-11478174D02*
X9396372Y-11468650D01*
X9396372Y-11468650D02*
X9415420Y-11468650D01*
X9482086Y-11601984D02*
X9482086Y-11468650D01*
X9482086Y-11401984D02*
X9472563Y-11411508D01*
X9472563Y-11411508D02*
X9482086Y-11421031D01*
X9482086Y-11421031D02*
X9491610Y-11411508D01*
X9491610Y-11411508D02*
X9482086Y-11401984D01*
X9482086Y-11401984D02*
X9482086Y-11421031D01*
X9605896Y-11601984D02*
X9586848Y-11592460D01*
X9586848Y-11592460D02*
X9577324Y-11573412D01*
X9577324Y-11573412D02*
X9577324Y-11401984D01*
X9710658Y-11601984D02*
X9691610Y-11592460D01*
X9691610Y-11592460D02*
X9682086Y-11573412D01*
X9682086Y-11573412D02*
X9682086Y-11401984D01*
X9939229Y-11601984D02*
X9939229Y-11401984D01*
X9939229Y-11401984D02*
X10005896Y-11544841D01*
X10005896Y-11544841D02*
X10072563Y-11401984D01*
X10072563Y-11401984D02*
X10072563Y-11601984D01*
X10253515Y-11601984D02*
X10253515Y-11497222D01*
X10253515Y-11497222D02*
X10243991Y-11478174D01*
X10243991Y-11478174D02*
X10224944Y-11468650D01*
X10224944Y-11468650D02*
X10186848Y-11468650D01*
X10186848Y-11468650D02*
X10167801Y-11478174D01*
X10253515Y-11592460D02*
X10234467Y-11601984D01*
X10234467Y-11601984D02*
X10186848Y-11601984D01*
X10186848Y-11601984D02*
X10167801Y-11592460D01*
X10167801Y-11592460D02*
X10158277Y-11573412D01*
X10158277Y-11573412D02*
X10158277Y-11554365D01*
X10158277Y-11554365D02*
X10167801Y-11535317D01*
X10167801Y-11535317D02*
X10186848Y-11525793D01*
X10186848Y-11525793D02*
X10234467Y-11525793D01*
X10234467Y-11525793D02*
X10253515Y-11516269D01*
X10348753Y-11468650D02*
X10348753Y-11668650D01*
X10348753Y-11478174D02*
X10367801Y-11468650D01*
X10367801Y-11468650D02*
X10405896Y-11468650D01*
X10405896Y-11468650D02*
X10424944Y-11478174D01*
X10424944Y-11478174D02*
X10434467Y-11487698D01*
X10434467Y-11487698D02*
X10443991Y-11506746D01*
X10443991Y-11506746D02*
X10443991Y-11563888D01*
X10443991Y-11563888D02*
X10434467Y-11582936D01*
X10434467Y-11582936D02*
X10424944Y-11592460D01*
X10424944Y-11592460D02*
X10405896Y-11601984D01*
X10405896Y-11601984D02*
X10367801Y-11601984D01*
X10367801Y-11601984D02*
X10348753Y-11592460D01*
X10529705Y-11582936D02*
X10539229Y-11592460D01*
X10539229Y-11592460D02*
X10529705Y-11601984D01*
X10529705Y-11601984D02*
X10520182Y-11592460D01*
X10520182Y-11592460D02*
X10529705Y-11582936D01*
X10529705Y-11582936D02*
X10529705Y-11601984D01*
X10529705Y-11478174D02*
X10539229Y-11487698D01*
X10539229Y-11487698D02*
X10529705Y-11497222D01*
X10529705Y-11497222D02*
X10520182Y-11487698D01*
X10520182Y-11487698D02*
X10529705Y-11478174D01*
X10529705Y-11478174D02*
X10529705Y-11497222D01*
D12*
X8817500Y-11890500D02*
X8897500Y-11970500D01*
X8897500Y-11890500D02*
X8817500Y-11970500D01*
D11*
X9196372Y-11821984D02*
X9215420Y-11821984D01*
X9215420Y-11821984D02*
X9234467Y-11831508D01*
X9234467Y-11831508D02*
X9243991Y-11841031D01*
X9243991Y-11841031D02*
X9253515Y-11860079D01*
X9253515Y-11860079D02*
X9263039Y-11898174D01*
X9263039Y-11898174D02*
X9263039Y-11945793D01*
X9263039Y-11945793D02*
X9253515Y-11983888D01*
X9253515Y-11983888D02*
X9243991Y-12002936D01*
X9243991Y-12002936D02*
X9234467Y-12012460D01*
X9234467Y-12012460D02*
X9215420Y-12021984D01*
X9215420Y-12021984D02*
X9196372Y-12021984D01*
X9196372Y-12021984D02*
X9177324Y-12012460D01*
X9177324Y-12012460D02*
X9167801Y-12002936D01*
X9167801Y-12002936D02*
X9158277Y-11983888D01*
X9158277Y-11983888D02*
X9148753Y-11945793D01*
X9148753Y-11945793D02*
X9148753Y-11898174D01*
X9148753Y-11898174D02*
X9158277Y-11860079D01*
X9158277Y-11860079D02*
X9167801Y-11841031D01*
X9167801Y-11841031D02*
X9177324Y-11831508D01*
X9177324Y-11831508D02*
X9196372Y-11821984D01*
X9348753Y-12002936D02*
X9358277Y-12012460D01*
X9358277Y-12012460D02*
X9348753Y-12021984D01*
X9348753Y-12021984D02*
X9339229Y-12012460D01*
X9339229Y-12012460D02*
X9348753Y-12002936D01*
X9348753Y-12002936D02*
X9348753Y-12021984D01*
X9472563Y-11907698D02*
X9453515Y-11898174D01*
X9453515Y-11898174D02*
X9443991Y-11888650D01*
X9443991Y-11888650D02*
X9434467Y-11869603D01*
X9434467Y-11869603D02*
X9434467Y-11860079D01*
X9434467Y-11860079D02*
X9443991Y-11841031D01*
X9443991Y-11841031D02*
X9453515Y-11831508D01*
X9453515Y-11831508D02*
X9472563Y-11821984D01*
X9472563Y-11821984D02*
X9510658Y-11821984D01*
X9510658Y-11821984D02*
X9529705Y-11831508D01*
X9529705Y-11831508D02*
X9539229Y-11841031D01*
X9539229Y-11841031D02*
X9548753Y-11860079D01*
X9548753Y-11860079D02*
X9548753Y-11869603D01*
X9548753Y-11869603D02*
X9539229Y-11888650D01*
X9539229Y-11888650D02*
X9529705Y-11898174D01*
X9529705Y-11898174D02*
X9510658Y-11907698D01*
X9510658Y-11907698D02*
X9472563Y-11907698D01*
X9472563Y-11907698D02*
X9453515Y-11917222D01*
X9453515Y-11917222D02*
X9443991Y-11926746D01*
X9443991Y-11926746D02*
X9434467Y-11945793D01*
X9434467Y-11945793D02*
X9434467Y-11983888D01*
X9434467Y-11983888D02*
X9443991Y-12002936D01*
X9443991Y-12002936D02*
X9453515Y-12012460D01*
X9453515Y-12012460D02*
X9472563Y-12021984D01*
X9472563Y-12021984D02*
X9510658Y-12021984D01*
X9510658Y-12021984D02*
X9529705Y-12012460D01*
X9529705Y-12012460D02*
X9539229Y-12002936D01*
X9539229Y-12002936D02*
X9548753Y-11983888D01*
X9548753Y-11983888D02*
X9548753Y-11945793D01*
X9548753Y-11945793D02*
X9539229Y-11926746D01*
X9539229Y-11926746D02*
X9529705Y-11917222D01*
X9529705Y-11917222D02*
X9510658Y-11907698D01*
X9672563Y-11821984D02*
X9691610Y-11821984D01*
X9691610Y-11821984D02*
X9710658Y-11831508D01*
X9710658Y-11831508D02*
X9720182Y-11841031D01*
X9720182Y-11841031D02*
X9729705Y-11860079D01*
X9729705Y-11860079D02*
X9739229Y-11898174D01*
X9739229Y-11898174D02*
X9739229Y-11945793D01*
X9739229Y-11945793D02*
X9729705Y-11983888D01*
X9729705Y-11983888D02*
X9720182Y-12002936D01*
X9720182Y-12002936D02*
X9710658Y-12012460D01*
X9710658Y-12012460D02*
X9691610Y-12021984D01*
X9691610Y-12021984D02*
X9672563Y-12021984D01*
X9672563Y-12021984D02*
X9653515Y-12012460D01*
X9653515Y-12012460D02*
X9643991Y-12002936D01*
X9643991Y-12002936D02*
X9634467Y-11983888D01*
X9634467Y-11983888D02*
X9624944Y-11945793D01*
X9624944Y-11945793D02*
X9624944Y-11898174D01*
X9624944Y-11898174D02*
X9634467Y-11860079D01*
X9634467Y-11860079D02*
X9643991Y-11841031D01*
X9643991Y-11841031D02*
X9653515Y-11831508D01*
X9653515Y-11831508D02*
X9672563Y-11821984D01*
X9863039Y-11821984D02*
X9882086Y-11821984D01*
X9882086Y-11821984D02*
X9901134Y-11831508D01*
X9901134Y-11831508D02*
X9910658Y-11841031D01*
X9910658Y-11841031D02*
X9920182Y-11860079D01*
X9920182Y-11860079D02*
X9929705Y-11898174D01*
X9929705Y-11898174D02*
X9929705Y-11945793D01*
X9929705Y-11945793D02*
X9920182Y-11983888D01*
X9920182Y-11983888D02*
X9910658Y-12002936D01*
X9910658Y-12002936D02*
X9901134Y-12012460D01*
X9901134Y-12012460D02*
X9882086Y-12021984D01*
X9882086Y-12021984D02*
X9863039Y-12021984D01*
X9863039Y-12021984D02*
X9843991Y-12012460D01*
X9843991Y-12012460D02*
X9834467Y-12002936D01*
X9834467Y-12002936D02*
X9824944Y-11983888D01*
X9824944Y-11983888D02*
X9815420Y-11945793D01*
X9815420Y-11945793D02*
X9815420Y-11898174D01*
X9815420Y-11898174D02*
X9824944Y-11860079D01*
X9824944Y-11860079D02*
X9834467Y-11841031D01*
X9834467Y-11841031D02*
X9843991Y-11831508D01*
X9843991Y-11831508D02*
X9863039Y-11821984D01*
X10015420Y-12021984D02*
X10015420Y-11888650D01*
X10015420Y-11907698D02*
X10024944Y-11898174D01*
X10024944Y-11898174D02*
X10043991Y-11888650D01*
X10043991Y-11888650D02*
X10072563Y-11888650D01*
X10072563Y-11888650D02*
X10091610Y-11898174D01*
X10091610Y-11898174D02*
X10101134Y-11917222D01*
X10101134Y-11917222D02*
X10101134Y-12021984D01*
X10101134Y-11917222D02*
X10110658Y-11898174D01*
X10110658Y-11898174D02*
X10129705Y-11888650D01*
X10129705Y-11888650D02*
X10158277Y-11888650D01*
X10158277Y-11888650D02*
X10177325Y-11898174D01*
X10177325Y-11898174D02*
X10186848Y-11917222D01*
X10186848Y-11917222D02*
X10186848Y-12021984D01*
X10282086Y-12021984D02*
X10282086Y-11888650D01*
X10282086Y-11907698D02*
X10291610Y-11898174D01*
X10291610Y-11898174D02*
X10310658Y-11888650D01*
X10310658Y-11888650D02*
X10339229Y-11888650D01*
X10339229Y-11888650D02*
X10358277Y-11898174D01*
X10358277Y-11898174D02*
X10367801Y-11917222D01*
X10367801Y-11917222D02*
X10367801Y-12021984D01*
X10367801Y-11917222D02*
X10377325Y-11898174D01*
X10377325Y-11898174D02*
X10396372Y-11888650D01*
X10396372Y-11888650D02*
X10424944Y-11888650D01*
X10424944Y-11888650D02*
X10443991Y-11898174D01*
X10443991Y-11898174D02*
X10453515Y-11917222D01*
X10453515Y-11917222D02*
X10453515Y-12021984D01*
X10843991Y-11812460D02*
X10672563Y-12069603D01*
X11101134Y-11821984D02*
X11120182Y-11821984D01*
X11120182Y-11821984D02*
X11139229Y-11831508D01*
X11139229Y-11831508D02*
X11148753Y-11841031D01*
X11148753Y-11841031D02*
X11158277Y-11860079D01*
X11158277Y-11860079D02*
X11167801Y-11898174D01*
X11167801Y-11898174D02*
X11167801Y-11945793D01*
X11167801Y-11945793D02*
X11158277Y-11983888D01*
X11158277Y-11983888D02*
X11148753Y-12002936D01*
X11148753Y-12002936D02*
X11139229Y-12012460D01*
X11139229Y-12012460D02*
X11120182Y-12021984D01*
X11120182Y-12021984D02*
X11101134Y-12021984D01*
X11101134Y-12021984D02*
X11082087Y-12012460D01*
X11082087Y-12012460D02*
X11072563Y-12002936D01*
X11072563Y-12002936D02*
X11063039Y-11983888D01*
X11063039Y-11983888D02*
X11053515Y-11945793D01*
X11053515Y-11945793D02*
X11053515Y-11898174D01*
X11053515Y-11898174D02*
X11063039Y-11860079D01*
X11063039Y-11860079D02*
X11072563Y-11841031D01*
X11072563Y-11841031D02*
X11082087Y-11831508D01*
X11082087Y-11831508D02*
X11101134Y-11821984D01*
X11253515Y-12002936D02*
X11263039Y-12012460D01*
X11263039Y-12012460D02*
X11253515Y-12021984D01*
X11253515Y-12021984D02*
X11243991Y-12012460D01*
X11243991Y-12012460D02*
X11253515Y-12002936D01*
X11253515Y-12002936D02*
X11253515Y-12021984D01*
X11386848Y-11821984D02*
X11405896Y-11821984D01*
X11405896Y-11821984D02*
X11424944Y-11831508D01*
X11424944Y-11831508D02*
X11434467Y-11841031D01*
X11434467Y-11841031D02*
X11443991Y-11860079D01*
X11443991Y-11860079D02*
X11453515Y-11898174D01*
X11453515Y-11898174D02*
X11453515Y-11945793D01*
X11453515Y-11945793D02*
X11443991Y-11983888D01*
X11443991Y-11983888D02*
X11434467Y-12002936D01*
X11434467Y-12002936D02*
X11424944Y-12012460D01*
X11424944Y-12012460D02*
X11405896Y-12021984D01*
X11405896Y-12021984D02*
X11386848Y-12021984D01*
X11386848Y-12021984D02*
X11367801Y-12012460D01*
X11367801Y-12012460D02*
X11358277Y-12002936D01*
X11358277Y-12002936D02*
X11348753Y-11983888D01*
X11348753Y-11983888D02*
X11339229Y-11945793D01*
X11339229Y-11945793D02*
X11339229Y-11898174D01*
X11339229Y-11898174D02*
X11348753Y-11860079D01*
X11348753Y-11860079D02*
X11358277Y-11841031D01*
X11358277Y-11841031D02*
X11367801Y-11831508D01*
X11367801Y-11831508D02*
X11386848Y-11821984D01*
X11520182Y-11821984D02*
X11643991Y-11821984D01*
X11643991Y-11821984D02*
X11577325Y-11898174D01*
X11577325Y-11898174D02*
X11605896Y-11898174D01*
X11605896Y-11898174D02*
X11624944Y-11907698D01*
X11624944Y-11907698D02*
X11634467Y-11917222D01*
X11634467Y-11917222D02*
X11643991Y-11936269D01*
X11643991Y-11936269D02*
X11643991Y-11983888D01*
X11643991Y-11983888D02*
X11634467Y-12002936D01*
X11634467Y-12002936D02*
X11624944Y-12012460D01*
X11624944Y-12012460D02*
X11605896Y-12021984D01*
X11605896Y-12021984D02*
X11548753Y-12021984D01*
X11548753Y-12021984D02*
X11529706Y-12012460D01*
X11529706Y-12012460D02*
X11520182Y-12002936D01*
X11834467Y-12021984D02*
X11720182Y-12021984D01*
X11777325Y-12021984D02*
X11777325Y-11821984D01*
X11777325Y-11821984D02*
X11758277Y-11850555D01*
X11758277Y-11850555D02*
X11739229Y-11869603D01*
X11739229Y-11869603D02*
X11720182Y-11879127D01*
X12015420Y-11821984D02*
X11920182Y-11821984D01*
X11920182Y-11821984D02*
X11910658Y-11917222D01*
X11910658Y-11917222D02*
X11920182Y-11907698D01*
X11920182Y-11907698D02*
X11939229Y-11898174D01*
X11939229Y-11898174D02*
X11986848Y-11898174D01*
X11986848Y-11898174D02*
X12005896Y-11907698D01*
X12005896Y-11907698D02*
X12015420Y-11917222D01*
X12015420Y-11917222D02*
X12024944Y-11936269D01*
X12024944Y-11936269D02*
X12024944Y-11983888D01*
X12024944Y-11983888D02*
X12015420Y-12002936D01*
X12015420Y-12002936D02*
X12005896Y-12012460D01*
X12005896Y-12012460D02*
X11986848Y-12021984D01*
X11986848Y-12021984D02*
X11939229Y-12021984D01*
X11939229Y-12021984D02*
X11920182Y-12012460D01*
X11920182Y-12012460D02*
X11910658Y-12002936D01*
X12101134Y-11821984D02*
X12101134Y-11860079D01*
X12177325Y-11821984D02*
X12177325Y-11860079D01*
X12472563Y-12098174D02*
X12463039Y-12088650D01*
X12463039Y-12088650D02*
X12443991Y-12060079D01*
X12443991Y-12060079D02*
X12434468Y-12041031D01*
X12434468Y-12041031D02*
X12424944Y-12012460D01*
X12424944Y-12012460D02*
X12415420Y-11964841D01*
X12415420Y-11964841D02*
X12415420Y-11926746D01*
X12415420Y-11926746D02*
X12424944Y-11879127D01*
X12424944Y-11879127D02*
X12434468Y-11850555D01*
X12434468Y-11850555D02*
X12443991Y-11831508D01*
X12443991Y-11831508D02*
X12463039Y-11802936D01*
X12463039Y-11802936D02*
X12472563Y-11793412D01*
X12653515Y-12021984D02*
X12539229Y-12021984D01*
X12596372Y-12021984D02*
X12596372Y-11821984D01*
X12596372Y-11821984D02*
X12577325Y-11850555D01*
X12577325Y-11850555D02*
X12558277Y-11869603D01*
X12558277Y-11869603D02*
X12539229Y-11879127D01*
X12729706Y-11841031D02*
X12739229Y-11831508D01*
X12739229Y-11831508D02*
X12758277Y-11821984D01*
X12758277Y-11821984D02*
X12805896Y-11821984D01*
X12805896Y-11821984D02*
X12824944Y-11831508D01*
X12824944Y-11831508D02*
X12834468Y-11841031D01*
X12834468Y-11841031D02*
X12843991Y-11860079D01*
X12843991Y-11860079D02*
X12843991Y-11879127D01*
X12843991Y-11879127D02*
X12834468Y-11907698D01*
X12834468Y-11907698D02*
X12720182Y-12021984D01*
X12720182Y-12021984D02*
X12843991Y-12021984D01*
X13082087Y-12021984D02*
X13082087Y-11821984D01*
X13167801Y-12021984D02*
X13167801Y-11917222D01*
X13167801Y-11917222D02*
X13158277Y-11898174D01*
X13158277Y-11898174D02*
X13139230Y-11888650D01*
X13139230Y-11888650D02*
X13110658Y-11888650D01*
X13110658Y-11888650D02*
X13091610Y-11898174D01*
X13091610Y-11898174D02*
X13082087Y-11907698D01*
X13291610Y-12021984D02*
X13272563Y-12012460D01*
X13272563Y-12012460D02*
X13263039Y-12002936D01*
X13263039Y-12002936D02*
X13253515Y-11983888D01*
X13253515Y-11983888D02*
X13253515Y-11926746D01*
X13253515Y-11926746D02*
X13263039Y-11907698D01*
X13263039Y-11907698D02*
X13272563Y-11898174D01*
X13272563Y-11898174D02*
X13291610Y-11888650D01*
X13291610Y-11888650D02*
X13320182Y-11888650D01*
X13320182Y-11888650D02*
X13339230Y-11898174D01*
X13339230Y-11898174D02*
X13348753Y-11907698D01*
X13348753Y-11907698D02*
X13358277Y-11926746D01*
X13358277Y-11926746D02*
X13358277Y-11983888D01*
X13358277Y-11983888D02*
X13348753Y-12002936D01*
X13348753Y-12002936D02*
X13339230Y-12012460D01*
X13339230Y-12012460D02*
X13320182Y-12021984D01*
X13320182Y-12021984D02*
X13291610Y-12021984D01*
X13472563Y-12021984D02*
X13453515Y-12012460D01*
X13453515Y-12012460D02*
X13443991Y-11993412D01*
X13443991Y-11993412D02*
X13443991Y-11821984D01*
X13624944Y-12012460D02*
X13605896Y-12021984D01*
X13605896Y-12021984D02*
X13567801Y-12021984D01*
X13567801Y-12021984D02*
X13548753Y-12012460D01*
X13548753Y-12012460D02*
X13539230Y-11993412D01*
X13539230Y-11993412D02*
X13539230Y-11917222D01*
X13539230Y-11917222D02*
X13548753Y-11898174D01*
X13548753Y-11898174D02*
X13567801Y-11888650D01*
X13567801Y-11888650D02*
X13605896Y-11888650D01*
X13605896Y-11888650D02*
X13624944Y-11898174D01*
X13624944Y-11898174D02*
X13634468Y-11917222D01*
X13634468Y-11917222D02*
X13634468Y-11936269D01*
X13634468Y-11936269D02*
X13539230Y-11955317D01*
X13710658Y-12012460D02*
X13729706Y-12021984D01*
X13729706Y-12021984D02*
X13767801Y-12021984D01*
X13767801Y-12021984D02*
X13786849Y-12012460D01*
X13786849Y-12012460D02*
X13796372Y-11993412D01*
X13796372Y-11993412D02*
X13796372Y-11983888D01*
X13796372Y-11983888D02*
X13786849Y-11964841D01*
X13786849Y-11964841D02*
X13767801Y-11955317D01*
X13767801Y-11955317D02*
X13739230Y-11955317D01*
X13739230Y-11955317D02*
X13720182Y-11945793D01*
X13720182Y-11945793D02*
X13710658Y-11926746D01*
X13710658Y-11926746D02*
X13710658Y-11917222D01*
X13710658Y-11917222D02*
X13720182Y-11898174D01*
X13720182Y-11898174D02*
X13739230Y-11888650D01*
X13739230Y-11888650D02*
X13767801Y-11888650D01*
X13767801Y-11888650D02*
X13786849Y-11898174D01*
X13863039Y-12098174D02*
X13872563Y-12088650D01*
X13872563Y-12088650D02*
X13891611Y-12060079D01*
X13891611Y-12060079D02*
X13901134Y-12041031D01*
X13901134Y-12041031D02*
X13910658Y-12012460D01*
X13910658Y-12012460D02*
X13920182Y-11964841D01*
X13920182Y-11964841D02*
X13920182Y-11926746D01*
X13920182Y-11926746D02*
X13910658Y-11879127D01*
X13910658Y-11879127D02*
X13901134Y-11850555D01*
X13901134Y-11850555D02*
X13891611Y-11831508D01*
X13891611Y-11831508D02*
X13872563Y-11802936D01*
X13872563Y-11802936D02*
X13863039Y-11793412D01*
D12*
X8897500Y-12194500D02*
G75*
G02*
X8797500Y-12194500I-50000J0D01*
G01*
X8797500Y-12194500D02*
G75*
G02*
X8897500Y-12194500I50000J0D01*
G01*
D11*
X9263039Y-12285984D02*
X9148753Y-12285984D01*
X9205896Y-12285984D02*
X9205896Y-12085984D01*
X9205896Y-12085984D02*
X9186848Y-12114555D01*
X9186848Y-12114555D02*
X9167801Y-12133603D01*
X9167801Y-12133603D02*
X9148753Y-12143127D01*
X9348753Y-12266936D02*
X9358277Y-12276460D01*
X9358277Y-12276460D02*
X9348753Y-12285984D01*
X9348753Y-12285984D02*
X9339229Y-12276460D01*
X9339229Y-12276460D02*
X9348753Y-12266936D01*
X9348753Y-12266936D02*
X9348753Y-12285984D01*
X9482086Y-12085984D02*
X9501134Y-12085984D01*
X9501134Y-12085984D02*
X9520182Y-12095508D01*
X9520182Y-12095508D02*
X9529705Y-12105031D01*
X9529705Y-12105031D02*
X9539229Y-12124079D01*
X9539229Y-12124079D02*
X9548753Y-12162174D01*
X9548753Y-12162174D02*
X9548753Y-12209793D01*
X9548753Y-12209793D02*
X9539229Y-12247888D01*
X9539229Y-12247888D02*
X9529705Y-12266936D01*
X9529705Y-12266936D02*
X9520182Y-12276460D01*
X9520182Y-12276460D02*
X9501134Y-12285984D01*
X9501134Y-12285984D02*
X9482086Y-12285984D01*
X9482086Y-12285984D02*
X9463039Y-12276460D01*
X9463039Y-12276460D02*
X9453515Y-12266936D01*
X9453515Y-12266936D02*
X9443991Y-12247888D01*
X9443991Y-12247888D02*
X9434467Y-12209793D01*
X9434467Y-12209793D02*
X9434467Y-12162174D01*
X9434467Y-12162174D02*
X9443991Y-12124079D01*
X9443991Y-12124079D02*
X9453515Y-12105031D01*
X9453515Y-12105031D02*
X9463039Y-12095508D01*
X9463039Y-12095508D02*
X9482086Y-12085984D01*
X9672563Y-12085984D02*
X9691610Y-12085984D01*
X9691610Y-12085984D02*
X9710658Y-12095508D01*
X9710658Y-12095508D02*
X9720182Y-12105031D01*
X9720182Y-12105031D02*
X9729705Y-12124079D01*
X9729705Y-12124079D02*
X9739229Y-12162174D01*
X9739229Y-12162174D02*
X9739229Y-12209793D01*
X9739229Y-12209793D02*
X9729705Y-12247888D01*
X9729705Y-12247888D02*
X9720182Y-12266936D01*
X9720182Y-12266936D02*
X9710658Y-12276460D01*
X9710658Y-12276460D02*
X9691610Y-12285984D01*
X9691610Y-12285984D02*
X9672563Y-12285984D01*
X9672563Y-12285984D02*
X9653515Y-12276460D01*
X9653515Y-12276460D02*
X9643991Y-12266936D01*
X9643991Y-12266936D02*
X9634467Y-12247888D01*
X9634467Y-12247888D02*
X9624944Y-12209793D01*
X9624944Y-12209793D02*
X9624944Y-12162174D01*
X9624944Y-12162174D02*
X9634467Y-12124079D01*
X9634467Y-12124079D02*
X9643991Y-12105031D01*
X9643991Y-12105031D02*
X9653515Y-12095508D01*
X9653515Y-12095508D02*
X9672563Y-12085984D01*
X9863039Y-12085984D02*
X9882086Y-12085984D01*
X9882086Y-12085984D02*
X9901134Y-12095508D01*
X9901134Y-12095508D02*
X9910658Y-12105031D01*
X9910658Y-12105031D02*
X9920182Y-12124079D01*
X9920182Y-12124079D02*
X9929705Y-12162174D01*
X9929705Y-12162174D02*
X9929705Y-12209793D01*
X9929705Y-12209793D02*
X9920182Y-12247888D01*
X9920182Y-12247888D02*
X9910658Y-12266936D01*
X9910658Y-12266936D02*
X9901134Y-12276460D01*
X9901134Y-12276460D02*
X9882086Y-12285984D01*
X9882086Y-12285984D02*
X9863039Y-12285984D01*
X9863039Y-12285984D02*
X9843991Y-12276460D01*
X9843991Y-12276460D02*
X9834467Y-12266936D01*
X9834467Y-12266936D02*
X9824944Y-12247888D01*
X9824944Y-12247888D02*
X9815420Y-12209793D01*
X9815420Y-12209793D02*
X9815420Y-12162174D01*
X9815420Y-12162174D02*
X9824944Y-12124079D01*
X9824944Y-12124079D02*
X9834467Y-12105031D01*
X9834467Y-12105031D02*
X9843991Y-12095508D01*
X9843991Y-12095508D02*
X9863039Y-12085984D01*
X10015420Y-12285984D02*
X10015420Y-12152650D01*
X10015420Y-12171698D02*
X10024944Y-12162174D01*
X10024944Y-12162174D02*
X10043991Y-12152650D01*
X10043991Y-12152650D02*
X10072563Y-12152650D01*
X10072563Y-12152650D02*
X10091610Y-12162174D01*
X10091610Y-12162174D02*
X10101134Y-12181222D01*
X10101134Y-12181222D02*
X10101134Y-12285984D01*
X10101134Y-12181222D02*
X10110658Y-12162174D01*
X10110658Y-12162174D02*
X10129705Y-12152650D01*
X10129705Y-12152650D02*
X10158277Y-12152650D01*
X10158277Y-12152650D02*
X10177325Y-12162174D01*
X10177325Y-12162174D02*
X10186848Y-12181222D01*
X10186848Y-12181222D02*
X10186848Y-12285984D01*
X10282086Y-12285984D02*
X10282086Y-12152650D01*
X10282086Y-12171698D02*
X10291610Y-12162174D01*
X10291610Y-12162174D02*
X10310658Y-12152650D01*
X10310658Y-12152650D02*
X10339229Y-12152650D01*
X10339229Y-12152650D02*
X10358277Y-12162174D01*
X10358277Y-12162174D02*
X10367801Y-12181222D01*
X10367801Y-12181222D02*
X10367801Y-12285984D01*
X10367801Y-12181222D02*
X10377325Y-12162174D01*
X10377325Y-12162174D02*
X10396372Y-12152650D01*
X10396372Y-12152650D02*
X10424944Y-12152650D01*
X10424944Y-12152650D02*
X10443991Y-12162174D01*
X10443991Y-12162174D02*
X10453515Y-12181222D01*
X10453515Y-12181222D02*
X10453515Y-12285984D01*
X10843991Y-12076460D02*
X10672563Y-12333603D01*
X11101134Y-12085984D02*
X11120182Y-12085984D01*
X11120182Y-12085984D02*
X11139229Y-12095508D01*
X11139229Y-12095508D02*
X11148753Y-12105031D01*
X11148753Y-12105031D02*
X11158277Y-12124079D01*
X11158277Y-12124079D02*
X11167801Y-12162174D01*
X11167801Y-12162174D02*
X11167801Y-12209793D01*
X11167801Y-12209793D02*
X11158277Y-12247888D01*
X11158277Y-12247888D02*
X11148753Y-12266936D01*
X11148753Y-12266936D02*
X11139229Y-12276460D01*
X11139229Y-12276460D02*
X11120182Y-12285984D01*
X11120182Y-12285984D02*
X11101134Y-12285984D01*
X11101134Y-12285984D02*
X11082087Y-12276460D01*
X11082087Y-12276460D02*
X11072563Y-12266936D01*
X11072563Y-12266936D02*
X11063039Y-12247888D01*
X11063039Y-12247888D02*
X11053515Y-12209793D01*
X11053515Y-12209793D02*
X11053515Y-12162174D01*
X11053515Y-12162174D02*
X11063039Y-12124079D01*
X11063039Y-12124079D02*
X11072563Y-12105031D01*
X11072563Y-12105031D02*
X11082087Y-12095508D01*
X11082087Y-12095508D02*
X11101134Y-12085984D01*
X11253515Y-12266936D02*
X11263039Y-12276460D01*
X11263039Y-12276460D02*
X11253515Y-12285984D01*
X11253515Y-12285984D02*
X11243991Y-12276460D01*
X11243991Y-12276460D02*
X11253515Y-12266936D01*
X11253515Y-12266936D02*
X11253515Y-12285984D01*
X11386848Y-12085984D02*
X11405896Y-12085984D01*
X11405896Y-12085984D02*
X11424944Y-12095508D01*
X11424944Y-12095508D02*
X11434467Y-12105031D01*
X11434467Y-12105031D02*
X11443991Y-12124079D01*
X11443991Y-12124079D02*
X11453515Y-12162174D01*
X11453515Y-12162174D02*
X11453515Y-12209793D01*
X11453515Y-12209793D02*
X11443991Y-12247888D01*
X11443991Y-12247888D02*
X11434467Y-12266936D01*
X11434467Y-12266936D02*
X11424944Y-12276460D01*
X11424944Y-12276460D02*
X11405896Y-12285984D01*
X11405896Y-12285984D02*
X11386848Y-12285984D01*
X11386848Y-12285984D02*
X11367801Y-12276460D01*
X11367801Y-12276460D02*
X11358277Y-12266936D01*
X11358277Y-12266936D02*
X11348753Y-12247888D01*
X11348753Y-12247888D02*
X11339229Y-12209793D01*
X11339229Y-12209793D02*
X11339229Y-12162174D01*
X11339229Y-12162174D02*
X11348753Y-12124079D01*
X11348753Y-12124079D02*
X11358277Y-12105031D01*
X11358277Y-12105031D02*
X11367801Y-12095508D01*
X11367801Y-12095508D02*
X11386848Y-12085984D01*
X11520182Y-12085984D02*
X11643991Y-12085984D01*
X11643991Y-12085984D02*
X11577325Y-12162174D01*
X11577325Y-12162174D02*
X11605896Y-12162174D01*
X11605896Y-12162174D02*
X11624944Y-12171698D01*
X11624944Y-12171698D02*
X11634467Y-12181222D01*
X11634467Y-12181222D02*
X11643991Y-12200269D01*
X11643991Y-12200269D02*
X11643991Y-12247888D01*
X11643991Y-12247888D02*
X11634467Y-12266936D01*
X11634467Y-12266936D02*
X11624944Y-12276460D01*
X11624944Y-12276460D02*
X11605896Y-12285984D01*
X11605896Y-12285984D02*
X11548753Y-12285984D01*
X11548753Y-12285984D02*
X11529706Y-12276460D01*
X11529706Y-12276460D02*
X11520182Y-12266936D01*
X11739229Y-12285984D02*
X11777325Y-12285984D01*
X11777325Y-12285984D02*
X11796372Y-12276460D01*
X11796372Y-12276460D02*
X11805896Y-12266936D01*
X11805896Y-12266936D02*
X11824944Y-12238365D01*
X11824944Y-12238365D02*
X11834467Y-12200269D01*
X11834467Y-12200269D02*
X11834467Y-12124079D01*
X11834467Y-12124079D02*
X11824944Y-12105031D01*
X11824944Y-12105031D02*
X11815420Y-12095508D01*
X11815420Y-12095508D02*
X11796372Y-12085984D01*
X11796372Y-12085984D02*
X11758277Y-12085984D01*
X11758277Y-12085984D02*
X11739229Y-12095508D01*
X11739229Y-12095508D02*
X11729706Y-12105031D01*
X11729706Y-12105031D02*
X11720182Y-12124079D01*
X11720182Y-12124079D02*
X11720182Y-12171698D01*
X11720182Y-12171698D02*
X11729706Y-12190746D01*
X11729706Y-12190746D02*
X11739229Y-12200269D01*
X11739229Y-12200269D02*
X11758277Y-12209793D01*
X11758277Y-12209793D02*
X11796372Y-12209793D01*
X11796372Y-12209793D02*
X11815420Y-12200269D01*
X11815420Y-12200269D02*
X11824944Y-12190746D01*
X11824944Y-12190746D02*
X11834467Y-12171698D01*
X12005896Y-12152650D02*
X12005896Y-12285984D01*
X11958277Y-12076460D02*
X11910658Y-12219317D01*
X11910658Y-12219317D02*
X12034467Y-12219317D01*
X12101134Y-12085984D02*
X12101134Y-12124079D01*
X12177325Y-12085984D02*
X12177325Y-12124079D01*
X12472563Y-12362174D02*
X12463039Y-12352650D01*
X12463039Y-12352650D02*
X12443991Y-12324079D01*
X12443991Y-12324079D02*
X12434468Y-12305031D01*
X12434468Y-12305031D02*
X12424944Y-12276460D01*
X12424944Y-12276460D02*
X12415420Y-12228841D01*
X12415420Y-12228841D02*
X12415420Y-12190746D01*
X12415420Y-12190746D02*
X12424944Y-12143127D01*
X12424944Y-12143127D02*
X12434468Y-12114555D01*
X12434468Y-12114555D02*
X12443991Y-12095508D01*
X12443991Y-12095508D02*
X12463039Y-12066936D01*
X12463039Y-12066936D02*
X12472563Y-12057412D01*
X12643991Y-12085984D02*
X12548753Y-12085984D01*
X12548753Y-12085984D02*
X12539229Y-12181222D01*
X12539229Y-12181222D02*
X12548753Y-12171698D01*
X12548753Y-12171698D02*
X12567801Y-12162174D01*
X12567801Y-12162174D02*
X12615420Y-12162174D01*
X12615420Y-12162174D02*
X12634468Y-12171698D01*
X12634468Y-12171698D02*
X12643991Y-12181222D01*
X12643991Y-12181222D02*
X12653515Y-12200269D01*
X12653515Y-12200269D02*
X12653515Y-12247888D01*
X12653515Y-12247888D02*
X12643991Y-12266936D01*
X12643991Y-12266936D02*
X12634468Y-12276460D01*
X12634468Y-12276460D02*
X12615420Y-12285984D01*
X12615420Y-12285984D02*
X12567801Y-12285984D01*
X12567801Y-12285984D02*
X12548753Y-12276460D01*
X12548753Y-12276460D02*
X12539229Y-12266936D01*
X12891610Y-12285984D02*
X12891610Y-12085984D01*
X12977325Y-12285984D02*
X12977325Y-12181222D01*
X12977325Y-12181222D02*
X12967801Y-12162174D01*
X12967801Y-12162174D02*
X12948753Y-12152650D01*
X12948753Y-12152650D02*
X12920182Y-12152650D01*
X12920182Y-12152650D02*
X12901134Y-12162174D01*
X12901134Y-12162174D02*
X12891610Y-12171698D01*
X13101134Y-12285984D02*
X13082087Y-12276460D01*
X13082087Y-12276460D02*
X13072563Y-12266936D01*
X13072563Y-12266936D02*
X13063039Y-12247888D01*
X13063039Y-12247888D02*
X13063039Y-12190746D01*
X13063039Y-12190746D02*
X13072563Y-12171698D01*
X13072563Y-12171698D02*
X13082087Y-12162174D01*
X13082087Y-12162174D02*
X13101134Y-12152650D01*
X13101134Y-12152650D02*
X13129706Y-12152650D01*
X13129706Y-12152650D02*
X13148753Y-12162174D01*
X13148753Y-12162174D02*
X13158277Y-12171698D01*
X13158277Y-12171698D02*
X13167801Y-12190746D01*
X13167801Y-12190746D02*
X13167801Y-12247888D01*
X13167801Y-12247888D02*
X13158277Y-12266936D01*
X13158277Y-12266936D02*
X13148753Y-12276460D01*
X13148753Y-12276460D02*
X13129706Y-12285984D01*
X13129706Y-12285984D02*
X13101134Y-12285984D01*
X13282087Y-12285984D02*
X13263039Y-12276460D01*
X13263039Y-12276460D02*
X13253515Y-12257412D01*
X13253515Y-12257412D02*
X13253515Y-12085984D01*
X13434468Y-12276460D02*
X13415420Y-12285984D01*
X13415420Y-12285984D02*
X13377325Y-12285984D01*
X13377325Y-12285984D02*
X13358277Y-12276460D01*
X13358277Y-12276460D02*
X13348753Y-12257412D01*
X13348753Y-12257412D02*
X13348753Y-12181222D01*
X13348753Y-12181222D02*
X13358277Y-12162174D01*
X13358277Y-12162174D02*
X13377325Y-12152650D01*
X13377325Y-12152650D02*
X13415420Y-12152650D01*
X13415420Y-12152650D02*
X13434468Y-12162174D01*
X13434468Y-12162174D02*
X13443991Y-12181222D01*
X13443991Y-12181222D02*
X13443991Y-12200269D01*
X13443991Y-12200269D02*
X13348753Y-12219317D01*
X13520182Y-12276460D02*
X13539230Y-12285984D01*
X13539230Y-12285984D02*
X13577325Y-12285984D01*
X13577325Y-12285984D02*
X13596372Y-12276460D01*
X13596372Y-12276460D02*
X13605896Y-12257412D01*
X13605896Y-12257412D02*
X13605896Y-12247888D01*
X13605896Y-12247888D02*
X13596372Y-12228841D01*
X13596372Y-12228841D02*
X13577325Y-12219317D01*
X13577325Y-12219317D02*
X13548753Y-12219317D01*
X13548753Y-12219317D02*
X13529706Y-12209793D01*
X13529706Y-12209793D02*
X13520182Y-12190746D01*
X13520182Y-12190746D02*
X13520182Y-12181222D01*
X13520182Y-12181222D02*
X13529706Y-12162174D01*
X13529706Y-12162174D02*
X13548753Y-12152650D01*
X13548753Y-12152650D02*
X13577325Y-12152650D01*
X13577325Y-12152650D02*
X13596372Y-12162174D01*
X13672563Y-12362174D02*
X13682087Y-12352650D01*
X13682087Y-12352650D02*
X13701134Y-12324079D01*
X13701134Y-12324079D02*
X13710658Y-12305031D01*
X13710658Y-12305031D02*
X13720182Y-12276460D01*
X13720182Y-12276460D02*
X13729706Y-12228841D01*
X13729706Y-12228841D02*
X13729706Y-12190746D01*
X13729706Y-12190746D02*
X13720182Y-12143127D01*
X13720182Y-12143127D02*
X13710658Y-12114555D01*
X13710658Y-12114555D02*
X13701134Y-12095508D01*
X13701134Y-12095508D02*
X13682087Y-12066936D01*
X13682087Y-12066936D02*
X13672563Y-12057412D01*
D13*
X8842500Y-12403500D02*
X8842500Y-12513500D01*
X8787500Y-12458500D02*
X8897500Y-12458500D01*
D11*
X9263039Y-12549984D02*
X9148753Y-12549984D01*
X9205896Y-12549984D02*
X9205896Y-12349984D01*
X9205896Y-12349984D02*
X9186848Y-12378555D01*
X9186848Y-12378555D02*
X9167801Y-12397603D01*
X9167801Y-12397603D02*
X9148753Y-12407127D01*
X9348753Y-12530936D02*
X9358277Y-12540460D01*
X9358277Y-12540460D02*
X9348753Y-12549984D01*
X9348753Y-12549984D02*
X9339229Y-12540460D01*
X9339229Y-12540460D02*
X9348753Y-12530936D01*
X9348753Y-12530936D02*
X9348753Y-12549984D01*
X9548753Y-12549984D02*
X9434467Y-12549984D01*
X9491610Y-12549984D02*
X9491610Y-12349984D01*
X9491610Y-12349984D02*
X9472563Y-12378555D01*
X9472563Y-12378555D02*
X9453515Y-12397603D01*
X9453515Y-12397603D02*
X9434467Y-12407127D01*
X9672563Y-12349984D02*
X9691610Y-12349984D01*
X9691610Y-12349984D02*
X9710658Y-12359508D01*
X9710658Y-12359508D02*
X9720182Y-12369031D01*
X9720182Y-12369031D02*
X9729705Y-12388079D01*
X9729705Y-12388079D02*
X9739229Y-12426174D01*
X9739229Y-12426174D02*
X9739229Y-12473793D01*
X9739229Y-12473793D02*
X9729705Y-12511888D01*
X9729705Y-12511888D02*
X9720182Y-12530936D01*
X9720182Y-12530936D02*
X9710658Y-12540460D01*
X9710658Y-12540460D02*
X9691610Y-12549984D01*
X9691610Y-12549984D02*
X9672563Y-12549984D01*
X9672563Y-12549984D02*
X9653515Y-12540460D01*
X9653515Y-12540460D02*
X9643991Y-12530936D01*
X9643991Y-12530936D02*
X9634467Y-12511888D01*
X9634467Y-12511888D02*
X9624944Y-12473793D01*
X9624944Y-12473793D02*
X9624944Y-12426174D01*
X9624944Y-12426174D02*
X9634467Y-12388079D01*
X9634467Y-12388079D02*
X9643991Y-12369031D01*
X9643991Y-12369031D02*
X9653515Y-12359508D01*
X9653515Y-12359508D02*
X9672563Y-12349984D01*
X9863039Y-12349984D02*
X9882086Y-12349984D01*
X9882086Y-12349984D02*
X9901134Y-12359508D01*
X9901134Y-12359508D02*
X9910658Y-12369031D01*
X9910658Y-12369031D02*
X9920182Y-12388079D01*
X9920182Y-12388079D02*
X9929705Y-12426174D01*
X9929705Y-12426174D02*
X9929705Y-12473793D01*
X9929705Y-12473793D02*
X9920182Y-12511888D01*
X9920182Y-12511888D02*
X9910658Y-12530936D01*
X9910658Y-12530936D02*
X9901134Y-12540460D01*
X9901134Y-12540460D02*
X9882086Y-12549984D01*
X9882086Y-12549984D02*
X9863039Y-12549984D01*
X9863039Y-12549984D02*
X9843991Y-12540460D01*
X9843991Y-12540460D02*
X9834467Y-12530936D01*
X9834467Y-12530936D02*
X9824944Y-12511888D01*
X9824944Y-12511888D02*
X9815420Y-12473793D01*
X9815420Y-12473793D02*
X9815420Y-12426174D01*
X9815420Y-12426174D02*
X9824944Y-12388079D01*
X9824944Y-12388079D02*
X9834467Y-12369031D01*
X9834467Y-12369031D02*
X9843991Y-12359508D01*
X9843991Y-12359508D02*
X9863039Y-12349984D01*
X10015420Y-12549984D02*
X10015420Y-12416650D01*
X10015420Y-12435698D02*
X10024944Y-12426174D01*
X10024944Y-12426174D02*
X10043991Y-12416650D01*
X10043991Y-12416650D02*
X10072563Y-12416650D01*
X10072563Y-12416650D02*
X10091610Y-12426174D01*
X10091610Y-12426174D02*
X10101134Y-12445222D01*
X10101134Y-12445222D02*
X10101134Y-12549984D01*
X10101134Y-12445222D02*
X10110658Y-12426174D01*
X10110658Y-12426174D02*
X10129705Y-12416650D01*
X10129705Y-12416650D02*
X10158277Y-12416650D01*
X10158277Y-12416650D02*
X10177325Y-12426174D01*
X10177325Y-12426174D02*
X10186848Y-12445222D01*
X10186848Y-12445222D02*
X10186848Y-12549984D01*
X10282086Y-12549984D02*
X10282086Y-12416650D01*
X10282086Y-12435698D02*
X10291610Y-12426174D01*
X10291610Y-12426174D02*
X10310658Y-12416650D01*
X10310658Y-12416650D02*
X10339229Y-12416650D01*
X10339229Y-12416650D02*
X10358277Y-12426174D01*
X10358277Y-12426174D02*
X10367801Y-12445222D01*
X10367801Y-12445222D02*
X10367801Y-12549984D01*
X10367801Y-12445222D02*
X10377325Y-12426174D01*
X10377325Y-12426174D02*
X10396372Y-12416650D01*
X10396372Y-12416650D02*
X10424944Y-12416650D01*
X10424944Y-12416650D02*
X10443991Y-12426174D01*
X10443991Y-12426174D02*
X10453515Y-12445222D01*
X10453515Y-12445222D02*
X10453515Y-12549984D01*
X10843991Y-12340460D02*
X10672563Y-12597603D01*
X11101134Y-12349984D02*
X11120182Y-12349984D01*
X11120182Y-12349984D02*
X11139229Y-12359508D01*
X11139229Y-12359508D02*
X11148753Y-12369031D01*
X11148753Y-12369031D02*
X11158277Y-12388079D01*
X11158277Y-12388079D02*
X11167801Y-12426174D01*
X11167801Y-12426174D02*
X11167801Y-12473793D01*
X11167801Y-12473793D02*
X11158277Y-12511888D01*
X11158277Y-12511888D02*
X11148753Y-12530936D01*
X11148753Y-12530936D02*
X11139229Y-12540460D01*
X11139229Y-12540460D02*
X11120182Y-12549984D01*
X11120182Y-12549984D02*
X11101134Y-12549984D01*
X11101134Y-12549984D02*
X11082087Y-12540460D01*
X11082087Y-12540460D02*
X11072563Y-12530936D01*
X11072563Y-12530936D02*
X11063039Y-12511888D01*
X11063039Y-12511888D02*
X11053515Y-12473793D01*
X11053515Y-12473793D02*
X11053515Y-12426174D01*
X11053515Y-12426174D02*
X11063039Y-12388079D01*
X11063039Y-12388079D02*
X11072563Y-12369031D01*
X11072563Y-12369031D02*
X11082087Y-12359508D01*
X11082087Y-12359508D02*
X11101134Y-12349984D01*
X11253515Y-12530936D02*
X11263039Y-12540460D01*
X11263039Y-12540460D02*
X11253515Y-12549984D01*
X11253515Y-12549984D02*
X11243991Y-12540460D01*
X11243991Y-12540460D02*
X11253515Y-12530936D01*
X11253515Y-12530936D02*
X11253515Y-12549984D01*
X11386848Y-12349984D02*
X11405896Y-12349984D01*
X11405896Y-12349984D02*
X11424944Y-12359508D01*
X11424944Y-12359508D02*
X11434467Y-12369031D01*
X11434467Y-12369031D02*
X11443991Y-12388079D01*
X11443991Y-12388079D02*
X11453515Y-12426174D01*
X11453515Y-12426174D02*
X11453515Y-12473793D01*
X11453515Y-12473793D02*
X11443991Y-12511888D01*
X11443991Y-12511888D02*
X11434467Y-12530936D01*
X11434467Y-12530936D02*
X11424944Y-12540460D01*
X11424944Y-12540460D02*
X11405896Y-12549984D01*
X11405896Y-12549984D02*
X11386848Y-12549984D01*
X11386848Y-12549984D02*
X11367801Y-12540460D01*
X11367801Y-12540460D02*
X11358277Y-12530936D01*
X11358277Y-12530936D02*
X11348753Y-12511888D01*
X11348753Y-12511888D02*
X11339229Y-12473793D01*
X11339229Y-12473793D02*
X11339229Y-12426174D01*
X11339229Y-12426174D02*
X11348753Y-12388079D01*
X11348753Y-12388079D02*
X11358277Y-12369031D01*
X11358277Y-12369031D02*
X11367801Y-12359508D01*
X11367801Y-12359508D02*
X11386848Y-12349984D01*
X11624944Y-12416650D02*
X11624944Y-12549984D01*
X11577325Y-12340460D02*
X11529706Y-12483317D01*
X11529706Y-12483317D02*
X11653515Y-12483317D01*
X11710658Y-12349984D02*
X11834467Y-12349984D01*
X11834467Y-12349984D02*
X11767801Y-12426174D01*
X11767801Y-12426174D02*
X11796372Y-12426174D01*
X11796372Y-12426174D02*
X11815420Y-12435698D01*
X11815420Y-12435698D02*
X11824944Y-12445222D01*
X11824944Y-12445222D02*
X11834467Y-12464269D01*
X11834467Y-12464269D02*
X11834467Y-12511888D01*
X11834467Y-12511888D02*
X11824944Y-12530936D01*
X11824944Y-12530936D02*
X11815420Y-12540460D01*
X11815420Y-12540460D02*
X11796372Y-12549984D01*
X11796372Y-12549984D02*
X11739229Y-12549984D01*
X11739229Y-12549984D02*
X11720182Y-12540460D01*
X11720182Y-12540460D02*
X11710658Y-12530936D01*
X11901134Y-12349984D02*
X12024944Y-12349984D01*
X12024944Y-12349984D02*
X11958277Y-12426174D01*
X11958277Y-12426174D02*
X11986848Y-12426174D01*
X11986848Y-12426174D02*
X12005896Y-12435698D01*
X12005896Y-12435698D02*
X12015420Y-12445222D01*
X12015420Y-12445222D02*
X12024944Y-12464269D01*
X12024944Y-12464269D02*
X12024944Y-12511888D01*
X12024944Y-12511888D02*
X12015420Y-12530936D01*
X12015420Y-12530936D02*
X12005896Y-12540460D01*
X12005896Y-12540460D02*
X11986848Y-12549984D01*
X11986848Y-12549984D02*
X11929706Y-12549984D01*
X11929706Y-12549984D02*
X11910658Y-12540460D01*
X11910658Y-12540460D02*
X11901134Y-12530936D01*
X12101134Y-12349984D02*
X12101134Y-12388079D01*
X12177325Y-12349984D02*
X12177325Y-12388079D01*
X12472563Y-12626174D02*
X12463039Y-12616650D01*
X12463039Y-12616650D02*
X12443991Y-12588079D01*
X12443991Y-12588079D02*
X12434468Y-12569031D01*
X12434468Y-12569031D02*
X12424944Y-12540460D01*
X12424944Y-12540460D02*
X12415420Y-12492841D01*
X12415420Y-12492841D02*
X12415420Y-12454746D01*
X12415420Y-12454746D02*
X12424944Y-12407127D01*
X12424944Y-12407127D02*
X12434468Y-12378555D01*
X12434468Y-12378555D02*
X12443991Y-12359508D01*
X12443991Y-12359508D02*
X12463039Y-12330936D01*
X12463039Y-12330936D02*
X12472563Y-12321412D01*
X12653515Y-12549984D02*
X12539229Y-12549984D01*
X12596372Y-12549984D02*
X12596372Y-12349984D01*
X12596372Y-12349984D02*
X12577325Y-12378555D01*
X12577325Y-12378555D02*
X12558277Y-12397603D01*
X12558277Y-12397603D02*
X12539229Y-12407127D01*
X12767801Y-12435698D02*
X12748753Y-12426174D01*
X12748753Y-12426174D02*
X12739229Y-12416650D01*
X12739229Y-12416650D02*
X12729706Y-12397603D01*
X12729706Y-12397603D02*
X12729706Y-12388079D01*
X12729706Y-12388079D02*
X12739229Y-12369031D01*
X12739229Y-12369031D02*
X12748753Y-12359508D01*
X12748753Y-12359508D02*
X12767801Y-12349984D01*
X12767801Y-12349984D02*
X12805896Y-12349984D01*
X12805896Y-12349984D02*
X12824944Y-12359508D01*
X12824944Y-12359508D02*
X12834468Y-12369031D01*
X12834468Y-12369031D02*
X12843991Y-12388079D01*
X12843991Y-12388079D02*
X12843991Y-12397603D01*
X12843991Y-12397603D02*
X12834468Y-12416650D01*
X12834468Y-12416650D02*
X12824944Y-12426174D01*
X12824944Y-12426174D02*
X12805896Y-12435698D01*
X12805896Y-12435698D02*
X12767801Y-12435698D01*
X12767801Y-12435698D02*
X12748753Y-12445222D01*
X12748753Y-12445222D02*
X12739229Y-12454746D01*
X12739229Y-12454746D02*
X12729706Y-12473793D01*
X12729706Y-12473793D02*
X12729706Y-12511888D01*
X12729706Y-12511888D02*
X12739229Y-12530936D01*
X12739229Y-12530936D02*
X12748753Y-12540460D01*
X12748753Y-12540460D02*
X12767801Y-12549984D01*
X12767801Y-12549984D02*
X12805896Y-12549984D01*
X12805896Y-12549984D02*
X12824944Y-12540460D01*
X12824944Y-12540460D02*
X12834468Y-12530936D01*
X12834468Y-12530936D02*
X12843991Y-12511888D01*
X12843991Y-12511888D02*
X12843991Y-12473793D01*
X12843991Y-12473793D02*
X12834468Y-12454746D01*
X12834468Y-12454746D02*
X12824944Y-12445222D01*
X12824944Y-12445222D02*
X12805896Y-12435698D01*
X13082087Y-12549984D02*
X13082087Y-12349984D01*
X13167801Y-12549984D02*
X13167801Y-12445222D01*
X13167801Y-12445222D02*
X13158277Y-12426174D01*
X13158277Y-12426174D02*
X13139230Y-12416650D01*
X13139230Y-12416650D02*
X13110658Y-12416650D01*
X13110658Y-12416650D02*
X13091610Y-12426174D01*
X13091610Y-12426174D02*
X13082087Y-12435698D01*
X13291610Y-12549984D02*
X13272563Y-12540460D01*
X13272563Y-12540460D02*
X13263039Y-12530936D01*
X13263039Y-12530936D02*
X13253515Y-12511888D01*
X13253515Y-12511888D02*
X13253515Y-12454746D01*
X13253515Y-12454746D02*
X13263039Y-12435698D01*
X13263039Y-12435698D02*
X13272563Y-12426174D01*
X13272563Y-12426174D02*
X13291610Y-12416650D01*
X13291610Y-12416650D02*
X13320182Y-12416650D01*
X13320182Y-12416650D02*
X13339230Y-12426174D01*
X13339230Y-12426174D02*
X13348753Y-12435698D01*
X13348753Y-12435698D02*
X13358277Y-12454746D01*
X13358277Y-12454746D02*
X13358277Y-12511888D01*
X13358277Y-12511888D02*
X13348753Y-12530936D01*
X13348753Y-12530936D02*
X13339230Y-12540460D01*
X13339230Y-12540460D02*
X13320182Y-12549984D01*
X13320182Y-12549984D02*
X13291610Y-12549984D01*
X13472563Y-12549984D02*
X13453515Y-12540460D01*
X13453515Y-12540460D02*
X13443991Y-12521412D01*
X13443991Y-12521412D02*
X13443991Y-12349984D01*
X13624944Y-12540460D02*
X13605896Y-12549984D01*
X13605896Y-12549984D02*
X13567801Y-12549984D01*
X13567801Y-12549984D02*
X13548753Y-12540460D01*
X13548753Y-12540460D02*
X13539230Y-12521412D01*
X13539230Y-12521412D02*
X13539230Y-12445222D01*
X13539230Y-12445222D02*
X13548753Y-12426174D01*
X13548753Y-12426174D02*
X13567801Y-12416650D01*
X13567801Y-12416650D02*
X13605896Y-12416650D01*
X13605896Y-12416650D02*
X13624944Y-12426174D01*
X13624944Y-12426174D02*
X13634468Y-12445222D01*
X13634468Y-12445222D02*
X13634468Y-12464269D01*
X13634468Y-12464269D02*
X13539230Y-12483317D01*
X13710658Y-12540460D02*
X13729706Y-12549984D01*
X13729706Y-12549984D02*
X13767801Y-12549984D01*
X13767801Y-12549984D02*
X13786849Y-12540460D01*
X13786849Y-12540460D02*
X13796372Y-12521412D01*
X13796372Y-12521412D02*
X13796372Y-12511888D01*
X13796372Y-12511888D02*
X13786849Y-12492841D01*
X13786849Y-12492841D02*
X13767801Y-12483317D01*
X13767801Y-12483317D02*
X13739230Y-12483317D01*
X13739230Y-12483317D02*
X13720182Y-12473793D01*
X13720182Y-12473793D02*
X13710658Y-12454746D01*
X13710658Y-12454746D02*
X13710658Y-12445222D01*
X13710658Y-12445222D02*
X13720182Y-12426174D01*
X13720182Y-12426174D02*
X13739230Y-12416650D01*
X13739230Y-12416650D02*
X13767801Y-12416650D01*
X13767801Y-12416650D02*
X13786849Y-12426174D01*
X13863039Y-12626174D02*
X13872563Y-12616650D01*
X13872563Y-12616650D02*
X13891611Y-12588079D01*
X13891611Y-12588079D02*
X13901134Y-12569031D01*
X13901134Y-12569031D02*
X13910658Y-12540460D01*
X13910658Y-12540460D02*
X13920182Y-12492841D01*
X13920182Y-12492841D02*
X13920182Y-12454746D01*
X13920182Y-12454746D02*
X13910658Y-12407127D01*
X13910658Y-12407127D02*
X13901134Y-12378555D01*
X13901134Y-12378555D02*
X13891611Y-12359508D01*
X13891611Y-12359508D02*
X13872563Y-12330936D01*
X13872563Y-12330936D02*
X13863039Y-12321412D01*
D14*
X8879927Y-12764927D02*
X8879927Y-12680073D01*
X8795073Y-12680073D01*
X8795073Y-12764927D01*
X8879927Y-12764927D01*
D11*
X9263039Y-12813984D02*
X9148753Y-12813984D01*
X9205896Y-12813984D02*
X9205896Y-12613984D01*
X9205896Y-12613984D02*
X9186848Y-12642555D01*
X9186848Y-12642555D02*
X9167801Y-12661603D01*
X9167801Y-12661603D02*
X9148753Y-12671127D01*
X9348753Y-12794936D02*
X9358277Y-12804460D01*
X9358277Y-12804460D02*
X9348753Y-12813984D01*
X9348753Y-12813984D02*
X9339229Y-12804460D01*
X9339229Y-12804460D02*
X9348753Y-12794936D01*
X9348753Y-12794936D02*
X9348753Y-12813984D01*
X9434467Y-12633031D02*
X9443991Y-12623508D01*
X9443991Y-12623508D02*
X9463039Y-12613984D01*
X9463039Y-12613984D02*
X9510658Y-12613984D01*
X9510658Y-12613984D02*
X9529705Y-12623508D01*
X9529705Y-12623508D02*
X9539229Y-12633031D01*
X9539229Y-12633031D02*
X9548753Y-12652079D01*
X9548753Y-12652079D02*
X9548753Y-12671127D01*
X9548753Y-12671127D02*
X9539229Y-12699698D01*
X9539229Y-12699698D02*
X9424944Y-12813984D01*
X9424944Y-12813984D02*
X9548753Y-12813984D01*
X9672563Y-12613984D02*
X9691610Y-12613984D01*
X9691610Y-12613984D02*
X9710658Y-12623508D01*
X9710658Y-12623508D02*
X9720182Y-12633031D01*
X9720182Y-12633031D02*
X9729705Y-12652079D01*
X9729705Y-12652079D02*
X9739229Y-12690174D01*
X9739229Y-12690174D02*
X9739229Y-12737793D01*
X9739229Y-12737793D02*
X9729705Y-12775888D01*
X9729705Y-12775888D02*
X9720182Y-12794936D01*
X9720182Y-12794936D02*
X9710658Y-12804460D01*
X9710658Y-12804460D02*
X9691610Y-12813984D01*
X9691610Y-12813984D02*
X9672563Y-12813984D01*
X9672563Y-12813984D02*
X9653515Y-12804460D01*
X9653515Y-12804460D02*
X9643991Y-12794936D01*
X9643991Y-12794936D02*
X9634467Y-12775888D01*
X9634467Y-12775888D02*
X9624944Y-12737793D01*
X9624944Y-12737793D02*
X9624944Y-12690174D01*
X9624944Y-12690174D02*
X9634467Y-12652079D01*
X9634467Y-12652079D02*
X9643991Y-12633031D01*
X9643991Y-12633031D02*
X9653515Y-12623508D01*
X9653515Y-12623508D02*
X9672563Y-12613984D01*
X9863039Y-12613984D02*
X9882086Y-12613984D01*
X9882086Y-12613984D02*
X9901134Y-12623508D01*
X9901134Y-12623508D02*
X9910658Y-12633031D01*
X9910658Y-12633031D02*
X9920182Y-12652079D01*
X9920182Y-12652079D02*
X9929705Y-12690174D01*
X9929705Y-12690174D02*
X9929705Y-12737793D01*
X9929705Y-12737793D02*
X9920182Y-12775888D01*
X9920182Y-12775888D02*
X9910658Y-12794936D01*
X9910658Y-12794936D02*
X9901134Y-12804460D01*
X9901134Y-12804460D02*
X9882086Y-12813984D01*
X9882086Y-12813984D02*
X9863039Y-12813984D01*
X9863039Y-12813984D02*
X9843991Y-12804460D01*
X9843991Y-12804460D02*
X9834467Y-12794936D01*
X9834467Y-12794936D02*
X9824944Y-12775888D01*
X9824944Y-12775888D02*
X9815420Y-12737793D01*
X9815420Y-12737793D02*
X9815420Y-12690174D01*
X9815420Y-12690174D02*
X9824944Y-12652079D01*
X9824944Y-12652079D02*
X9834467Y-12633031D01*
X9834467Y-12633031D02*
X9843991Y-12623508D01*
X9843991Y-12623508D02*
X9863039Y-12613984D01*
X10015420Y-12813984D02*
X10015420Y-12680650D01*
X10015420Y-12699698D02*
X10024944Y-12690174D01*
X10024944Y-12690174D02*
X10043991Y-12680650D01*
X10043991Y-12680650D02*
X10072563Y-12680650D01*
X10072563Y-12680650D02*
X10091610Y-12690174D01*
X10091610Y-12690174D02*
X10101134Y-12709222D01*
X10101134Y-12709222D02*
X10101134Y-12813984D01*
X10101134Y-12709222D02*
X10110658Y-12690174D01*
X10110658Y-12690174D02*
X10129705Y-12680650D01*
X10129705Y-12680650D02*
X10158277Y-12680650D01*
X10158277Y-12680650D02*
X10177325Y-12690174D01*
X10177325Y-12690174D02*
X10186848Y-12709222D01*
X10186848Y-12709222D02*
X10186848Y-12813984D01*
X10282086Y-12813984D02*
X10282086Y-12680650D01*
X10282086Y-12699698D02*
X10291610Y-12690174D01*
X10291610Y-12690174D02*
X10310658Y-12680650D01*
X10310658Y-12680650D02*
X10339229Y-12680650D01*
X10339229Y-12680650D02*
X10358277Y-12690174D01*
X10358277Y-12690174D02*
X10367801Y-12709222D01*
X10367801Y-12709222D02*
X10367801Y-12813984D01*
X10367801Y-12709222D02*
X10377325Y-12690174D01*
X10377325Y-12690174D02*
X10396372Y-12680650D01*
X10396372Y-12680650D02*
X10424944Y-12680650D01*
X10424944Y-12680650D02*
X10443991Y-12690174D01*
X10443991Y-12690174D02*
X10453515Y-12709222D01*
X10453515Y-12709222D02*
X10453515Y-12813984D01*
X10843991Y-12604460D02*
X10672563Y-12861603D01*
X11101134Y-12613984D02*
X11120182Y-12613984D01*
X11120182Y-12613984D02*
X11139229Y-12623508D01*
X11139229Y-12623508D02*
X11148753Y-12633031D01*
X11148753Y-12633031D02*
X11158277Y-12652079D01*
X11158277Y-12652079D02*
X11167801Y-12690174D01*
X11167801Y-12690174D02*
X11167801Y-12737793D01*
X11167801Y-12737793D02*
X11158277Y-12775888D01*
X11158277Y-12775888D02*
X11148753Y-12794936D01*
X11148753Y-12794936D02*
X11139229Y-12804460D01*
X11139229Y-12804460D02*
X11120182Y-12813984D01*
X11120182Y-12813984D02*
X11101134Y-12813984D01*
X11101134Y-12813984D02*
X11082087Y-12804460D01*
X11082087Y-12804460D02*
X11072563Y-12794936D01*
X11072563Y-12794936D02*
X11063039Y-12775888D01*
X11063039Y-12775888D02*
X11053515Y-12737793D01*
X11053515Y-12737793D02*
X11053515Y-12690174D01*
X11053515Y-12690174D02*
X11063039Y-12652079D01*
X11063039Y-12652079D02*
X11072563Y-12633031D01*
X11072563Y-12633031D02*
X11082087Y-12623508D01*
X11082087Y-12623508D02*
X11101134Y-12613984D01*
X11253515Y-12794936D02*
X11263039Y-12804460D01*
X11263039Y-12804460D02*
X11253515Y-12813984D01*
X11253515Y-12813984D02*
X11243991Y-12804460D01*
X11243991Y-12804460D02*
X11253515Y-12794936D01*
X11253515Y-12794936D02*
X11253515Y-12813984D01*
X11386848Y-12613984D02*
X11405896Y-12613984D01*
X11405896Y-12613984D02*
X11424944Y-12623508D01*
X11424944Y-12623508D02*
X11434467Y-12633031D01*
X11434467Y-12633031D02*
X11443991Y-12652079D01*
X11443991Y-12652079D02*
X11453515Y-12690174D01*
X11453515Y-12690174D02*
X11453515Y-12737793D01*
X11453515Y-12737793D02*
X11443991Y-12775888D01*
X11443991Y-12775888D02*
X11434467Y-12794936D01*
X11434467Y-12794936D02*
X11424944Y-12804460D01*
X11424944Y-12804460D02*
X11405896Y-12813984D01*
X11405896Y-12813984D02*
X11386848Y-12813984D01*
X11386848Y-12813984D02*
X11367801Y-12804460D01*
X11367801Y-12804460D02*
X11358277Y-12794936D01*
X11358277Y-12794936D02*
X11348753Y-12775888D01*
X11348753Y-12775888D02*
X11339229Y-12737793D01*
X11339229Y-12737793D02*
X11339229Y-12690174D01*
X11339229Y-12690174D02*
X11348753Y-12652079D01*
X11348753Y-12652079D02*
X11358277Y-12633031D01*
X11358277Y-12633031D02*
X11367801Y-12623508D01*
X11367801Y-12623508D02*
X11386848Y-12613984D01*
X11624944Y-12680650D02*
X11624944Y-12813984D01*
X11577325Y-12604460D02*
X11529706Y-12747317D01*
X11529706Y-12747317D02*
X11653515Y-12747317D01*
X11710658Y-12613984D02*
X11843991Y-12613984D01*
X11843991Y-12613984D02*
X11758277Y-12813984D01*
X11910658Y-12633031D02*
X11920182Y-12623508D01*
X11920182Y-12623508D02*
X11939229Y-12613984D01*
X11939229Y-12613984D02*
X11986848Y-12613984D01*
X11986848Y-12613984D02*
X12005896Y-12623508D01*
X12005896Y-12623508D02*
X12015420Y-12633031D01*
X12015420Y-12633031D02*
X12024944Y-12652079D01*
X12024944Y-12652079D02*
X12024944Y-12671127D01*
X12024944Y-12671127D02*
X12015420Y-12699698D01*
X12015420Y-12699698D02*
X11901134Y-12813984D01*
X11901134Y-12813984D02*
X12024944Y-12813984D01*
X12101134Y-12613984D02*
X12101134Y-12652079D01*
X12177325Y-12613984D02*
X12177325Y-12652079D01*
X12472563Y-12890174D02*
X12463039Y-12880650D01*
X12463039Y-12880650D02*
X12443991Y-12852079D01*
X12443991Y-12852079D02*
X12434468Y-12833031D01*
X12434468Y-12833031D02*
X12424944Y-12804460D01*
X12424944Y-12804460D02*
X12415420Y-12756841D01*
X12415420Y-12756841D02*
X12415420Y-12718746D01*
X12415420Y-12718746D02*
X12424944Y-12671127D01*
X12424944Y-12671127D02*
X12434468Y-12642555D01*
X12434468Y-12642555D02*
X12443991Y-12623508D01*
X12443991Y-12623508D02*
X12463039Y-12594936D01*
X12463039Y-12594936D02*
X12472563Y-12585412D01*
X12653515Y-12813984D02*
X12539229Y-12813984D01*
X12596372Y-12813984D02*
X12596372Y-12613984D01*
X12596372Y-12613984D02*
X12577325Y-12642555D01*
X12577325Y-12642555D02*
X12558277Y-12661603D01*
X12558277Y-12661603D02*
X12539229Y-12671127D01*
X12729706Y-12633031D02*
X12739229Y-12623508D01*
X12739229Y-12623508D02*
X12758277Y-12613984D01*
X12758277Y-12613984D02*
X12805896Y-12613984D01*
X12805896Y-12613984D02*
X12824944Y-12623508D01*
X12824944Y-12623508D02*
X12834468Y-12633031D01*
X12834468Y-12633031D02*
X12843991Y-12652079D01*
X12843991Y-12652079D02*
X12843991Y-12671127D01*
X12843991Y-12671127D02*
X12834468Y-12699698D01*
X12834468Y-12699698D02*
X12720182Y-12813984D01*
X12720182Y-12813984D02*
X12843991Y-12813984D01*
X13082087Y-12813984D02*
X13082087Y-12613984D01*
X13167801Y-12813984D02*
X13167801Y-12709222D01*
X13167801Y-12709222D02*
X13158277Y-12690174D01*
X13158277Y-12690174D02*
X13139230Y-12680650D01*
X13139230Y-12680650D02*
X13110658Y-12680650D01*
X13110658Y-12680650D02*
X13091610Y-12690174D01*
X13091610Y-12690174D02*
X13082087Y-12699698D01*
X13291610Y-12813984D02*
X13272563Y-12804460D01*
X13272563Y-12804460D02*
X13263039Y-12794936D01*
X13263039Y-12794936D02*
X13253515Y-12775888D01*
X13253515Y-12775888D02*
X13253515Y-12718746D01*
X13253515Y-12718746D02*
X13263039Y-12699698D01*
X13263039Y-12699698D02*
X13272563Y-12690174D01*
X13272563Y-12690174D02*
X13291610Y-12680650D01*
X13291610Y-12680650D02*
X13320182Y-12680650D01*
X13320182Y-12680650D02*
X13339230Y-12690174D01*
X13339230Y-12690174D02*
X13348753Y-12699698D01*
X13348753Y-12699698D02*
X13358277Y-12718746D01*
X13358277Y-12718746D02*
X13358277Y-12775888D01*
X13358277Y-12775888D02*
X13348753Y-12794936D01*
X13348753Y-12794936D02*
X13339230Y-12804460D01*
X13339230Y-12804460D02*
X13320182Y-12813984D01*
X13320182Y-12813984D02*
X13291610Y-12813984D01*
X13472563Y-12813984D02*
X13453515Y-12804460D01*
X13453515Y-12804460D02*
X13443991Y-12785412D01*
X13443991Y-12785412D02*
X13443991Y-12613984D01*
X13624944Y-12804460D02*
X13605896Y-12813984D01*
X13605896Y-12813984D02*
X13567801Y-12813984D01*
X13567801Y-12813984D02*
X13548753Y-12804460D01*
X13548753Y-12804460D02*
X13539230Y-12785412D01*
X13539230Y-12785412D02*
X13539230Y-12709222D01*
X13539230Y-12709222D02*
X13548753Y-12690174D01*
X13548753Y-12690174D02*
X13567801Y-12680650D01*
X13567801Y-12680650D02*
X13605896Y-12680650D01*
X13605896Y-12680650D02*
X13624944Y-12690174D01*
X13624944Y-12690174D02*
X13634468Y-12709222D01*
X13634468Y-12709222D02*
X13634468Y-12728269D01*
X13634468Y-12728269D02*
X13539230Y-12747317D01*
X13710658Y-12804460D02*
X13729706Y-12813984D01*
X13729706Y-12813984D02*
X13767801Y-12813984D01*
X13767801Y-12813984D02*
X13786849Y-12804460D01*
X13786849Y-12804460D02*
X13796372Y-12785412D01*
X13796372Y-12785412D02*
X13796372Y-12775888D01*
X13796372Y-12775888D02*
X13786849Y-12756841D01*
X13786849Y-12756841D02*
X13767801Y-12747317D01*
X13767801Y-12747317D02*
X13739230Y-12747317D01*
X13739230Y-12747317D02*
X13720182Y-12737793D01*
X13720182Y-12737793D02*
X13710658Y-12718746D01*
X13710658Y-12718746D02*
X13710658Y-12709222D01*
X13710658Y-12709222D02*
X13720182Y-12690174D01*
X13720182Y-12690174D02*
X13739230Y-12680650D01*
X13739230Y-12680650D02*
X13767801Y-12680650D01*
X13767801Y-12680650D02*
X13786849Y-12690174D01*
X13863039Y-12890174D02*
X13872563Y-12880650D01*
X13872563Y-12880650D02*
X13891611Y-12852079D01*
X13891611Y-12852079D02*
X13901134Y-12833031D01*
X13901134Y-12833031D02*
X13910658Y-12804460D01*
X13910658Y-12804460D02*
X13920182Y-12756841D01*
X13920182Y-12756841D02*
X13920182Y-12718746D01*
X13920182Y-12718746D02*
X13910658Y-12671127D01*
X13910658Y-12671127D02*
X13901134Y-12642555D01*
X13901134Y-12642555D02*
X13891611Y-12623508D01*
X13891611Y-12623508D02*
X13872563Y-12594936D01*
X13872563Y-12594936D02*
X13863039Y-12585412D01*
X8797500Y-13086500D02*
X8897500Y-12986500D01*
X8797500Y-12886500D01*
X8697500Y-12986500D01*
X8797500Y-13086500D01*
X9139229Y-12877984D02*
X9263039Y-12877984D01*
X9263039Y-12877984D02*
X9196372Y-12954174D01*
X9196372Y-12954174D02*
X9224944Y-12954174D01*
X9224944Y-12954174D02*
X9243991Y-12963698D01*
X9243991Y-12963698D02*
X9253515Y-12973222D01*
X9253515Y-12973222D02*
X9263039Y-12992269D01*
X9263039Y-12992269D02*
X9263039Y-13039888D01*
X9263039Y-13039888D02*
X9253515Y-13058936D01*
X9253515Y-13058936D02*
X9243991Y-13068460D01*
X9243991Y-13068460D02*
X9224944Y-13077984D01*
X9224944Y-13077984D02*
X9167801Y-13077984D01*
X9167801Y-13077984D02*
X9148753Y-13068460D01*
X9148753Y-13068460D02*
X9139229Y-13058936D01*
X9348753Y-13058936D02*
X9358277Y-13068460D01*
X9358277Y-13068460D02*
X9348753Y-13077984D01*
X9348753Y-13077984D02*
X9339229Y-13068460D01*
X9339229Y-13068460D02*
X9348753Y-13058936D01*
X9348753Y-13058936D02*
X9348753Y-13077984D01*
X9434467Y-12897031D02*
X9443991Y-12887508D01*
X9443991Y-12887508D02*
X9463039Y-12877984D01*
X9463039Y-12877984D02*
X9510658Y-12877984D01*
X9510658Y-12877984D02*
X9529705Y-12887508D01*
X9529705Y-12887508D02*
X9539229Y-12897031D01*
X9539229Y-12897031D02*
X9548753Y-12916079D01*
X9548753Y-12916079D02*
X9548753Y-12935127D01*
X9548753Y-12935127D02*
X9539229Y-12963698D01*
X9539229Y-12963698D02*
X9424944Y-13077984D01*
X9424944Y-13077984D02*
X9548753Y-13077984D01*
X9672563Y-12877984D02*
X9691610Y-12877984D01*
X9691610Y-12877984D02*
X9710658Y-12887508D01*
X9710658Y-12887508D02*
X9720182Y-12897031D01*
X9720182Y-12897031D02*
X9729705Y-12916079D01*
X9729705Y-12916079D02*
X9739229Y-12954174D01*
X9739229Y-12954174D02*
X9739229Y-13001793D01*
X9739229Y-13001793D02*
X9729705Y-13039888D01*
X9729705Y-13039888D02*
X9720182Y-13058936D01*
X9720182Y-13058936D02*
X9710658Y-13068460D01*
X9710658Y-13068460D02*
X9691610Y-13077984D01*
X9691610Y-13077984D02*
X9672563Y-13077984D01*
X9672563Y-13077984D02*
X9653515Y-13068460D01*
X9653515Y-13068460D02*
X9643991Y-13058936D01*
X9643991Y-13058936D02*
X9634467Y-13039888D01*
X9634467Y-13039888D02*
X9624944Y-13001793D01*
X9624944Y-13001793D02*
X9624944Y-12954174D01*
X9624944Y-12954174D02*
X9634467Y-12916079D01*
X9634467Y-12916079D02*
X9643991Y-12897031D01*
X9643991Y-12897031D02*
X9653515Y-12887508D01*
X9653515Y-12887508D02*
X9672563Y-12877984D01*
X9863039Y-12877984D02*
X9882086Y-12877984D01*
X9882086Y-12877984D02*
X9901134Y-12887508D01*
X9901134Y-12887508D02*
X9910658Y-12897031D01*
X9910658Y-12897031D02*
X9920182Y-12916079D01*
X9920182Y-12916079D02*
X9929705Y-12954174D01*
X9929705Y-12954174D02*
X9929705Y-13001793D01*
X9929705Y-13001793D02*
X9920182Y-13039888D01*
X9920182Y-13039888D02*
X9910658Y-13058936D01*
X9910658Y-13058936D02*
X9901134Y-13068460D01*
X9901134Y-13068460D02*
X9882086Y-13077984D01*
X9882086Y-13077984D02*
X9863039Y-13077984D01*
X9863039Y-13077984D02*
X9843991Y-13068460D01*
X9843991Y-13068460D02*
X9834467Y-13058936D01*
X9834467Y-13058936D02*
X9824944Y-13039888D01*
X9824944Y-13039888D02*
X9815420Y-13001793D01*
X9815420Y-13001793D02*
X9815420Y-12954174D01*
X9815420Y-12954174D02*
X9824944Y-12916079D01*
X9824944Y-12916079D02*
X9834467Y-12897031D01*
X9834467Y-12897031D02*
X9843991Y-12887508D01*
X9843991Y-12887508D02*
X9863039Y-12877984D01*
X10015420Y-13077984D02*
X10015420Y-12944650D01*
X10015420Y-12963698D02*
X10024944Y-12954174D01*
X10024944Y-12954174D02*
X10043991Y-12944650D01*
X10043991Y-12944650D02*
X10072563Y-12944650D01*
X10072563Y-12944650D02*
X10091610Y-12954174D01*
X10091610Y-12954174D02*
X10101134Y-12973222D01*
X10101134Y-12973222D02*
X10101134Y-13077984D01*
X10101134Y-12973222D02*
X10110658Y-12954174D01*
X10110658Y-12954174D02*
X10129705Y-12944650D01*
X10129705Y-12944650D02*
X10158277Y-12944650D01*
X10158277Y-12944650D02*
X10177325Y-12954174D01*
X10177325Y-12954174D02*
X10186848Y-12973222D01*
X10186848Y-12973222D02*
X10186848Y-13077984D01*
X10282086Y-13077984D02*
X10282086Y-12944650D01*
X10282086Y-12963698D02*
X10291610Y-12954174D01*
X10291610Y-12954174D02*
X10310658Y-12944650D01*
X10310658Y-12944650D02*
X10339229Y-12944650D01*
X10339229Y-12944650D02*
X10358277Y-12954174D01*
X10358277Y-12954174D02*
X10367801Y-12973222D01*
X10367801Y-12973222D02*
X10367801Y-13077984D01*
X10367801Y-12973222D02*
X10377325Y-12954174D01*
X10377325Y-12954174D02*
X10396372Y-12944650D01*
X10396372Y-12944650D02*
X10424944Y-12944650D01*
X10424944Y-12944650D02*
X10443991Y-12954174D01*
X10443991Y-12954174D02*
X10453515Y-12973222D01*
X10453515Y-12973222D02*
X10453515Y-13077984D01*
X10843991Y-12868460D02*
X10672563Y-13125603D01*
X11101134Y-12877984D02*
X11120182Y-12877984D01*
X11120182Y-12877984D02*
X11139229Y-12887508D01*
X11139229Y-12887508D02*
X11148753Y-12897031D01*
X11148753Y-12897031D02*
X11158277Y-12916079D01*
X11158277Y-12916079D02*
X11167801Y-12954174D01*
X11167801Y-12954174D02*
X11167801Y-13001793D01*
X11167801Y-13001793D02*
X11158277Y-13039888D01*
X11158277Y-13039888D02*
X11148753Y-13058936D01*
X11148753Y-13058936D02*
X11139229Y-13068460D01*
X11139229Y-13068460D02*
X11120182Y-13077984D01*
X11120182Y-13077984D02*
X11101134Y-13077984D01*
X11101134Y-13077984D02*
X11082087Y-13068460D01*
X11082087Y-13068460D02*
X11072563Y-13058936D01*
X11072563Y-13058936D02*
X11063039Y-13039888D01*
X11063039Y-13039888D02*
X11053515Y-13001793D01*
X11053515Y-13001793D02*
X11053515Y-12954174D01*
X11053515Y-12954174D02*
X11063039Y-12916079D01*
X11063039Y-12916079D02*
X11072563Y-12897031D01*
X11072563Y-12897031D02*
X11082087Y-12887508D01*
X11082087Y-12887508D02*
X11101134Y-12877984D01*
X11253515Y-13058936D02*
X11263039Y-13068460D01*
X11263039Y-13068460D02*
X11253515Y-13077984D01*
X11253515Y-13077984D02*
X11243991Y-13068460D01*
X11243991Y-13068460D02*
X11253515Y-13058936D01*
X11253515Y-13058936D02*
X11253515Y-13077984D01*
X11453515Y-13077984D02*
X11339229Y-13077984D01*
X11396372Y-13077984D02*
X11396372Y-12877984D01*
X11396372Y-12877984D02*
X11377325Y-12906555D01*
X11377325Y-12906555D02*
X11358277Y-12925603D01*
X11358277Y-12925603D02*
X11339229Y-12935127D01*
X11529706Y-12897031D02*
X11539229Y-12887508D01*
X11539229Y-12887508D02*
X11558277Y-12877984D01*
X11558277Y-12877984D02*
X11605896Y-12877984D01*
X11605896Y-12877984D02*
X11624944Y-12887508D01*
X11624944Y-12887508D02*
X11634467Y-12897031D01*
X11634467Y-12897031D02*
X11643991Y-12916079D01*
X11643991Y-12916079D02*
X11643991Y-12935127D01*
X11643991Y-12935127D02*
X11634467Y-12963698D01*
X11634467Y-12963698D02*
X11520182Y-13077984D01*
X11520182Y-13077984D02*
X11643991Y-13077984D01*
X11815420Y-12877984D02*
X11777325Y-12877984D01*
X11777325Y-12877984D02*
X11758277Y-12887508D01*
X11758277Y-12887508D02*
X11748753Y-12897031D01*
X11748753Y-12897031D02*
X11729706Y-12925603D01*
X11729706Y-12925603D02*
X11720182Y-12963698D01*
X11720182Y-12963698D02*
X11720182Y-13039888D01*
X11720182Y-13039888D02*
X11729706Y-13058936D01*
X11729706Y-13058936D02*
X11739229Y-13068460D01*
X11739229Y-13068460D02*
X11758277Y-13077984D01*
X11758277Y-13077984D02*
X11796372Y-13077984D01*
X11796372Y-13077984D02*
X11815420Y-13068460D01*
X11815420Y-13068460D02*
X11824944Y-13058936D01*
X11824944Y-13058936D02*
X11834467Y-13039888D01*
X11834467Y-13039888D02*
X11834467Y-12992269D01*
X11834467Y-12992269D02*
X11824944Y-12973222D01*
X11824944Y-12973222D02*
X11815420Y-12963698D01*
X11815420Y-12963698D02*
X11796372Y-12954174D01*
X11796372Y-12954174D02*
X11758277Y-12954174D01*
X11758277Y-12954174D02*
X11739229Y-12963698D01*
X11739229Y-12963698D02*
X11729706Y-12973222D01*
X11729706Y-12973222D02*
X11720182Y-12992269D01*
X11958277Y-12877984D02*
X11977325Y-12877984D01*
X11977325Y-12877984D02*
X11996372Y-12887508D01*
X11996372Y-12887508D02*
X12005896Y-12897031D01*
X12005896Y-12897031D02*
X12015420Y-12916079D01*
X12015420Y-12916079D02*
X12024944Y-12954174D01*
X12024944Y-12954174D02*
X12024944Y-13001793D01*
X12024944Y-13001793D02*
X12015420Y-13039888D01*
X12015420Y-13039888D02*
X12005896Y-13058936D01*
X12005896Y-13058936D02*
X11996372Y-13068460D01*
X11996372Y-13068460D02*
X11977325Y-13077984D01*
X11977325Y-13077984D02*
X11958277Y-13077984D01*
X11958277Y-13077984D02*
X11939229Y-13068460D01*
X11939229Y-13068460D02*
X11929706Y-13058936D01*
X11929706Y-13058936D02*
X11920182Y-13039888D01*
X11920182Y-13039888D02*
X11910658Y-13001793D01*
X11910658Y-13001793D02*
X11910658Y-12954174D01*
X11910658Y-12954174D02*
X11920182Y-12916079D01*
X11920182Y-12916079D02*
X11929706Y-12897031D01*
X11929706Y-12897031D02*
X11939229Y-12887508D01*
X11939229Y-12887508D02*
X11958277Y-12877984D01*
X12101134Y-12877984D02*
X12101134Y-12916079D01*
X12177325Y-12877984D02*
X12177325Y-12916079D01*
X12472563Y-13154174D02*
X12463039Y-13144650D01*
X12463039Y-13144650D02*
X12443991Y-13116079D01*
X12443991Y-13116079D02*
X12434468Y-13097031D01*
X12434468Y-13097031D02*
X12424944Y-13068460D01*
X12424944Y-13068460D02*
X12415420Y-13020841D01*
X12415420Y-13020841D02*
X12415420Y-12982746D01*
X12415420Y-12982746D02*
X12424944Y-12935127D01*
X12424944Y-12935127D02*
X12434468Y-12906555D01*
X12434468Y-12906555D02*
X12443991Y-12887508D01*
X12443991Y-12887508D02*
X12463039Y-12858936D01*
X12463039Y-12858936D02*
X12472563Y-12849412D01*
X12634468Y-12944650D02*
X12634468Y-13077984D01*
X12586848Y-12868460D02*
X12539229Y-13011317D01*
X12539229Y-13011317D02*
X12663039Y-13011317D01*
X12891610Y-13077984D02*
X12891610Y-12877984D01*
X12977325Y-13077984D02*
X12977325Y-12973222D01*
X12977325Y-12973222D02*
X12967801Y-12954174D01*
X12967801Y-12954174D02*
X12948753Y-12944650D01*
X12948753Y-12944650D02*
X12920182Y-12944650D01*
X12920182Y-12944650D02*
X12901134Y-12954174D01*
X12901134Y-12954174D02*
X12891610Y-12963698D01*
X13101134Y-13077984D02*
X13082087Y-13068460D01*
X13082087Y-13068460D02*
X13072563Y-13058936D01*
X13072563Y-13058936D02*
X13063039Y-13039888D01*
X13063039Y-13039888D02*
X13063039Y-12982746D01*
X13063039Y-12982746D02*
X13072563Y-12963698D01*
X13072563Y-12963698D02*
X13082087Y-12954174D01*
X13082087Y-12954174D02*
X13101134Y-12944650D01*
X13101134Y-12944650D02*
X13129706Y-12944650D01*
X13129706Y-12944650D02*
X13148753Y-12954174D01*
X13148753Y-12954174D02*
X13158277Y-12963698D01*
X13158277Y-12963698D02*
X13167801Y-12982746D01*
X13167801Y-12982746D02*
X13167801Y-13039888D01*
X13167801Y-13039888D02*
X13158277Y-13058936D01*
X13158277Y-13058936D02*
X13148753Y-13068460D01*
X13148753Y-13068460D02*
X13129706Y-13077984D01*
X13129706Y-13077984D02*
X13101134Y-13077984D01*
X13282087Y-13077984D02*
X13263039Y-13068460D01*
X13263039Y-13068460D02*
X13253515Y-13049412D01*
X13253515Y-13049412D02*
X13253515Y-12877984D01*
X13434468Y-13068460D02*
X13415420Y-13077984D01*
X13415420Y-13077984D02*
X13377325Y-13077984D01*
X13377325Y-13077984D02*
X13358277Y-13068460D01*
X13358277Y-13068460D02*
X13348753Y-13049412D01*
X13348753Y-13049412D02*
X13348753Y-12973222D01*
X13348753Y-12973222D02*
X13358277Y-12954174D01*
X13358277Y-12954174D02*
X13377325Y-12944650D01*
X13377325Y-12944650D02*
X13415420Y-12944650D01*
X13415420Y-12944650D02*
X13434468Y-12954174D01*
X13434468Y-12954174D02*
X13443991Y-12973222D01*
X13443991Y-12973222D02*
X13443991Y-12992269D01*
X13443991Y-12992269D02*
X13348753Y-13011317D01*
X13520182Y-13068460D02*
X13539230Y-13077984D01*
X13539230Y-13077984D02*
X13577325Y-13077984D01*
X13577325Y-13077984D02*
X13596372Y-13068460D01*
X13596372Y-13068460D02*
X13605896Y-13049412D01*
X13605896Y-13049412D02*
X13605896Y-13039888D01*
X13605896Y-13039888D02*
X13596372Y-13020841D01*
X13596372Y-13020841D02*
X13577325Y-13011317D01*
X13577325Y-13011317D02*
X13548753Y-13011317D01*
X13548753Y-13011317D02*
X13529706Y-13001793D01*
X13529706Y-13001793D02*
X13520182Y-12982746D01*
X13520182Y-12982746D02*
X13520182Y-12973222D01*
X13520182Y-12973222D02*
X13529706Y-12954174D01*
X13529706Y-12954174D02*
X13548753Y-12944650D01*
X13548753Y-12944650D02*
X13577325Y-12944650D01*
X13577325Y-12944650D02*
X13596372Y-12954174D01*
X13672563Y-13154174D02*
X13682087Y-13144650D01*
X13682087Y-13144650D02*
X13701134Y-13116079D01*
X13701134Y-13116079D02*
X13710658Y-13097031D01*
X13710658Y-13097031D02*
X13720182Y-13068460D01*
X13720182Y-13068460D02*
X13729706Y-13020841D01*
X13729706Y-13020841D02*
X13729706Y-12982746D01*
X13729706Y-12982746D02*
X13720182Y-12935127D01*
X13720182Y-12935127D02*
X13710658Y-12906555D01*
X13710658Y-12906555D02*
X13701134Y-12887508D01*
X13701134Y-12887508D02*
X13682087Y-12858936D01*
X13682087Y-12858936D02*
X13672563Y-12849412D01*
M02*
