%TF.GenerationSoftware,KiCad,Pcbnew,8.0.7*%
%TF.CreationDate,2025-01-25T21:28:28+10:00*%
%TF.ProjectId,MFOS_Power_Supply_PCB,4d464f53-5f50-46f7-9765-725f53757070,rev?*%
%TF.SameCoordinates,Original*%
%TF.FileFunction,Drillmap*%
%TF.FilePolarity,Positive*%
%FSLAX45Y45*%
G04 Gerber Fmt 4.5, Leading zero omitted, Abs format (unit mm)*
G04 Created by KiCad (PCBNEW 8.0.7) date 2025-01-25 21:28:28*
%MOMM*%
%LPD*%
G01*
G04 APERTURE LIST*
%ADD10C,0.050000*%
%ADD11C,0.200000*%
G04 APERTURE END LIST*
D10*
X8900000Y-7200000D02*
X19900000Y-7200000D01*
X19900000Y-11288000D01*
X8900000Y-11288000D01*
X8900000Y-7200000D01*
D11*
X9158277Y-11601984D02*
X9158277Y-11401984D01*
X9158277Y-11401984D02*
X9205896Y-11401984D01*
X9205896Y-11401984D02*
X9234467Y-11411508D01*
X9234467Y-11411508D02*
X9253515Y-11430555D01*
X9253515Y-11430555D02*
X9263039Y-11449603D01*
X9263039Y-11449603D02*
X9272563Y-11487698D01*
X9272563Y-11487698D02*
X9272563Y-11516269D01*
X9272563Y-11516269D02*
X9263039Y-11554365D01*
X9263039Y-11554365D02*
X9253515Y-11573412D01*
X9253515Y-11573412D02*
X9234467Y-11592460D01*
X9234467Y-11592460D02*
X9205896Y-11601984D01*
X9205896Y-11601984D02*
X9158277Y-11601984D01*
X9358277Y-11601984D02*
X9358277Y-11468650D01*
X9358277Y-11506746D02*
X9367801Y-11487698D01*
X9367801Y-11487698D02*
X9377324Y-11478174D01*
X9377324Y-11478174D02*
X9396372Y-11468650D01*
X9396372Y-11468650D02*
X9415420Y-11468650D01*
X9482086Y-11601984D02*
X9482086Y-11468650D01*
X9482086Y-11401984D02*
X9472563Y-11411508D01*
X9472563Y-11411508D02*
X9482086Y-11421031D01*
X9482086Y-11421031D02*
X9491610Y-11411508D01*
X9491610Y-11411508D02*
X9482086Y-11401984D01*
X9482086Y-11401984D02*
X9482086Y-11421031D01*
X9605896Y-11601984D02*
X9586848Y-11592460D01*
X9586848Y-11592460D02*
X9577324Y-11573412D01*
X9577324Y-11573412D02*
X9577324Y-11401984D01*
X9710658Y-11601984D02*
X9691610Y-11592460D01*
X9691610Y-11592460D02*
X9682086Y-11573412D01*
X9682086Y-11573412D02*
X9682086Y-11401984D01*
X9939229Y-11601984D02*
X9939229Y-11401984D01*
X9939229Y-11401984D02*
X10005896Y-11544841D01*
X10005896Y-11544841D02*
X10072563Y-11401984D01*
X10072563Y-11401984D02*
X10072563Y-11601984D01*
X10253515Y-11601984D02*
X10253515Y-11497222D01*
X10253515Y-11497222D02*
X10243991Y-11478174D01*
X10243991Y-11478174D02*
X10224944Y-11468650D01*
X10224944Y-11468650D02*
X10186848Y-11468650D01*
X10186848Y-11468650D02*
X10167801Y-11478174D01*
X10253515Y-11592460D02*
X10234467Y-11601984D01*
X10234467Y-11601984D02*
X10186848Y-11601984D01*
X10186848Y-11601984D02*
X10167801Y-11592460D01*
X10167801Y-11592460D02*
X10158277Y-11573412D01*
X10158277Y-11573412D02*
X10158277Y-11554365D01*
X10158277Y-11554365D02*
X10167801Y-11535317D01*
X10167801Y-11535317D02*
X10186848Y-11525793D01*
X10186848Y-11525793D02*
X10234467Y-11525793D01*
X10234467Y-11525793D02*
X10253515Y-11516269D01*
X10348753Y-11468650D02*
X10348753Y-11668650D01*
X10348753Y-11478174D02*
X10367801Y-11468650D01*
X10367801Y-11468650D02*
X10405896Y-11468650D01*
X10405896Y-11468650D02*
X10424944Y-11478174D01*
X10424944Y-11478174D02*
X10434467Y-11487698D01*
X10434467Y-11487698D02*
X10443991Y-11506746D01*
X10443991Y-11506746D02*
X10443991Y-11563888D01*
X10443991Y-11563888D02*
X10434467Y-11582936D01*
X10434467Y-11582936D02*
X10424944Y-11592460D01*
X10424944Y-11592460D02*
X10405896Y-11601984D01*
X10405896Y-11601984D02*
X10367801Y-11601984D01*
X10367801Y-11601984D02*
X10348753Y-11592460D01*
X10529705Y-11582936D02*
X10539229Y-11592460D01*
X10539229Y-11592460D02*
X10529705Y-11601984D01*
X10529705Y-11601984D02*
X10520182Y-11592460D01*
X10520182Y-11592460D02*
X10529705Y-11582936D01*
X10529705Y-11582936D02*
X10529705Y-11601984D01*
X10529705Y-11478174D02*
X10539229Y-11487698D01*
X10539229Y-11487698D02*
X10529705Y-11497222D01*
X10529705Y-11497222D02*
X10520182Y-11487698D01*
X10520182Y-11487698D02*
X10529705Y-11478174D01*
X10529705Y-11478174D02*
X10529705Y-11497222D01*
M02*
