%TF.GenerationSoftware,KiCad,Pcbnew,8.0.7*%
%TF.CreationDate,2025-01-29T21:03:01+10:00*%
%TF.ProjectId,MFOS_Power_Supply_PCB,4d464f53-5f50-46f7-9765-725f53757070,rev?*%
%TF.SameCoordinates,Original*%
%TF.FileFunction,Drillmap*%
%TF.FilePolarity,Positive*%
%FSLAX45Y45*%
G04 Gerber Fmt 4.5, Leading zero omitted, Abs format (unit mm)*
G04 Created by KiCad (PCBNEW 8.0.7) date 2025-01-29 21:03:01*
%MOMM*%
%LPD*%
G01*
G04 APERTURE LIST*
%ADD10C,0.050000*%
%ADD11C,0.200000*%
%ADD12C,0.100000*%
%ADD13C,0.110000*%
%ADD14C,0.120000*%
%ADD15C,0.130000*%
%ADD16C,0.320000*%
G04 APERTURE END LIST*
D10*
X8600000Y-7200000D02*
X20200000Y-7200000D01*
X20200000Y-11288000D01*
X8600000Y-11288000D01*
X8600000Y-7200000D01*
D11*
D12*
X16360000Y-7610000D02*
X16440000Y-7690000D01*
X16440000Y-7610000D02*
X16360000Y-7690000D01*
X16360000Y-8110000D02*
X16440000Y-8190000D01*
X16440000Y-8110000D02*
X16360000Y-8190000D01*
X16360000Y-8510000D02*
X16440000Y-8590000D01*
X16440000Y-8510000D02*
X16360000Y-8590000D01*
X16360000Y-9010000D02*
X16440000Y-9090000D01*
X16440000Y-9010000D02*
X16360000Y-9090000D01*
X16360000Y-9610000D02*
X16440000Y-9690000D01*
X16440000Y-9610000D02*
X16360000Y-9690000D01*
X16360000Y-10110000D02*
X16440000Y-10190000D01*
X16440000Y-10110000D02*
X16360000Y-10190000D01*
X16360000Y-10460000D02*
X16440000Y-10540000D01*
X16440000Y-10460000D02*
X16360000Y-10540000D01*
X16360000Y-10960000D02*
X16440000Y-11040000D01*
X16440000Y-10960000D02*
X16360000Y-11040000D01*
X18960000Y-7852000D02*
X19040000Y-7932000D01*
X19040000Y-7852000D02*
X18960000Y-7932000D01*
X18960000Y-8868000D02*
X19040000Y-8948000D01*
X19040000Y-8868000D02*
X18960000Y-8948000D01*
X18960000Y-9552000D02*
X19040000Y-9632000D01*
X19040000Y-9552000D02*
X18960000Y-9632000D01*
X18960000Y-10568000D02*
X19040000Y-10648000D01*
X19040000Y-10568000D02*
X18960000Y-10648000D01*
D13*
X9955000Y-7892000D02*
G75*
G02*
X9845000Y-7892000I-55000J0D01*
G01*
X9845000Y-7892000D02*
G75*
G02*
X9955000Y-7892000I55000J0D01*
G01*
X9955000Y-8908000D02*
G75*
G02*
X9845000Y-8908000I-55000J0D01*
G01*
X9845000Y-8908000D02*
G75*
G02*
X9955000Y-8908000I55000J0D01*
G01*
X9955000Y-9292000D02*
G75*
G02*
X9845000Y-9292000I-55000J0D01*
G01*
X9845000Y-9292000D02*
G75*
G02*
X9955000Y-9292000I55000J0D01*
G01*
X9955000Y-10308000D02*
G75*
G02*
X9845000Y-10308000I-55000J0D01*
G01*
X9845000Y-10308000D02*
G75*
G02*
X9955000Y-10308000I55000J0D01*
G01*
X17155000Y-9900000D02*
G75*
G02*
X17045000Y-9900000I-55000J0D01*
G01*
X17045000Y-9900000D02*
G75*
G02*
X17155000Y-9900000I55000J0D01*
G01*
X17155000Y-10154000D02*
G75*
G02*
X17045000Y-10154000I-55000J0D01*
G01*
X17045000Y-10154000D02*
G75*
G02*
X17155000Y-10154000I55000J0D01*
G01*
X17155000Y-10408000D02*
G75*
G02*
X17045000Y-10408000I-55000J0D01*
G01*
X17045000Y-10408000D02*
G75*
G02*
X17155000Y-10408000I55000J0D01*
G01*
X17655000Y-8146000D02*
G75*
G02*
X17545000Y-8146000I-55000J0D01*
G01*
X17545000Y-8146000D02*
G75*
G02*
X17655000Y-8146000I55000J0D01*
G01*
X17655000Y-8400000D02*
G75*
G02*
X17545000Y-8400000I-55000J0D01*
G01*
X17545000Y-8400000D02*
G75*
G02*
X17655000Y-8400000I55000J0D01*
G01*
X17655000Y-8654000D02*
G75*
G02*
X17545000Y-8654000I-55000J0D01*
G01*
X17545000Y-8654000D02*
G75*
G02*
X17655000Y-8654000I55000J0D01*
G01*
X18255000Y-7892000D02*
G75*
G02*
X18145000Y-7892000I-55000J0D01*
G01*
X18145000Y-7892000D02*
G75*
G02*
X18255000Y-7892000I55000J0D01*
G01*
X18255000Y-8908000D02*
G75*
G02*
X18145000Y-8908000I-55000J0D01*
G01*
X18145000Y-8908000D02*
G75*
G02*
X18255000Y-8908000I55000J0D01*
G01*
X18255000Y-9592000D02*
G75*
G02*
X18145000Y-9592000I-55000J0D01*
G01*
X18145000Y-9592000D02*
G75*
G02*
X18255000Y-9592000I55000J0D01*
G01*
X18255000Y-10608000D02*
G75*
G02*
X18145000Y-10608000I-55000J0D01*
G01*
X18145000Y-10608000D02*
G75*
G02*
X18255000Y-10608000I55000J0D01*
G01*
X18655000Y-7892000D02*
G75*
G02*
X18545000Y-7892000I-55000J0D01*
G01*
X18545000Y-7892000D02*
G75*
G02*
X18655000Y-7892000I55000J0D01*
G01*
X18655000Y-8908000D02*
G75*
G02*
X18545000Y-8908000I-55000J0D01*
G01*
X18545000Y-8908000D02*
G75*
G02*
X18655000Y-8908000I55000J0D01*
G01*
X18655000Y-9592000D02*
G75*
G02*
X18545000Y-9592000I-55000J0D01*
G01*
X18545000Y-9592000D02*
G75*
G02*
X18655000Y-9592000I55000J0D01*
G01*
X18655000Y-10608000D02*
G75*
G02*
X18545000Y-10608000I-55000J0D01*
G01*
X18545000Y-10608000D02*
G75*
G02*
X18655000Y-10608000I55000J0D01*
G01*
D14*
X11100000Y-7790000D02*
X11100000Y-7910000D01*
X11040000Y-7850000D02*
X11160000Y-7850000D01*
X11100000Y-8540000D02*
X11100000Y-8660000D01*
X11040000Y-8600000D02*
X11160000Y-8600000D01*
X11100000Y-9840000D02*
X11100000Y-9960000D01*
X11040000Y-9900000D02*
X11160000Y-9900000D01*
X11100000Y-10590000D02*
X11100000Y-10710000D01*
X11040000Y-10650000D02*
X11160000Y-10650000D01*
X13100000Y-7790000D02*
X13100000Y-7910000D01*
X13040000Y-7850000D02*
X13160000Y-7850000D01*
X13100000Y-8540000D02*
X13100000Y-8660000D01*
X13040000Y-8600000D02*
X13160000Y-8600000D01*
X13100000Y-9840000D02*
X13100000Y-9960000D01*
X13040000Y-9900000D02*
X13160000Y-9900000D01*
X13100000Y-10590000D02*
X13100000Y-10710000D01*
X13040000Y-10650000D02*
X13160000Y-10650000D01*
X15100000Y-7790000D02*
X15100000Y-7910000D01*
X15040000Y-7850000D02*
X15160000Y-7850000D01*
X15100000Y-8540000D02*
X15100000Y-8660000D01*
X15040000Y-8600000D02*
X15160000Y-8600000D01*
X15100000Y-9840000D02*
X15100000Y-9960000D01*
X15040000Y-9900000D02*
X15160000Y-9900000D01*
X15100000Y-10590000D02*
X15100000Y-10710000D01*
X15040000Y-10650000D02*
X15160000Y-10650000D01*
D15*
X9245962Y-9245962D02*
X9245962Y-9154038D01*
X9154038Y-9154038D01*
X9154038Y-9245962D01*
X9245962Y-9245962D01*
X9245962Y-9745962D02*
X9245962Y-9654038D01*
X9154038Y-9654038D01*
X9154038Y-9745962D01*
X9245962Y-9745962D01*
X19736462Y-8745962D02*
X19736462Y-8654038D01*
X19644538Y-8654038D01*
X19644538Y-8745962D01*
X19736462Y-8745962D01*
X19736462Y-9245962D02*
X19736462Y-9154038D01*
X19644538Y-9154038D01*
X19644538Y-9245962D01*
X19736462Y-9245962D01*
X19736462Y-9745962D02*
X19736462Y-9654038D01*
X19644538Y-9654038D01*
X19644538Y-9745962D01*
X19736462Y-9745962D01*
D16*
X9300000Y-7760000D02*
X9460000Y-7600000D01*
X9300000Y-7440000D01*
X9140000Y-7600000D01*
X9300000Y-7760000D01*
X9300000Y-11060000D02*
X9460000Y-10900000D01*
X9300000Y-10740000D01*
X9140000Y-10900000D01*
X9300000Y-11060000D01*
X19500000Y-7760000D02*
X19660000Y-7600000D01*
X19500000Y-7440000D01*
X19340000Y-7600000D01*
X19500000Y-7760000D01*
X19500000Y-11060000D02*
X19660000Y-10900000D01*
X19500000Y-10740000D01*
X19340000Y-10900000D01*
X19500000Y-11060000D01*
D11*
X8858277Y-11601984D02*
X8858277Y-11401984D01*
X8858277Y-11401984D02*
X8905896Y-11401984D01*
X8905896Y-11401984D02*
X8934467Y-11411508D01*
X8934467Y-11411508D02*
X8953515Y-11430555D01*
X8953515Y-11430555D02*
X8963039Y-11449603D01*
X8963039Y-11449603D02*
X8972563Y-11487698D01*
X8972563Y-11487698D02*
X8972563Y-11516269D01*
X8972563Y-11516269D02*
X8963039Y-11554365D01*
X8963039Y-11554365D02*
X8953515Y-11573412D01*
X8953515Y-11573412D02*
X8934467Y-11592460D01*
X8934467Y-11592460D02*
X8905896Y-11601984D01*
X8905896Y-11601984D02*
X8858277Y-11601984D01*
X9058277Y-11601984D02*
X9058277Y-11468650D01*
X9058277Y-11506746D02*
X9067801Y-11487698D01*
X9067801Y-11487698D02*
X9077324Y-11478174D01*
X9077324Y-11478174D02*
X9096372Y-11468650D01*
X9096372Y-11468650D02*
X9115420Y-11468650D01*
X9182086Y-11601984D02*
X9182086Y-11468650D01*
X9182086Y-11401984D02*
X9172563Y-11411508D01*
X9172563Y-11411508D02*
X9182086Y-11421031D01*
X9182086Y-11421031D02*
X9191610Y-11411508D01*
X9191610Y-11411508D02*
X9182086Y-11401984D01*
X9182086Y-11401984D02*
X9182086Y-11421031D01*
X9305896Y-11601984D02*
X9286848Y-11592460D01*
X9286848Y-11592460D02*
X9277324Y-11573412D01*
X9277324Y-11573412D02*
X9277324Y-11401984D01*
X9410658Y-11601984D02*
X9391610Y-11592460D01*
X9391610Y-11592460D02*
X9382086Y-11573412D01*
X9382086Y-11573412D02*
X9382086Y-11401984D01*
X9639229Y-11601984D02*
X9639229Y-11401984D01*
X9639229Y-11401984D02*
X9705896Y-11544841D01*
X9705896Y-11544841D02*
X9772563Y-11401984D01*
X9772563Y-11401984D02*
X9772563Y-11601984D01*
X9953515Y-11601984D02*
X9953515Y-11497222D01*
X9953515Y-11497222D02*
X9943991Y-11478174D01*
X9943991Y-11478174D02*
X9924944Y-11468650D01*
X9924944Y-11468650D02*
X9886848Y-11468650D01*
X9886848Y-11468650D02*
X9867801Y-11478174D01*
X9953515Y-11592460D02*
X9934467Y-11601984D01*
X9934467Y-11601984D02*
X9886848Y-11601984D01*
X9886848Y-11601984D02*
X9867801Y-11592460D01*
X9867801Y-11592460D02*
X9858277Y-11573412D01*
X9858277Y-11573412D02*
X9858277Y-11554365D01*
X9858277Y-11554365D02*
X9867801Y-11535317D01*
X9867801Y-11535317D02*
X9886848Y-11525793D01*
X9886848Y-11525793D02*
X9934467Y-11525793D01*
X9934467Y-11525793D02*
X9953515Y-11516269D01*
X10048753Y-11468650D02*
X10048753Y-11668650D01*
X10048753Y-11478174D02*
X10067801Y-11468650D01*
X10067801Y-11468650D02*
X10105896Y-11468650D01*
X10105896Y-11468650D02*
X10124944Y-11478174D01*
X10124944Y-11478174D02*
X10134467Y-11487698D01*
X10134467Y-11487698D02*
X10143991Y-11506746D01*
X10143991Y-11506746D02*
X10143991Y-11563888D01*
X10143991Y-11563888D02*
X10134467Y-11582936D01*
X10134467Y-11582936D02*
X10124944Y-11592460D01*
X10124944Y-11592460D02*
X10105896Y-11601984D01*
X10105896Y-11601984D02*
X10067801Y-11601984D01*
X10067801Y-11601984D02*
X10048753Y-11592460D01*
X10229705Y-11582936D02*
X10239229Y-11592460D01*
X10239229Y-11592460D02*
X10229705Y-11601984D01*
X10229705Y-11601984D02*
X10220182Y-11592460D01*
X10220182Y-11592460D02*
X10229705Y-11582936D01*
X10229705Y-11582936D02*
X10229705Y-11601984D01*
X10229705Y-11478174D02*
X10239229Y-11487698D01*
X10239229Y-11487698D02*
X10229705Y-11497222D01*
X10229705Y-11497222D02*
X10220182Y-11487698D01*
X10220182Y-11487698D02*
X10229705Y-11478174D01*
X10229705Y-11478174D02*
X10229705Y-11497222D01*
D12*
X8517500Y-11890500D02*
X8597500Y-11970500D01*
X8597500Y-11890500D02*
X8517500Y-11970500D01*
D11*
X8896372Y-11821984D02*
X8915420Y-11821984D01*
X8915420Y-11821984D02*
X8934467Y-11831508D01*
X8934467Y-11831508D02*
X8943991Y-11841031D01*
X8943991Y-11841031D02*
X8953515Y-11860079D01*
X8953515Y-11860079D02*
X8963039Y-11898174D01*
X8963039Y-11898174D02*
X8963039Y-11945793D01*
X8963039Y-11945793D02*
X8953515Y-11983888D01*
X8953515Y-11983888D02*
X8943991Y-12002936D01*
X8943991Y-12002936D02*
X8934467Y-12012460D01*
X8934467Y-12012460D02*
X8915420Y-12021984D01*
X8915420Y-12021984D02*
X8896372Y-12021984D01*
X8896372Y-12021984D02*
X8877324Y-12012460D01*
X8877324Y-12012460D02*
X8867801Y-12002936D01*
X8867801Y-12002936D02*
X8858277Y-11983888D01*
X8858277Y-11983888D02*
X8848753Y-11945793D01*
X8848753Y-11945793D02*
X8848753Y-11898174D01*
X8848753Y-11898174D02*
X8858277Y-11860079D01*
X8858277Y-11860079D02*
X8867801Y-11841031D01*
X8867801Y-11841031D02*
X8877324Y-11831508D01*
X8877324Y-11831508D02*
X8896372Y-11821984D01*
X9048753Y-12002936D02*
X9058277Y-12012460D01*
X9058277Y-12012460D02*
X9048753Y-12021984D01*
X9048753Y-12021984D02*
X9039229Y-12012460D01*
X9039229Y-12012460D02*
X9048753Y-12002936D01*
X9048753Y-12002936D02*
X9048753Y-12021984D01*
X9172563Y-11907698D02*
X9153515Y-11898174D01*
X9153515Y-11898174D02*
X9143991Y-11888650D01*
X9143991Y-11888650D02*
X9134467Y-11869603D01*
X9134467Y-11869603D02*
X9134467Y-11860079D01*
X9134467Y-11860079D02*
X9143991Y-11841031D01*
X9143991Y-11841031D02*
X9153515Y-11831508D01*
X9153515Y-11831508D02*
X9172563Y-11821984D01*
X9172563Y-11821984D02*
X9210658Y-11821984D01*
X9210658Y-11821984D02*
X9229705Y-11831508D01*
X9229705Y-11831508D02*
X9239229Y-11841031D01*
X9239229Y-11841031D02*
X9248753Y-11860079D01*
X9248753Y-11860079D02*
X9248753Y-11869603D01*
X9248753Y-11869603D02*
X9239229Y-11888650D01*
X9239229Y-11888650D02*
X9229705Y-11898174D01*
X9229705Y-11898174D02*
X9210658Y-11907698D01*
X9210658Y-11907698D02*
X9172563Y-11907698D01*
X9172563Y-11907698D02*
X9153515Y-11917222D01*
X9153515Y-11917222D02*
X9143991Y-11926746D01*
X9143991Y-11926746D02*
X9134467Y-11945793D01*
X9134467Y-11945793D02*
X9134467Y-11983888D01*
X9134467Y-11983888D02*
X9143991Y-12002936D01*
X9143991Y-12002936D02*
X9153515Y-12012460D01*
X9153515Y-12012460D02*
X9172563Y-12021984D01*
X9172563Y-12021984D02*
X9210658Y-12021984D01*
X9210658Y-12021984D02*
X9229705Y-12012460D01*
X9229705Y-12012460D02*
X9239229Y-12002936D01*
X9239229Y-12002936D02*
X9248753Y-11983888D01*
X9248753Y-11983888D02*
X9248753Y-11945793D01*
X9248753Y-11945793D02*
X9239229Y-11926746D01*
X9239229Y-11926746D02*
X9229705Y-11917222D01*
X9229705Y-11917222D02*
X9210658Y-11907698D01*
X9372563Y-11821984D02*
X9391610Y-11821984D01*
X9391610Y-11821984D02*
X9410658Y-11831508D01*
X9410658Y-11831508D02*
X9420182Y-11841031D01*
X9420182Y-11841031D02*
X9429705Y-11860079D01*
X9429705Y-11860079D02*
X9439229Y-11898174D01*
X9439229Y-11898174D02*
X9439229Y-11945793D01*
X9439229Y-11945793D02*
X9429705Y-11983888D01*
X9429705Y-11983888D02*
X9420182Y-12002936D01*
X9420182Y-12002936D02*
X9410658Y-12012460D01*
X9410658Y-12012460D02*
X9391610Y-12021984D01*
X9391610Y-12021984D02*
X9372563Y-12021984D01*
X9372563Y-12021984D02*
X9353515Y-12012460D01*
X9353515Y-12012460D02*
X9343991Y-12002936D01*
X9343991Y-12002936D02*
X9334467Y-11983888D01*
X9334467Y-11983888D02*
X9324944Y-11945793D01*
X9324944Y-11945793D02*
X9324944Y-11898174D01*
X9324944Y-11898174D02*
X9334467Y-11860079D01*
X9334467Y-11860079D02*
X9343991Y-11841031D01*
X9343991Y-11841031D02*
X9353515Y-11831508D01*
X9353515Y-11831508D02*
X9372563Y-11821984D01*
X9563039Y-11821984D02*
X9582086Y-11821984D01*
X9582086Y-11821984D02*
X9601134Y-11831508D01*
X9601134Y-11831508D02*
X9610658Y-11841031D01*
X9610658Y-11841031D02*
X9620182Y-11860079D01*
X9620182Y-11860079D02*
X9629705Y-11898174D01*
X9629705Y-11898174D02*
X9629705Y-11945793D01*
X9629705Y-11945793D02*
X9620182Y-11983888D01*
X9620182Y-11983888D02*
X9610658Y-12002936D01*
X9610658Y-12002936D02*
X9601134Y-12012460D01*
X9601134Y-12012460D02*
X9582086Y-12021984D01*
X9582086Y-12021984D02*
X9563039Y-12021984D01*
X9563039Y-12021984D02*
X9543991Y-12012460D01*
X9543991Y-12012460D02*
X9534467Y-12002936D01*
X9534467Y-12002936D02*
X9524944Y-11983888D01*
X9524944Y-11983888D02*
X9515420Y-11945793D01*
X9515420Y-11945793D02*
X9515420Y-11898174D01*
X9515420Y-11898174D02*
X9524944Y-11860079D01*
X9524944Y-11860079D02*
X9534467Y-11841031D01*
X9534467Y-11841031D02*
X9543991Y-11831508D01*
X9543991Y-11831508D02*
X9563039Y-11821984D01*
X9715420Y-12021984D02*
X9715420Y-11888650D01*
X9715420Y-11907698D02*
X9724944Y-11898174D01*
X9724944Y-11898174D02*
X9743991Y-11888650D01*
X9743991Y-11888650D02*
X9772563Y-11888650D01*
X9772563Y-11888650D02*
X9791610Y-11898174D01*
X9791610Y-11898174D02*
X9801134Y-11917222D01*
X9801134Y-11917222D02*
X9801134Y-12021984D01*
X9801134Y-11917222D02*
X9810658Y-11898174D01*
X9810658Y-11898174D02*
X9829705Y-11888650D01*
X9829705Y-11888650D02*
X9858277Y-11888650D01*
X9858277Y-11888650D02*
X9877325Y-11898174D01*
X9877325Y-11898174D02*
X9886848Y-11917222D01*
X9886848Y-11917222D02*
X9886848Y-12021984D01*
X9982086Y-12021984D02*
X9982086Y-11888650D01*
X9982086Y-11907698D02*
X9991610Y-11898174D01*
X9991610Y-11898174D02*
X10010658Y-11888650D01*
X10010658Y-11888650D02*
X10039229Y-11888650D01*
X10039229Y-11888650D02*
X10058277Y-11898174D01*
X10058277Y-11898174D02*
X10067801Y-11917222D01*
X10067801Y-11917222D02*
X10067801Y-12021984D01*
X10067801Y-11917222D02*
X10077325Y-11898174D01*
X10077325Y-11898174D02*
X10096372Y-11888650D01*
X10096372Y-11888650D02*
X10124944Y-11888650D01*
X10124944Y-11888650D02*
X10143991Y-11898174D01*
X10143991Y-11898174D02*
X10153515Y-11917222D01*
X10153515Y-11917222D02*
X10153515Y-12021984D01*
X10543991Y-11812460D02*
X10372563Y-12069603D01*
X10801134Y-11821984D02*
X10820182Y-11821984D01*
X10820182Y-11821984D02*
X10839229Y-11831508D01*
X10839229Y-11831508D02*
X10848753Y-11841031D01*
X10848753Y-11841031D02*
X10858277Y-11860079D01*
X10858277Y-11860079D02*
X10867801Y-11898174D01*
X10867801Y-11898174D02*
X10867801Y-11945793D01*
X10867801Y-11945793D02*
X10858277Y-11983888D01*
X10858277Y-11983888D02*
X10848753Y-12002936D01*
X10848753Y-12002936D02*
X10839229Y-12012460D01*
X10839229Y-12012460D02*
X10820182Y-12021984D01*
X10820182Y-12021984D02*
X10801134Y-12021984D01*
X10801134Y-12021984D02*
X10782087Y-12012460D01*
X10782087Y-12012460D02*
X10772563Y-12002936D01*
X10772563Y-12002936D02*
X10763039Y-11983888D01*
X10763039Y-11983888D02*
X10753515Y-11945793D01*
X10753515Y-11945793D02*
X10753515Y-11898174D01*
X10753515Y-11898174D02*
X10763039Y-11860079D01*
X10763039Y-11860079D02*
X10772563Y-11841031D01*
X10772563Y-11841031D02*
X10782087Y-11831508D01*
X10782087Y-11831508D02*
X10801134Y-11821984D01*
X10953515Y-12002936D02*
X10963039Y-12012460D01*
X10963039Y-12012460D02*
X10953515Y-12021984D01*
X10953515Y-12021984D02*
X10943991Y-12012460D01*
X10943991Y-12012460D02*
X10953515Y-12002936D01*
X10953515Y-12002936D02*
X10953515Y-12021984D01*
X11086848Y-11821984D02*
X11105896Y-11821984D01*
X11105896Y-11821984D02*
X11124944Y-11831508D01*
X11124944Y-11831508D02*
X11134468Y-11841031D01*
X11134468Y-11841031D02*
X11143991Y-11860079D01*
X11143991Y-11860079D02*
X11153515Y-11898174D01*
X11153515Y-11898174D02*
X11153515Y-11945793D01*
X11153515Y-11945793D02*
X11143991Y-11983888D01*
X11143991Y-11983888D02*
X11134468Y-12002936D01*
X11134468Y-12002936D02*
X11124944Y-12012460D01*
X11124944Y-12012460D02*
X11105896Y-12021984D01*
X11105896Y-12021984D02*
X11086848Y-12021984D01*
X11086848Y-12021984D02*
X11067801Y-12012460D01*
X11067801Y-12012460D02*
X11058277Y-12002936D01*
X11058277Y-12002936D02*
X11048753Y-11983888D01*
X11048753Y-11983888D02*
X11039229Y-11945793D01*
X11039229Y-11945793D02*
X11039229Y-11898174D01*
X11039229Y-11898174D02*
X11048753Y-11860079D01*
X11048753Y-11860079D02*
X11058277Y-11841031D01*
X11058277Y-11841031D02*
X11067801Y-11831508D01*
X11067801Y-11831508D02*
X11086848Y-11821984D01*
X11220182Y-11821984D02*
X11343991Y-11821984D01*
X11343991Y-11821984D02*
X11277325Y-11898174D01*
X11277325Y-11898174D02*
X11305896Y-11898174D01*
X11305896Y-11898174D02*
X11324944Y-11907698D01*
X11324944Y-11907698D02*
X11334467Y-11917222D01*
X11334467Y-11917222D02*
X11343991Y-11936269D01*
X11343991Y-11936269D02*
X11343991Y-11983888D01*
X11343991Y-11983888D02*
X11334467Y-12002936D01*
X11334467Y-12002936D02*
X11324944Y-12012460D01*
X11324944Y-12012460D02*
X11305896Y-12021984D01*
X11305896Y-12021984D02*
X11248753Y-12021984D01*
X11248753Y-12021984D02*
X11229706Y-12012460D01*
X11229706Y-12012460D02*
X11220182Y-12002936D01*
X11534467Y-12021984D02*
X11420182Y-12021984D01*
X11477325Y-12021984D02*
X11477325Y-11821984D01*
X11477325Y-11821984D02*
X11458277Y-11850555D01*
X11458277Y-11850555D02*
X11439229Y-11869603D01*
X11439229Y-11869603D02*
X11420182Y-11879127D01*
X11715420Y-11821984D02*
X11620182Y-11821984D01*
X11620182Y-11821984D02*
X11610658Y-11917222D01*
X11610658Y-11917222D02*
X11620182Y-11907698D01*
X11620182Y-11907698D02*
X11639229Y-11898174D01*
X11639229Y-11898174D02*
X11686848Y-11898174D01*
X11686848Y-11898174D02*
X11705896Y-11907698D01*
X11705896Y-11907698D02*
X11715420Y-11917222D01*
X11715420Y-11917222D02*
X11724944Y-11936269D01*
X11724944Y-11936269D02*
X11724944Y-11983888D01*
X11724944Y-11983888D02*
X11715420Y-12002936D01*
X11715420Y-12002936D02*
X11705896Y-12012460D01*
X11705896Y-12012460D02*
X11686848Y-12021984D01*
X11686848Y-12021984D02*
X11639229Y-12021984D01*
X11639229Y-12021984D02*
X11620182Y-12012460D01*
X11620182Y-12012460D02*
X11610658Y-12002936D01*
X11801134Y-11821984D02*
X11801134Y-11860079D01*
X11877325Y-11821984D02*
X11877325Y-11860079D01*
X12172563Y-12098174D02*
X12163039Y-12088650D01*
X12163039Y-12088650D02*
X12143991Y-12060079D01*
X12143991Y-12060079D02*
X12134468Y-12041031D01*
X12134468Y-12041031D02*
X12124944Y-12012460D01*
X12124944Y-12012460D02*
X12115420Y-11964841D01*
X12115420Y-11964841D02*
X12115420Y-11926746D01*
X12115420Y-11926746D02*
X12124944Y-11879127D01*
X12124944Y-11879127D02*
X12134468Y-11850555D01*
X12134468Y-11850555D02*
X12143991Y-11831508D01*
X12143991Y-11831508D02*
X12163039Y-11802936D01*
X12163039Y-11802936D02*
X12172563Y-11793412D01*
X12353515Y-12021984D02*
X12239229Y-12021984D01*
X12296372Y-12021984D02*
X12296372Y-11821984D01*
X12296372Y-11821984D02*
X12277325Y-11850555D01*
X12277325Y-11850555D02*
X12258277Y-11869603D01*
X12258277Y-11869603D02*
X12239229Y-11879127D01*
X12429706Y-11841031D02*
X12439229Y-11831508D01*
X12439229Y-11831508D02*
X12458277Y-11821984D01*
X12458277Y-11821984D02*
X12505896Y-11821984D01*
X12505896Y-11821984D02*
X12524944Y-11831508D01*
X12524944Y-11831508D02*
X12534468Y-11841031D01*
X12534468Y-11841031D02*
X12543991Y-11860079D01*
X12543991Y-11860079D02*
X12543991Y-11879127D01*
X12543991Y-11879127D02*
X12534468Y-11907698D01*
X12534468Y-11907698D02*
X12420182Y-12021984D01*
X12420182Y-12021984D02*
X12543991Y-12021984D01*
X12782087Y-12021984D02*
X12782087Y-11821984D01*
X12867801Y-12021984D02*
X12867801Y-11917222D01*
X12867801Y-11917222D02*
X12858277Y-11898174D01*
X12858277Y-11898174D02*
X12839230Y-11888650D01*
X12839230Y-11888650D02*
X12810658Y-11888650D01*
X12810658Y-11888650D02*
X12791610Y-11898174D01*
X12791610Y-11898174D02*
X12782087Y-11907698D01*
X12991610Y-12021984D02*
X12972563Y-12012460D01*
X12972563Y-12012460D02*
X12963039Y-12002936D01*
X12963039Y-12002936D02*
X12953515Y-11983888D01*
X12953515Y-11983888D02*
X12953515Y-11926746D01*
X12953515Y-11926746D02*
X12963039Y-11907698D01*
X12963039Y-11907698D02*
X12972563Y-11898174D01*
X12972563Y-11898174D02*
X12991610Y-11888650D01*
X12991610Y-11888650D02*
X13020182Y-11888650D01*
X13020182Y-11888650D02*
X13039230Y-11898174D01*
X13039230Y-11898174D02*
X13048753Y-11907698D01*
X13048753Y-11907698D02*
X13058277Y-11926746D01*
X13058277Y-11926746D02*
X13058277Y-11983888D01*
X13058277Y-11983888D02*
X13048753Y-12002936D01*
X13048753Y-12002936D02*
X13039230Y-12012460D01*
X13039230Y-12012460D02*
X13020182Y-12021984D01*
X13020182Y-12021984D02*
X12991610Y-12021984D01*
X13172563Y-12021984D02*
X13153515Y-12012460D01*
X13153515Y-12012460D02*
X13143991Y-11993412D01*
X13143991Y-11993412D02*
X13143991Y-11821984D01*
X13324944Y-12012460D02*
X13305896Y-12021984D01*
X13305896Y-12021984D02*
X13267801Y-12021984D01*
X13267801Y-12021984D02*
X13248753Y-12012460D01*
X13248753Y-12012460D02*
X13239230Y-11993412D01*
X13239230Y-11993412D02*
X13239230Y-11917222D01*
X13239230Y-11917222D02*
X13248753Y-11898174D01*
X13248753Y-11898174D02*
X13267801Y-11888650D01*
X13267801Y-11888650D02*
X13305896Y-11888650D01*
X13305896Y-11888650D02*
X13324944Y-11898174D01*
X13324944Y-11898174D02*
X13334468Y-11917222D01*
X13334468Y-11917222D02*
X13334468Y-11936269D01*
X13334468Y-11936269D02*
X13239230Y-11955317D01*
X13410658Y-12012460D02*
X13429706Y-12021984D01*
X13429706Y-12021984D02*
X13467801Y-12021984D01*
X13467801Y-12021984D02*
X13486849Y-12012460D01*
X13486849Y-12012460D02*
X13496372Y-11993412D01*
X13496372Y-11993412D02*
X13496372Y-11983888D01*
X13496372Y-11983888D02*
X13486849Y-11964841D01*
X13486849Y-11964841D02*
X13467801Y-11955317D01*
X13467801Y-11955317D02*
X13439230Y-11955317D01*
X13439230Y-11955317D02*
X13420182Y-11945793D01*
X13420182Y-11945793D02*
X13410658Y-11926746D01*
X13410658Y-11926746D02*
X13410658Y-11917222D01*
X13410658Y-11917222D02*
X13420182Y-11898174D01*
X13420182Y-11898174D02*
X13439230Y-11888650D01*
X13439230Y-11888650D02*
X13467801Y-11888650D01*
X13467801Y-11888650D02*
X13486849Y-11898174D01*
X13563039Y-12098174D02*
X13572563Y-12088650D01*
X13572563Y-12088650D02*
X13591611Y-12060079D01*
X13591611Y-12060079D02*
X13601134Y-12041031D01*
X13601134Y-12041031D02*
X13610658Y-12012460D01*
X13610658Y-12012460D02*
X13620182Y-11964841D01*
X13620182Y-11964841D02*
X13620182Y-11926746D01*
X13620182Y-11926746D02*
X13610658Y-11879127D01*
X13610658Y-11879127D02*
X13601134Y-11850555D01*
X13601134Y-11850555D02*
X13591611Y-11831508D01*
X13591611Y-11831508D02*
X13572563Y-11802936D01*
X13572563Y-11802936D02*
X13563039Y-11793412D01*
D13*
X8597500Y-12194500D02*
G75*
G02*
X8487500Y-12194500I-55000J0D01*
G01*
X8487500Y-12194500D02*
G75*
G02*
X8597500Y-12194500I55000J0D01*
G01*
D11*
X8963039Y-12285984D02*
X8848753Y-12285984D01*
X8905896Y-12285984D02*
X8905896Y-12085984D01*
X8905896Y-12085984D02*
X8886848Y-12114555D01*
X8886848Y-12114555D02*
X8867801Y-12133603D01*
X8867801Y-12133603D02*
X8848753Y-12143127D01*
X9048753Y-12266936D02*
X9058277Y-12276460D01*
X9058277Y-12276460D02*
X9048753Y-12285984D01*
X9048753Y-12285984D02*
X9039229Y-12276460D01*
X9039229Y-12276460D02*
X9048753Y-12266936D01*
X9048753Y-12266936D02*
X9048753Y-12285984D01*
X9248753Y-12285984D02*
X9134467Y-12285984D01*
X9191610Y-12285984D02*
X9191610Y-12085984D01*
X9191610Y-12085984D02*
X9172563Y-12114555D01*
X9172563Y-12114555D02*
X9153515Y-12133603D01*
X9153515Y-12133603D02*
X9134467Y-12143127D01*
X9372563Y-12085984D02*
X9391610Y-12085984D01*
X9391610Y-12085984D02*
X9410658Y-12095508D01*
X9410658Y-12095508D02*
X9420182Y-12105031D01*
X9420182Y-12105031D02*
X9429705Y-12124079D01*
X9429705Y-12124079D02*
X9439229Y-12162174D01*
X9439229Y-12162174D02*
X9439229Y-12209793D01*
X9439229Y-12209793D02*
X9429705Y-12247888D01*
X9429705Y-12247888D02*
X9420182Y-12266936D01*
X9420182Y-12266936D02*
X9410658Y-12276460D01*
X9410658Y-12276460D02*
X9391610Y-12285984D01*
X9391610Y-12285984D02*
X9372563Y-12285984D01*
X9372563Y-12285984D02*
X9353515Y-12276460D01*
X9353515Y-12276460D02*
X9343991Y-12266936D01*
X9343991Y-12266936D02*
X9334467Y-12247888D01*
X9334467Y-12247888D02*
X9324944Y-12209793D01*
X9324944Y-12209793D02*
X9324944Y-12162174D01*
X9324944Y-12162174D02*
X9334467Y-12124079D01*
X9334467Y-12124079D02*
X9343991Y-12105031D01*
X9343991Y-12105031D02*
X9353515Y-12095508D01*
X9353515Y-12095508D02*
X9372563Y-12085984D01*
X9563039Y-12085984D02*
X9582086Y-12085984D01*
X9582086Y-12085984D02*
X9601134Y-12095508D01*
X9601134Y-12095508D02*
X9610658Y-12105031D01*
X9610658Y-12105031D02*
X9620182Y-12124079D01*
X9620182Y-12124079D02*
X9629705Y-12162174D01*
X9629705Y-12162174D02*
X9629705Y-12209793D01*
X9629705Y-12209793D02*
X9620182Y-12247888D01*
X9620182Y-12247888D02*
X9610658Y-12266936D01*
X9610658Y-12266936D02*
X9601134Y-12276460D01*
X9601134Y-12276460D02*
X9582086Y-12285984D01*
X9582086Y-12285984D02*
X9563039Y-12285984D01*
X9563039Y-12285984D02*
X9543991Y-12276460D01*
X9543991Y-12276460D02*
X9534467Y-12266936D01*
X9534467Y-12266936D02*
X9524944Y-12247888D01*
X9524944Y-12247888D02*
X9515420Y-12209793D01*
X9515420Y-12209793D02*
X9515420Y-12162174D01*
X9515420Y-12162174D02*
X9524944Y-12124079D01*
X9524944Y-12124079D02*
X9534467Y-12105031D01*
X9534467Y-12105031D02*
X9543991Y-12095508D01*
X9543991Y-12095508D02*
X9563039Y-12085984D01*
X9715420Y-12285984D02*
X9715420Y-12152650D01*
X9715420Y-12171698D02*
X9724944Y-12162174D01*
X9724944Y-12162174D02*
X9743991Y-12152650D01*
X9743991Y-12152650D02*
X9772563Y-12152650D01*
X9772563Y-12152650D02*
X9791610Y-12162174D01*
X9791610Y-12162174D02*
X9801134Y-12181222D01*
X9801134Y-12181222D02*
X9801134Y-12285984D01*
X9801134Y-12181222D02*
X9810658Y-12162174D01*
X9810658Y-12162174D02*
X9829705Y-12152650D01*
X9829705Y-12152650D02*
X9858277Y-12152650D01*
X9858277Y-12152650D02*
X9877325Y-12162174D01*
X9877325Y-12162174D02*
X9886848Y-12181222D01*
X9886848Y-12181222D02*
X9886848Y-12285984D01*
X9982086Y-12285984D02*
X9982086Y-12152650D01*
X9982086Y-12171698D02*
X9991610Y-12162174D01*
X9991610Y-12162174D02*
X10010658Y-12152650D01*
X10010658Y-12152650D02*
X10039229Y-12152650D01*
X10039229Y-12152650D02*
X10058277Y-12162174D01*
X10058277Y-12162174D02*
X10067801Y-12181222D01*
X10067801Y-12181222D02*
X10067801Y-12285984D01*
X10067801Y-12181222D02*
X10077325Y-12162174D01*
X10077325Y-12162174D02*
X10096372Y-12152650D01*
X10096372Y-12152650D02*
X10124944Y-12152650D01*
X10124944Y-12152650D02*
X10143991Y-12162174D01*
X10143991Y-12162174D02*
X10153515Y-12181222D01*
X10153515Y-12181222D02*
X10153515Y-12285984D01*
X10543991Y-12076460D02*
X10372563Y-12333603D01*
X10801134Y-12085984D02*
X10820182Y-12085984D01*
X10820182Y-12085984D02*
X10839229Y-12095508D01*
X10839229Y-12095508D02*
X10848753Y-12105031D01*
X10848753Y-12105031D02*
X10858277Y-12124079D01*
X10858277Y-12124079D02*
X10867801Y-12162174D01*
X10867801Y-12162174D02*
X10867801Y-12209793D01*
X10867801Y-12209793D02*
X10858277Y-12247888D01*
X10858277Y-12247888D02*
X10848753Y-12266936D01*
X10848753Y-12266936D02*
X10839229Y-12276460D01*
X10839229Y-12276460D02*
X10820182Y-12285984D01*
X10820182Y-12285984D02*
X10801134Y-12285984D01*
X10801134Y-12285984D02*
X10782087Y-12276460D01*
X10782087Y-12276460D02*
X10772563Y-12266936D01*
X10772563Y-12266936D02*
X10763039Y-12247888D01*
X10763039Y-12247888D02*
X10753515Y-12209793D01*
X10753515Y-12209793D02*
X10753515Y-12162174D01*
X10753515Y-12162174D02*
X10763039Y-12124079D01*
X10763039Y-12124079D02*
X10772563Y-12105031D01*
X10772563Y-12105031D02*
X10782087Y-12095508D01*
X10782087Y-12095508D02*
X10801134Y-12085984D01*
X10953515Y-12266936D02*
X10963039Y-12276460D01*
X10963039Y-12276460D02*
X10953515Y-12285984D01*
X10953515Y-12285984D02*
X10943991Y-12276460D01*
X10943991Y-12276460D02*
X10953515Y-12266936D01*
X10953515Y-12266936D02*
X10953515Y-12285984D01*
X11086848Y-12085984D02*
X11105896Y-12085984D01*
X11105896Y-12085984D02*
X11124944Y-12095508D01*
X11124944Y-12095508D02*
X11134468Y-12105031D01*
X11134468Y-12105031D02*
X11143991Y-12124079D01*
X11143991Y-12124079D02*
X11153515Y-12162174D01*
X11153515Y-12162174D02*
X11153515Y-12209793D01*
X11153515Y-12209793D02*
X11143991Y-12247888D01*
X11143991Y-12247888D02*
X11134468Y-12266936D01*
X11134468Y-12266936D02*
X11124944Y-12276460D01*
X11124944Y-12276460D02*
X11105896Y-12285984D01*
X11105896Y-12285984D02*
X11086848Y-12285984D01*
X11086848Y-12285984D02*
X11067801Y-12276460D01*
X11067801Y-12276460D02*
X11058277Y-12266936D01*
X11058277Y-12266936D02*
X11048753Y-12247888D01*
X11048753Y-12247888D02*
X11039229Y-12209793D01*
X11039229Y-12209793D02*
X11039229Y-12162174D01*
X11039229Y-12162174D02*
X11048753Y-12124079D01*
X11048753Y-12124079D02*
X11058277Y-12105031D01*
X11058277Y-12105031D02*
X11067801Y-12095508D01*
X11067801Y-12095508D02*
X11086848Y-12085984D01*
X11324944Y-12152650D02*
X11324944Y-12285984D01*
X11277325Y-12076460D02*
X11229706Y-12219317D01*
X11229706Y-12219317D02*
X11353515Y-12219317D01*
X11410658Y-12085984D02*
X11534467Y-12085984D01*
X11534467Y-12085984D02*
X11467801Y-12162174D01*
X11467801Y-12162174D02*
X11496372Y-12162174D01*
X11496372Y-12162174D02*
X11515420Y-12171698D01*
X11515420Y-12171698D02*
X11524944Y-12181222D01*
X11524944Y-12181222D02*
X11534467Y-12200269D01*
X11534467Y-12200269D02*
X11534467Y-12247888D01*
X11534467Y-12247888D02*
X11524944Y-12266936D01*
X11524944Y-12266936D02*
X11515420Y-12276460D01*
X11515420Y-12276460D02*
X11496372Y-12285984D01*
X11496372Y-12285984D02*
X11439229Y-12285984D01*
X11439229Y-12285984D02*
X11420182Y-12276460D01*
X11420182Y-12276460D02*
X11410658Y-12266936D01*
X11601134Y-12085984D02*
X11724944Y-12085984D01*
X11724944Y-12085984D02*
X11658277Y-12162174D01*
X11658277Y-12162174D02*
X11686848Y-12162174D01*
X11686848Y-12162174D02*
X11705896Y-12171698D01*
X11705896Y-12171698D02*
X11715420Y-12181222D01*
X11715420Y-12181222D02*
X11724944Y-12200269D01*
X11724944Y-12200269D02*
X11724944Y-12247888D01*
X11724944Y-12247888D02*
X11715420Y-12266936D01*
X11715420Y-12266936D02*
X11705896Y-12276460D01*
X11705896Y-12276460D02*
X11686848Y-12285984D01*
X11686848Y-12285984D02*
X11629706Y-12285984D01*
X11629706Y-12285984D02*
X11610658Y-12276460D01*
X11610658Y-12276460D02*
X11601134Y-12266936D01*
X11801134Y-12085984D02*
X11801134Y-12124079D01*
X11877325Y-12085984D02*
X11877325Y-12124079D01*
X12172563Y-12362174D02*
X12163039Y-12352650D01*
X12163039Y-12352650D02*
X12143991Y-12324079D01*
X12143991Y-12324079D02*
X12134468Y-12305031D01*
X12134468Y-12305031D02*
X12124944Y-12276460D01*
X12124944Y-12276460D02*
X12115420Y-12228841D01*
X12115420Y-12228841D02*
X12115420Y-12190746D01*
X12115420Y-12190746D02*
X12124944Y-12143127D01*
X12124944Y-12143127D02*
X12134468Y-12114555D01*
X12134468Y-12114555D02*
X12143991Y-12095508D01*
X12143991Y-12095508D02*
X12163039Y-12066936D01*
X12163039Y-12066936D02*
X12172563Y-12057412D01*
X12353515Y-12285984D02*
X12239229Y-12285984D01*
X12296372Y-12285984D02*
X12296372Y-12085984D01*
X12296372Y-12085984D02*
X12277325Y-12114555D01*
X12277325Y-12114555D02*
X12258277Y-12133603D01*
X12258277Y-12133603D02*
X12239229Y-12143127D01*
X12467801Y-12171698D02*
X12448753Y-12162174D01*
X12448753Y-12162174D02*
X12439229Y-12152650D01*
X12439229Y-12152650D02*
X12429706Y-12133603D01*
X12429706Y-12133603D02*
X12429706Y-12124079D01*
X12429706Y-12124079D02*
X12439229Y-12105031D01*
X12439229Y-12105031D02*
X12448753Y-12095508D01*
X12448753Y-12095508D02*
X12467801Y-12085984D01*
X12467801Y-12085984D02*
X12505896Y-12085984D01*
X12505896Y-12085984D02*
X12524944Y-12095508D01*
X12524944Y-12095508D02*
X12534468Y-12105031D01*
X12534468Y-12105031D02*
X12543991Y-12124079D01*
X12543991Y-12124079D02*
X12543991Y-12133603D01*
X12543991Y-12133603D02*
X12534468Y-12152650D01*
X12534468Y-12152650D02*
X12524944Y-12162174D01*
X12524944Y-12162174D02*
X12505896Y-12171698D01*
X12505896Y-12171698D02*
X12467801Y-12171698D01*
X12467801Y-12171698D02*
X12448753Y-12181222D01*
X12448753Y-12181222D02*
X12439229Y-12190746D01*
X12439229Y-12190746D02*
X12429706Y-12209793D01*
X12429706Y-12209793D02*
X12429706Y-12247888D01*
X12429706Y-12247888D02*
X12439229Y-12266936D01*
X12439229Y-12266936D02*
X12448753Y-12276460D01*
X12448753Y-12276460D02*
X12467801Y-12285984D01*
X12467801Y-12285984D02*
X12505896Y-12285984D01*
X12505896Y-12285984D02*
X12524944Y-12276460D01*
X12524944Y-12276460D02*
X12534468Y-12266936D01*
X12534468Y-12266936D02*
X12543991Y-12247888D01*
X12543991Y-12247888D02*
X12543991Y-12209793D01*
X12543991Y-12209793D02*
X12534468Y-12190746D01*
X12534468Y-12190746D02*
X12524944Y-12181222D01*
X12524944Y-12181222D02*
X12505896Y-12171698D01*
X12782087Y-12285984D02*
X12782087Y-12085984D01*
X12867801Y-12285984D02*
X12867801Y-12181222D01*
X12867801Y-12181222D02*
X12858277Y-12162174D01*
X12858277Y-12162174D02*
X12839230Y-12152650D01*
X12839230Y-12152650D02*
X12810658Y-12152650D01*
X12810658Y-12152650D02*
X12791610Y-12162174D01*
X12791610Y-12162174D02*
X12782087Y-12171698D01*
X12991610Y-12285984D02*
X12972563Y-12276460D01*
X12972563Y-12276460D02*
X12963039Y-12266936D01*
X12963039Y-12266936D02*
X12953515Y-12247888D01*
X12953515Y-12247888D02*
X12953515Y-12190746D01*
X12953515Y-12190746D02*
X12963039Y-12171698D01*
X12963039Y-12171698D02*
X12972563Y-12162174D01*
X12972563Y-12162174D02*
X12991610Y-12152650D01*
X12991610Y-12152650D02*
X13020182Y-12152650D01*
X13020182Y-12152650D02*
X13039230Y-12162174D01*
X13039230Y-12162174D02*
X13048753Y-12171698D01*
X13048753Y-12171698D02*
X13058277Y-12190746D01*
X13058277Y-12190746D02*
X13058277Y-12247888D01*
X13058277Y-12247888D02*
X13048753Y-12266936D01*
X13048753Y-12266936D02*
X13039230Y-12276460D01*
X13039230Y-12276460D02*
X13020182Y-12285984D01*
X13020182Y-12285984D02*
X12991610Y-12285984D01*
X13172563Y-12285984D02*
X13153515Y-12276460D01*
X13153515Y-12276460D02*
X13143991Y-12257412D01*
X13143991Y-12257412D02*
X13143991Y-12085984D01*
X13324944Y-12276460D02*
X13305896Y-12285984D01*
X13305896Y-12285984D02*
X13267801Y-12285984D01*
X13267801Y-12285984D02*
X13248753Y-12276460D01*
X13248753Y-12276460D02*
X13239230Y-12257412D01*
X13239230Y-12257412D02*
X13239230Y-12181222D01*
X13239230Y-12181222D02*
X13248753Y-12162174D01*
X13248753Y-12162174D02*
X13267801Y-12152650D01*
X13267801Y-12152650D02*
X13305896Y-12152650D01*
X13305896Y-12152650D02*
X13324944Y-12162174D01*
X13324944Y-12162174D02*
X13334468Y-12181222D01*
X13334468Y-12181222D02*
X13334468Y-12200269D01*
X13334468Y-12200269D02*
X13239230Y-12219317D01*
X13410658Y-12276460D02*
X13429706Y-12285984D01*
X13429706Y-12285984D02*
X13467801Y-12285984D01*
X13467801Y-12285984D02*
X13486849Y-12276460D01*
X13486849Y-12276460D02*
X13496372Y-12257412D01*
X13496372Y-12257412D02*
X13496372Y-12247888D01*
X13496372Y-12247888D02*
X13486849Y-12228841D01*
X13486849Y-12228841D02*
X13467801Y-12219317D01*
X13467801Y-12219317D02*
X13439230Y-12219317D01*
X13439230Y-12219317D02*
X13420182Y-12209793D01*
X13420182Y-12209793D02*
X13410658Y-12190746D01*
X13410658Y-12190746D02*
X13410658Y-12181222D01*
X13410658Y-12181222D02*
X13420182Y-12162174D01*
X13420182Y-12162174D02*
X13439230Y-12152650D01*
X13439230Y-12152650D02*
X13467801Y-12152650D01*
X13467801Y-12152650D02*
X13486849Y-12162174D01*
X13563039Y-12362174D02*
X13572563Y-12352650D01*
X13572563Y-12352650D02*
X13591611Y-12324079D01*
X13591611Y-12324079D02*
X13601134Y-12305031D01*
X13601134Y-12305031D02*
X13610658Y-12276460D01*
X13610658Y-12276460D02*
X13620182Y-12228841D01*
X13620182Y-12228841D02*
X13620182Y-12190746D01*
X13620182Y-12190746D02*
X13610658Y-12143127D01*
X13610658Y-12143127D02*
X13601134Y-12114555D01*
X13601134Y-12114555D02*
X13591611Y-12095508D01*
X13591611Y-12095508D02*
X13572563Y-12066936D01*
X13572563Y-12066936D02*
X13563039Y-12057412D01*
D14*
X8537500Y-12398500D02*
X8537500Y-12518500D01*
X8477500Y-12458500D02*
X8597500Y-12458500D01*
D11*
X8963039Y-12549984D02*
X8848753Y-12549984D01*
X8905896Y-12549984D02*
X8905896Y-12349984D01*
X8905896Y-12349984D02*
X8886848Y-12378555D01*
X8886848Y-12378555D02*
X8867801Y-12397603D01*
X8867801Y-12397603D02*
X8848753Y-12407127D01*
X9048753Y-12530936D02*
X9058277Y-12540460D01*
X9058277Y-12540460D02*
X9048753Y-12549984D01*
X9048753Y-12549984D02*
X9039229Y-12540460D01*
X9039229Y-12540460D02*
X9048753Y-12530936D01*
X9048753Y-12530936D02*
X9048753Y-12549984D01*
X9134467Y-12369031D02*
X9143991Y-12359508D01*
X9143991Y-12359508D02*
X9163039Y-12349984D01*
X9163039Y-12349984D02*
X9210658Y-12349984D01*
X9210658Y-12349984D02*
X9229705Y-12359508D01*
X9229705Y-12359508D02*
X9239229Y-12369031D01*
X9239229Y-12369031D02*
X9248753Y-12388079D01*
X9248753Y-12388079D02*
X9248753Y-12407127D01*
X9248753Y-12407127D02*
X9239229Y-12435698D01*
X9239229Y-12435698D02*
X9124944Y-12549984D01*
X9124944Y-12549984D02*
X9248753Y-12549984D01*
X9372563Y-12349984D02*
X9391610Y-12349984D01*
X9391610Y-12349984D02*
X9410658Y-12359508D01*
X9410658Y-12359508D02*
X9420182Y-12369031D01*
X9420182Y-12369031D02*
X9429705Y-12388079D01*
X9429705Y-12388079D02*
X9439229Y-12426174D01*
X9439229Y-12426174D02*
X9439229Y-12473793D01*
X9439229Y-12473793D02*
X9429705Y-12511888D01*
X9429705Y-12511888D02*
X9420182Y-12530936D01*
X9420182Y-12530936D02*
X9410658Y-12540460D01*
X9410658Y-12540460D02*
X9391610Y-12549984D01*
X9391610Y-12549984D02*
X9372563Y-12549984D01*
X9372563Y-12549984D02*
X9353515Y-12540460D01*
X9353515Y-12540460D02*
X9343991Y-12530936D01*
X9343991Y-12530936D02*
X9334467Y-12511888D01*
X9334467Y-12511888D02*
X9324944Y-12473793D01*
X9324944Y-12473793D02*
X9324944Y-12426174D01*
X9324944Y-12426174D02*
X9334467Y-12388079D01*
X9334467Y-12388079D02*
X9343991Y-12369031D01*
X9343991Y-12369031D02*
X9353515Y-12359508D01*
X9353515Y-12359508D02*
X9372563Y-12349984D01*
X9563039Y-12349984D02*
X9582086Y-12349984D01*
X9582086Y-12349984D02*
X9601134Y-12359508D01*
X9601134Y-12359508D02*
X9610658Y-12369031D01*
X9610658Y-12369031D02*
X9620182Y-12388079D01*
X9620182Y-12388079D02*
X9629705Y-12426174D01*
X9629705Y-12426174D02*
X9629705Y-12473793D01*
X9629705Y-12473793D02*
X9620182Y-12511888D01*
X9620182Y-12511888D02*
X9610658Y-12530936D01*
X9610658Y-12530936D02*
X9601134Y-12540460D01*
X9601134Y-12540460D02*
X9582086Y-12549984D01*
X9582086Y-12549984D02*
X9563039Y-12549984D01*
X9563039Y-12549984D02*
X9543991Y-12540460D01*
X9543991Y-12540460D02*
X9534467Y-12530936D01*
X9534467Y-12530936D02*
X9524944Y-12511888D01*
X9524944Y-12511888D02*
X9515420Y-12473793D01*
X9515420Y-12473793D02*
X9515420Y-12426174D01*
X9515420Y-12426174D02*
X9524944Y-12388079D01*
X9524944Y-12388079D02*
X9534467Y-12369031D01*
X9534467Y-12369031D02*
X9543991Y-12359508D01*
X9543991Y-12359508D02*
X9563039Y-12349984D01*
X9715420Y-12549984D02*
X9715420Y-12416650D01*
X9715420Y-12435698D02*
X9724944Y-12426174D01*
X9724944Y-12426174D02*
X9743991Y-12416650D01*
X9743991Y-12416650D02*
X9772563Y-12416650D01*
X9772563Y-12416650D02*
X9791610Y-12426174D01*
X9791610Y-12426174D02*
X9801134Y-12445222D01*
X9801134Y-12445222D02*
X9801134Y-12549984D01*
X9801134Y-12445222D02*
X9810658Y-12426174D01*
X9810658Y-12426174D02*
X9829705Y-12416650D01*
X9829705Y-12416650D02*
X9858277Y-12416650D01*
X9858277Y-12416650D02*
X9877325Y-12426174D01*
X9877325Y-12426174D02*
X9886848Y-12445222D01*
X9886848Y-12445222D02*
X9886848Y-12549984D01*
X9982086Y-12549984D02*
X9982086Y-12416650D01*
X9982086Y-12435698D02*
X9991610Y-12426174D01*
X9991610Y-12426174D02*
X10010658Y-12416650D01*
X10010658Y-12416650D02*
X10039229Y-12416650D01*
X10039229Y-12416650D02*
X10058277Y-12426174D01*
X10058277Y-12426174D02*
X10067801Y-12445222D01*
X10067801Y-12445222D02*
X10067801Y-12549984D01*
X10067801Y-12445222D02*
X10077325Y-12426174D01*
X10077325Y-12426174D02*
X10096372Y-12416650D01*
X10096372Y-12416650D02*
X10124944Y-12416650D01*
X10124944Y-12416650D02*
X10143991Y-12426174D01*
X10143991Y-12426174D02*
X10153515Y-12445222D01*
X10153515Y-12445222D02*
X10153515Y-12549984D01*
X10543991Y-12340460D02*
X10372563Y-12597603D01*
X10801134Y-12349984D02*
X10820182Y-12349984D01*
X10820182Y-12349984D02*
X10839229Y-12359508D01*
X10839229Y-12359508D02*
X10848753Y-12369031D01*
X10848753Y-12369031D02*
X10858277Y-12388079D01*
X10858277Y-12388079D02*
X10867801Y-12426174D01*
X10867801Y-12426174D02*
X10867801Y-12473793D01*
X10867801Y-12473793D02*
X10858277Y-12511888D01*
X10858277Y-12511888D02*
X10848753Y-12530936D01*
X10848753Y-12530936D02*
X10839229Y-12540460D01*
X10839229Y-12540460D02*
X10820182Y-12549984D01*
X10820182Y-12549984D02*
X10801134Y-12549984D01*
X10801134Y-12549984D02*
X10782087Y-12540460D01*
X10782087Y-12540460D02*
X10772563Y-12530936D01*
X10772563Y-12530936D02*
X10763039Y-12511888D01*
X10763039Y-12511888D02*
X10753515Y-12473793D01*
X10753515Y-12473793D02*
X10753515Y-12426174D01*
X10753515Y-12426174D02*
X10763039Y-12388079D01*
X10763039Y-12388079D02*
X10772563Y-12369031D01*
X10772563Y-12369031D02*
X10782087Y-12359508D01*
X10782087Y-12359508D02*
X10801134Y-12349984D01*
X10953515Y-12530936D02*
X10963039Y-12540460D01*
X10963039Y-12540460D02*
X10953515Y-12549984D01*
X10953515Y-12549984D02*
X10943991Y-12540460D01*
X10943991Y-12540460D02*
X10953515Y-12530936D01*
X10953515Y-12530936D02*
X10953515Y-12549984D01*
X11086848Y-12349984D02*
X11105896Y-12349984D01*
X11105896Y-12349984D02*
X11124944Y-12359508D01*
X11124944Y-12359508D02*
X11134468Y-12369031D01*
X11134468Y-12369031D02*
X11143991Y-12388079D01*
X11143991Y-12388079D02*
X11153515Y-12426174D01*
X11153515Y-12426174D02*
X11153515Y-12473793D01*
X11153515Y-12473793D02*
X11143991Y-12511888D01*
X11143991Y-12511888D02*
X11134468Y-12530936D01*
X11134468Y-12530936D02*
X11124944Y-12540460D01*
X11124944Y-12540460D02*
X11105896Y-12549984D01*
X11105896Y-12549984D02*
X11086848Y-12549984D01*
X11086848Y-12549984D02*
X11067801Y-12540460D01*
X11067801Y-12540460D02*
X11058277Y-12530936D01*
X11058277Y-12530936D02*
X11048753Y-12511888D01*
X11048753Y-12511888D02*
X11039229Y-12473793D01*
X11039229Y-12473793D02*
X11039229Y-12426174D01*
X11039229Y-12426174D02*
X11048753Y-12388079D01*
X11048753Y-12388079D02*
X11058277Y-12369031D01*
X11058277Y-12369031D02*
X11067801Y-12359508D01*
X11067801Y-12359508D02*
X11086848Y-12349984D01*
X11324944Y-12416650D02*
X11324944Y-12549984D01*
X11277325Y-12340460D02*
X11229706Y-12483317D01*
X11229706Y-12483317D02*
X11353515Y-12483317D01*
X11410658Y-12349984D02*
X11543991Y-12349984D01*
X11543991Y-12349984D02*
X11458277Y-12549984D01*
X11610658Y-12369031D02*
X11620182Y-12359508D01*
X11620182Y-12359508D02*
X11639229Y-12349984D01*
X11639229Y-12349984D02*
X11686848Y-12349984D01*
X11686848Y-12349984D02*
X11705896Y-12359508D01*
X11705896Y-12359508D02*
X11715420Y-12369031D01*
X11715420Y-12369031D02*
X11724944Y-12388079D01*
X11724944Y-12388079D02*
X11724944Y-12407127D01*
X11724944Y-12407127D02*
X11715420Y-12435698D01*
X11715420Y-12435698D02*
X11601134Y-12549984D01*
X11601134Y-12549984D02*
X11724944Y-12549984D01*
X11801134Y-12349984D02*
X11801134Y-12388079D01*
X11877325Y-12349984D02*
X11877325Y-12388079D01*
X12172563Y-12626174D02*
X12163039Y-12616650D01*
X12163039Y-12616650D02*
X12143991Y-12588079D01*
X12143991Y-12588079D02*
X12134468Y-12569031D01*
X12134468Y-12569031D02*
X12124944Y-12540460D01*
X12124944Y-12540460D02*
X12115420Y-12492841D01*
X12115420Y-12492841D02*
X12115420Y-12454746D01*
X12115420Y-12454746D02*
X12124944Y-12407127D01*
X12124944Y-12407127D02*
X12134468Y-12378555D01*
X12134468Y-12378555D02*
X12143991Y-12359508D01*
X12143991Y-12359508D02*
X12163039Y-12330936D01*
X12163039Y-12330936D02*
X12172563Y-12321412D01*
X12353515Y-12549984D02*
X12239229Y-12549984D01*
X12296372Y-12549984D02*
X12296372Y-12349984D01*
X12296372Y-12349984D02*
X12277325Y-12378555D01*
X12277325Y-12378555D02*
X12258277Y-12397603D01*
X12258277Y-12397603D02*
X12239229Y-12407127D01*
X12429706Y-12369031D02*
X12439229Y-12359508D01*
X12439229Y-12359508D02*
X12458277Y-12349984D01*
X12458277Y-12349984D02*
X12505896Y-12349984D01*
X12505896Y-12349984D02*
X12524944Y-12359508D01*
X12524944Y-12359508D02*
X12534468Y-12369031D01*
X12534468Y-12369031D02*
X12543991Y-12388079D01*
X12543991Y-12388079D02*
X12543991Y-12407127D01*
X12543991Y-12407127D02*
X12534468Y-12435698D01*
X12534468Y-12435698D02*
X12420182Y-12549984D01*
X12420182Y-12549984D02*
X12543991Y-12549984D01*
X12782087Y-12549984D02*
X12782087Y-12349984D01*
X12867801Y-12549984D02*
X12867801Y-12445222D01*
X12867801Y-12445222D02*
X12858277Y-12426174D01*
X12858277Y-12426174D02*
X12839230Y-12416650D01*
X12839230Y-12416650D02*
X12810658Y-12416650D01*
X12810658Y-12416650D02*
X12791610Y-12426174D01*
X12791610Y-12426174D02*
X12782087Y-12435698D01*
X12991610Y-12549984D02*
X12972563Y-12540460D01*
X12972563Y-12540460D02*
X12963039Y-12530936D01*
X12963039Y-12530936D02*
X12953515Y-12511888D01*
X12953515Y-12511888D02*
X12953515Y-12454746D01*
X12953515Y-12454746D02*
X12963039Y-12435698D01*
X12963039Y-12435698D02*
X12972563Y-12426174D01*
X12972563Y-12426174D02*
X12991610Y-12416650D01*
X12991610Y-12416650D02*
X13020182Y-12416650D01*
X13020182Y-12416650D02*
X13039230Y-12426174D01*
X13039230Y-12426174D02*
X13048753Y-12435698D01*
X13048753Y-12435698D02*
X13058277Y-12454746D01*
X13058277Y-12454746D02*
X13058277Y-12511888D01*
X13058277Y-12511888D02*
X13048753Y-12530936D01*
X13048753Y-12530936D02*
X13039230Y-12540460D01*
X13039230Y-12540460D02*
X13020182Y-12549984D01*
X13020182Y-12549984D02*
X12991610Y-12549984D01*
X13172563Y-12549984D02*
X13153515Y-12540460D01*
X13153515Y-12540460D02*
X13143991Y-12521412D01*
X13143991Y-12521412D02*
X13143991Y-12349984D01*
X13324944Y-12540460D02*
X13305896Y-12549984D01*
X13305896Y-12549984D02*
X13267801Y-12549984D01*
X13267801Y-12549984D02*
X13248753Y-12540460D01*
X13248753Y-12540460D02*
X13239230Y-12521412D01*
X13239230Y-12521412D02*
X13239230Y-12445222D01*
X13239230Y-12445222D02*
X13248753Y-12426174D01*
X13248753Y-12426174D02*
X13267801Y-12416650D01*
X13267801Y-12416650D02*
X13305896Y-12416650D01*
X13305896Y-12416650D02*
X13324944Y-12426174D01*
X13324944Y-12426174D02*
X13334468Y-12445222D01*
X13334468Y-12445222D02*
X13334468Y-12464269D01*
X13334468Y-12464269D02*
X13239230Y-12483317D01*
X13410658Y-12540460D02*
X13429706Y-12549984D01*
X13429706Y-12549984D02*
X13467801Y-12549984D01*
X13467801Y-12549984D02*
X13486849Y-12540460D01*
X13486849Y-12540460D02*
X13496372Y-12521412D01*
X13496372Y-12521412D02*
X13496372Y-12511888D01*
X13496372Y-12511888D02*
X13486849Y-12492841D01*
X13486849Y-12492841D02*
X13467801Y-12483317D01*
X13467801Y-12483317D02*
X13439230Y-12483317D01*
X13439230Y-12483317D02*
X13420182Y-12473793D01*
X13420182Y-12473793D02*
X13410658Y-12454746D01*
X13410658Y-12454746D02*
X13410658Y-12445222D01*
X13410658Y-12445222D02*
X13420182Y-12426174D01*
X13420182Y-12426174D02*
X13439230Y-12416650D01*
X13439230Y-12416650D02*
X13467801Y-12416650D01*
X13467801Y-12416650D02*
X13486849Y-12426174D01*
X13563039Y-12626174D02*
X13572563Y-12616650D01*
X13572563Y-12616650D02*
X13591611Y-12588079D01*
X13591611Y-12588079D02*
X13601134Y-12569031D01*
X13601134Y-12569031D02*
X13610658Y-12540460D01*
X13610658Y-12540460D02*
X13620182Y-12492841D01*
X13620182Y-12492841D02*
X13620182Y-12454746D01*
X13620182Y-12454746D02*
X13610658Y-12407127D01*
X13610658Y-12407127D02*
X13601134Y-12378555D01*
X13601134Y-12378555D02*
X13591611Y-12359508D01*
X13591611Y-12359508D02*
X13572563Y-12330936D01*
X13572563Y-12330936D02*
X13563039Y-12321412D01*
D15*
X8578462Y-12768462D02*
X8578462Y-12676538D01*
X8486538Y-12676538D01*
X8486538Y-12768462D01*
X8578462Y-12768462D01*
D11*
X8963039Y-12813984D02*
X8848753Y-12813984D01*
X8905896Y-12813984D02*
X8905896Y-12613984D01*
X8905896Y-12613984D02*
X8886848Y-12642555D01*
X8886848Y-12642555D02*
X8867801Y-12661603D01*
X8867801Y-12661603D02*
X8848753Y-12671127D01*
X9048753Y-12794936D02*
X9058277Y-12804460D01*
X9058277Y-12804460D02*
X9048753Y-12813984D01*
X9048753Y-12813984D02*
X9039229Y-12804460D01*
X9039229Y-12804460D02*
X9048753Y-12794936D01*
X9048753Y-12794936D02*
X9048753Y-12813984D01*
X9124944Y-12613984D02*
X9248753Y-12613984D01*
X9248753Y-12613984D02*
X9182086Y-12690174D01*
X9182086Y-12690174D02*
X9210658Y-12690174D01*
X9210658Y-12690174D02*
X9229705Y-12699698D01*
X9229705Y-12699698D02*
X9239229Y-12709222D01*
X9239229Y-12709222D02*
X9248753Y-12728269D01*
X9248753Y-12728269D02*
X9248753Y-12775888D01*
X9248753Y-12775888D02*
X9239229Y-12794936D01*
X9239229Y-12794936D02*
X9229705Y-12804460D01*
X9229705Y-12804460D02*
X9210658Y-12813984D01*
X9210658Y-12813984D02*
X9153515Y-12813984D01*
X9153515Y-12813984D02*
X9134467Y-12804460D01*
X9134467Y-12804460D02*
X9124944Y-12794936D01*
X9372563Y-12613984D02*
X9391610Y-12613984D01*
X9391610Y-12613984D02*
X9410658Y-12623508D01*
X9410658Y-12623508D02*
X9420182Y-12633031D01*
X9420182Y-12633031D02*
X9429705Y-12652079D01*
X9429705Y-12652079D02*
X9439229Y-12690174D01*
X9439229Y-12690174D02*
X9439229Y-12737793D01*
X9439229Y-12737793D02*
X9429705Y-12775888D01*
X9429705Y-12775888D02*
X9420182Y-12794936D01*
X9420182Y-12794936D02*
X9410658Y-12804460D01*
X9410658Y-12804460D02*
X9391610Y-12813984D01*
X9391610Y-12813984D02*
X9372563Y-12813984D01*
X9372563Y-12813984D02*
X9353515Y-12804460D01*
X9353515Y-12804460D02*
X9343991Y-12794936D01*
X9343991Y-12794936D02*
X9334467Y-12775888D01*
X9334467Y-12775888D02*
X9324944Y-12737793D01*
X9324944Y-12737793D02*
X9324944Y-12690174D01*
X9324944Y-12690174D02*
X9334467Y-12652079D01*
X9334467Y-12652079D02*
X9343991Y-12633031D01*
X9343991Y-12633031D02*
X9353515Y-12623508D01*
X9353515Y-12623508D02*
X9372563Y-12613984D01*
X9563039Y-12613984D02*
X9582086Y-12613984D01*
X9582086Y-12613984D02*
X9601134Y-12623508D01*
X9601134Y-12623508D02*
X9610658Y-12633031D01*
X9610658Y-12633031D02*
X9620182Y-12652079D01*
X9620182Y-12652079D02*
X9629705Y-12690174D01*
X9629705Y-12690174D02*
X9629705Y-12737793D01*
X9629705Y-12737793D02*
X9620182Y-12775888D01*
X9620182Y-12775888D02*
X9610658Y-12794936D01*
X9610658Y-12794936D02*
X9601134Y-12804460D01*
X9601134Y-12804460D02*
X9582086Y-12813984D01*
X9582086Y-12813984D02*
X9563039Y-12813984D01*
X9563039Y-12813984D02*
X9543991Y-12804460D01*
X9543991Y-12804460D02*
X9534467Y-12794936D01*
X9534467Y-12794936D02*
X9524944Y-12775888D01*
X9524944Y-12775888D02*
X9515420Y-12737793D01*
X9515420Y-12737793D02*
X9515420Y-12690174D01*
X9515420Y-12690174D02*
X9524944Y-12652079D01*
X9524944Y-12652079D02*
X9534467Y-12633031D01*
X9534467Y-12633031D02*
X9543991Y-12623508D01*
X9543991Y-12623508D02*
X9563039Y-12613984D01*
X9715420Y-12813984D02*
X9715420Y-12680650D01*
X9715420Y-12699698D02*
X9724944Y-12690174D01*
X9724944Y-12690174D02*
X9743991Y-12680650D01*
X9743991Y-12680650D02*
X9772563Y-12680650D01*
X9772563Y-12680650D02*
X9791610Y-12690174D01*
X9791610Y-12690174D02*
X9801134Y-12709222D01*
X9801134Y-12709222D02*
X9801134Y-12813984D01*
X9801134Y-12709222D02*
X9810658Y-12690174D01*
X9810658Y-12690174D02*
X9829705Y-12680650D01*
X9829705Y-12680650D02*
X9858277Y-12680650D01*
X9858277Y-12680650D02*
X9877325Y-12690174D01*
X9877325Y-12690174D02*
X9886848Y-12709222D01*
X9886848Y-12709222D02*
X9886848Y-12813984D01*
X9982086Y-12813984D02*
X9982086Y-12680650D01*
X9982086Y-12699698D02*
X9991610Y-12690174D01*
X9991610Y-12690174D02*
X10010658Y-12680650D01*
X10010658Y-12680650D02*
X10039229Y-12680650D01*
X10039229Y-12680650D02*
X10058277Y-12690174D01*
X10058277Y-12690174D02*
X10067801Y-12709222D01*
X10067801Y-12709222D02*
X10067801Y-12813984D01*
X10067801Y-12709222D02*
X10077325Y-12690174D01*
X10077325Y-12690174D02*
X10096372Y-12680650D01*
X10096372Y-12680650D02*
X10124944Y-12680650D01*
X10124944Y-12680650D02*
X10143991Y-12690174D01*
X10143991Y-12690174D02*
X10153515Y-12709222D01*
X10153515Y-12709222D02*
X10153515Y-12813984D01*
X10543991Y-12604460D02*
X10372563Y-12861603D01*
X10801134Y-12613984D02*
X10820182Y-12613984D01*
X10820182Y-12613984D02*
X10839229Y-12623508D01*
X10839229Y-12623508D02*
X10848753Y-12633031D01*
X10848753Y-12633031D02*
X10858277Y-12652079D01*
X10858277Y-12652079D02*
X10867801Y-12690174D01*
X10867801Y-12690174D02*
X10867801Y-12737793D01*
X10867801Y-12737793D02*
X10858277Y-12775888D01*
X10858277Y-12775888D02*
X10848753Y-12794936D01*
X10848753Y-12794936D02*
X10839229Y-12804460D01*
X10839229Y-12804460D02*
X10820182Y-12813984D01*
X10820182Y-12813984D02*
X10801134Y-12813984D01*
X10801134Y-12813984D02*
X10782087Y-12804460D01*
X10782087Y-12804460D02*
X10772563Y-12794936D01*
X10772563Y-12794936D02*
X10763039Y-12775888D01*
X10763039Y-12775888D02*
X10753515Y-12737793D01*
X10753515Y-12737793D02*
X10753515Y-12690174D01*
X10753515Y-12690174D02*
X10763039Y-12652079D01*
X10763039Y-12652079D02*
X10772563Y-12633031D01*
X10772563Y-12633031D02*
X10782087Y-12623508D01*
X10782087Y-12623508D02*
X10801134Y-12613984D01*
X10953515Y-12794936D02*
X10963039Y-12804460D01*
X10963039Y-12804460D02*
X10953515Y-12813984D01*
X10953515Y-12813984D02*
X10943991Y-12804460D01*
X10943991Y-12804460D02*
X10953515Y-12794936D01*
X10953515Y-12794936D02*
X10953515Y-12813984D01*
X11086848Y-12613984D02*
X11105896Y-12613984D01*
X11105896Y-12613984D02*
X11124944Y-12623508D01*
X11124944Y-12623508D02*
X11134468Y-12633031D01*
X11134468Y-12633031D02*
X11143991Y-12652079D01*
X11143991Y-12652079D02*
X11153515Y-12690174D01*
X11153515Y-12690174D02*
X11153515Y-12737793D01*
X11153515Y-12737793D02*
X11143991Y-12775888D01*
X11143991Y-12775888D02*
X11134468Y-12794936D01*
X11134468Y-12794936D02*
X11124944Y-12804460D01*
X11124944Y-12804460D02*
X11105896Y-12813984D01*
X11105896Y-12813984D02*
X11086848Y-12813984D01*
X11086848Y-12813984D02*
X11067801Y-12804460D01*
X11067801Y-12804460D02*
X11058277Y-12794936D01*
X11058277Y-12794936D02*
X11048753Y-12775888D01*
X11048753Y-12775888D02*
X11039229Y-12737793D01*
X11039229Y-12737793D02*
X11039229Y-12690174D01*
X11039229Y-12690174D02*
X11048753Y-12652079D01*
X11048753Y-12652079D02*
X11058277Y-12633031D01*
X11058277Y-12633031D02*
X11067801Y-12623508D01*
X11067801Y-12623508D02*
X11086848Y-12613984D01*
X11334467Y-12613984D02*
X11239229Y-12613984D01*
X11239229Y-12613984D02*
X11229706Y-12709222D01*
X11229706Y-12709222D02*
X11239229Y-12699698D01*
X11239229Y-12699698D02*
X11258277Y-12690174D01*
X11258277Y-12690174D02*
X11305896Y-12690174D01*
X11305896Y-12690174D02*
X11324944Y-12699698D01*
X11324944Y-12699698D02*
X11334467Y-12709222D01*
X11334467Y-12709222D02*
X11343991Y-12728269D01*
X11343991Y-12728269D02*
X11343991Y-12775888D01*
X11343991Y-12775888D02*
X11334467Y-12794936D01*
X11334467Y-12794936D02*
X11324944Y-12804460D01*
X11324944Y-12804460D02*
X11305896Y-12813984D01*
X11305896Y-12813984D02*
X11258277Y-12813984D01*
X11258277Y-12813984D02*
X11239229Y-12804460D01*
X11239229Y-12804460D02*
X11229706Y-12794936D01*
X11534467Y-12813984D02*
X11420182Y-12813984D01*
X11477325Y-12813984D02*
X11477325Y-12613984D01*
X11477325Y-12613984D02*
X11458277Y-12642555D01*
X11458277Y-12642555D02*
X11439229Y-12661603D01*
X11439229Y-12661603D02*
X11420182Y-12671127D01*
X11610658Y-12633031D02*
X11620182Y-12623508D01*
X11620182Y-12623508D02*
X11639229Y-12613984D01*
X11639229Y-12613984D02*
X11686848Y-12613984D01*
X11686848Y-12613984D02*
X11705896Y-12623508D01*
X11705896Y-12623508D02*
X11715420Y-12633031D01*
X11715420Y-12633031D02*
X11724944Y-12652079D01*
X11724944Y-12652079D02*
X11724944Y-12671127D01*
X11724944Y-12671127D02*
X11715420Y-12699698D01*
X11715420Y-12699698D02*
X11601134Y-12813984D01*
X11601134Y-12813984D02*
X11724944Y-12813984D01*
X11801134Y-12613984D02*
X11801134Y-12652079D01*
X11877325Y-12613984D02*
X11877325Y-12652079D01*
X12172563Y-12890174D02*
X12163039Y-12880650D01*
X12163039Y-12880650D02*
X12143991Y-12852079D01*
X12143991Y-12852079D02*
X12134468Y-12833031D01*
X12134468Y-12833031D02*
X12124944Y-12804460D01*
X12124944Y-12804460D02*
X12115420Y-12756841D01*
X12115420Y-12756841D02*
X12115420Y-12718746D01*
X12115420Y-12718746D02*
X12124944Y-12671127D01*
X12124944Y-12671127D02*
X12134468Y-12642555D01*
X12134468Y-12642555D02*
X12143991Y-12623508D01*
X12143991Y-12623508D02*
X12163039Y-12594936D01*
X12163039Y-12594936D02*
X12172563Y-12585412D01*
X12343991Y-12613984D02*
X12248753Y-12613984D01*
X12248753Y-12613984D02*
X12239229Y-12709222D01*
X12239229Y-12709222D02*
X12248753Y-12699698D01*
X12248753Y-12699698D02*
X12267801Y-12690174D01*
X12267801Y-12690174D02*
X12315420Y-12690174D01*
X12315420Y-12690174D02*
X12334468Y-12699698D01*
X12334468Y-12699698D02*
X12343991Y-12709222D01*
X12343991Y-12709222D02*
X12353515Y-12728269D01*
X12353515Y-12728269D02*
X12353515Y-12775888D01*
X12353515Y-12775888D02*
X12343991Y-12794936D01*
X12343991Y-12794936D02*
X12334468Y-12804460D01*
X12334468Y-12804460D02*
X12315420Y-12813984D01*
X12315420Y-12813984D02*
X12267801Y-12813984D01*
X12267801Y-12813984D02*
X12248753Y-12804460D01*
X12248753Y-12804460D02*
X12239229Y-12794936D01*
X12591610Y-12813984D02*
X12591610Y-12613984D01*
X12677325Y-12813984D02*
X12677325Y-12709222D01*
X12677325Y-12709222D02*
X12667801Y-12690174D01*
X12667801Y-12690174D02*
X12648753Y-12680650D01*
X12648753Y-12680650D02*
X12620182Y-12680650D01*
X12620182Y-12680650D02*
X12601134Y-12690174D01*
X12601134Y-12690174D02*
X12591610Y-12699698D01*
X12801134Y-12813984D02*
X12782087Y-12804460D01*
X12782087Y-12804460D02*
X12772563Y-12794936D01*
X12772563Y-12794936D02*
X12763039Y-12775888D01*
X12763039Y-12775888D02*
X12763039Y-12718746D01*
X12763039Y-12718746D02*
X12772563Y-12699698D01*
X12772563Y-12699698D02*
X12782087Y-12690174D01*
X12782087Y-12690174D02*
X12801134Y-12680650D01*
X12801134Y-12680650D02*
X12829706Y-12680650D01*
X12829706Y-12680650D02*
X12848753Y-12690174D01*
X12848753Y-12690174D02*
X12858277Y-12699698D01*
X12858277Y-12699698D02*
X12867801Y-12718746D01*
X12867801Y-12718746D02*
X12867801Y-12775888D01*
X12867801Y-12775888D02*
X12858277Y-12794936D01*
X12858277Y-12794936D02*
X12848753Y-12804460D01*
X12848753Y-12804460D02*
X12829706Y-12813984D01*
X12829706Y-12813984D02*
X12801134Y-12813984D01*
X12982087Y-12813984D02*
X12963039Y-12804460D01*
X12963039Y-12804460D02*
X12953515Y-12785412D01*
X12953515Y-12785412D02*
X12953515Y-12613984D01*
X13134468Y-12804460D02*
X13115420Y-12813984D01*
X13115420Y-12813984D02*
X13077325Y-12813984D01*
X13077325Y-12813984D02*
X13058277Y-12804460D01*
X13058277Y-12804460D02*
X13048753Y-12785412D01*
X13048753Y-12785412D02*
X13048753Y-12709222D01*
X13048753Y-12709222D02*
X13058277Y-12690174D01*
X13058277Y-12690174D02*
X13077325Y-12680650D01*
X13077325Y-12680650D02*
X13115420Y-12680650D01*
X13115420Y-12680650D02*
X13134468Y-12690174D01*
X13134468Y-12690174D02*
X13143991Y-12709222D01*
X13143991Y-12709222D02*
X13143991Y-12728269D01*
X13143991Y-12728269D02*
X13048753Y-12747317D01*
X13220182Y-12804460D02*
X13239230Y-12813984D01*
X13239230Y-12813984D02*
X13277325Y-12813984D01*
X13277325Y-12813984D02*
X13296372Y-12804460D01*
X13296372Y-12804460D02*
X13305896Y-12785412D01*
X13305896Y-12785412D02*
X13305896Y-12775888D01*
X13305896Y-12775888D02*
X13296372Y-12756841D01*
X13296372Y-12756841D02*
X13277325Y-12747317D01*
X13277325Y-12747317D02*
X13248753Y-12747317D01*
X13248753Y-12747317D02*
X13229706Y-12737793D01*
X13229706Y-12737793D02*
X13220182Y-12718746D01*
X13220182Y-12718746D02*
X13220182Y-12709222D01*
X13220182Y-12709222D02*
X13229706Y-12690174D01*
X13229706Y-12690174D02*
X13248753Y-12680650D01*
X13248753Y-12680650D02*
X13277325Y-12680650D01*
X13277325Y-12680650D02*
X13296372Y-12690174D01*
X13372563Y-12890174D02*
X13382087Y-12880650D01*
X13382087Y-12880650D02*
X13401134Y-12852079D01*
X13401134Y-12852079D02*
X13410658Y-12833031D01*
X13410658Y-12833031D02*
X13420182Y-12804460D01*
X13420182Y-12804460D02*
X13429706Y-12756841D01*
X13429706Y-12756841D02*
X13429706Y-12718746D01*
X13429706Y-12718746D02*
X13420182Y-12671127D01*
X13420182Y-12671127D02*
X13410658Y-12642555D01*
X13410658Y-12642555D02*
X13401134Y-12623508D01*
X13401134Y-12623508D02*
X13382087Y-12594936D01*
X13382087Y-12594936D02*
X13372563Y-12585412D01*
X8497500Y-13086500D02*
X8597500Y-12986500D01*
X8497500Y-12886500D01*
X8397500Y-12986500D01*
X8497500Y-13086500D01*
X8839229Y-12877984D02*
X8963039Y-12877984D01*
X8963039Y-12877984D02*
X8896372Y-12954174D01*
X8896372Y-12954174D02*
X8924944Y-12954174D01*
X8924944Y-12954174D02*
X8943991Y-12963698D01*
X8943991Y-12963698D02*
X8953515Y-12973222D01*
X8953515Y-12973222D02*
X8963039Y-12992269D01*
X8963039Y-12992269D02*
X8963039Y-13039888D01*
X8963039Y-13039888D02*
X8953515Y-13058936D01*
X8953515Y-13058936D02*
X8943991Y-13068460D01*
X8943991Y-13068460D02*
X8924944Y-13077984D01*
X8924944Y-13077984D02*
X8867801Y-13077984D01*
X8867801Y-13077984D02*
X8848753Y-13068460D01*
X8848753Y-13068460D02*
X8839229Y-13058936D01*
X9048753Y-13058936D02*
X9058277Y-13068460D01*
X9058277Y-13068460D02*
X9048753Y-13077984D01*
X9048753Y-13077984D02*
X9039229Y-13068460D01*
X9039229Y-13068460D02*
X9048753Y-13058936D01*
X9048753Y-13058936D02*
X9048753Y-13077984D01*
X9134467Y-12897031D02*
X9143991Y-12887508D01*
X9143991Y-12887508D02*
X9163039Y-12877984D01*
X9163039Y-12877984D02*
X9210658Y-12877984D01*
X9210658Y-12877984D02*
X9229705Y-12887508D01*
X9229705Y-12887508D02*
X9239229Y-12897031D01*
X9239229Y-12897031D02*
X9248753Y-12916079D01*
X9248753Y-12916079D02*
X9248753Y-12935127D01*
X9248753Y-12935127D02*
X9239229Y-12963698D01*
X9239229Y-12963698D02*
X9124944Y-13077984D01*
X9124944Y-13077984D02*
X9248753Y-13077984D01*
X9372563Y-12877984D02*
X9391610Y-12877984D01*
X9391610Y-12877984D02*
X9410658Y-12887508D01*
X9410658Y-12887508D02*
X9420182Y-12897031D01*
X9420182Y-12897031D02*
X9429705Y-12916079D01*
X9429705Y-12916079D02*
X9439229Y-12954174D01*
X9439229Y-12954174D02*
X9439229Y-13001793D01*
X9439229Y-13001793D02*
X9429705Y-13039888D01*
X9429705Y-13039888D02*
X9420182Y-13058936D01*
X9420182Y-13058936D02*
X9410658Y-13068460D01*
X9410658Y-13068460D02*
X9391610Y-13077984D01*
X9391610Y-13077984D02*
X9372563Y-13077984D01*
X9372563Y-13077984D02*
X9353515Y-13068460D01*
X9353515Y-13068460D02*
X9343991Y-13058936D01*
X9343991Y-13058936D02*
X9334467Y-13039888D01*
X9334467Y-13039888D02*
X9324944Y-13001793D01*
X9324944Y-13001793D02*
X9324944Y-12954174D01*
X9324944Y-12954174D02*
X9334467Y-12916079D01*
X9334467Y-12916079D02*
X9343991Y-12897031D01*
X9343991Y-12897031D02*
X9353515Y-12887508D01*
X9353515Y-12887508D02*
X9372563Y-12877984D01*
X9563039Y-12877984D02*
X9582086Y-12877984D01*
X9582086Y-12877984D02*
X9601134Y-12887508D01*
X9601134Y-12887508D02*
X9610658Y-12897031D01*
X9610658Y-12897031D02*
X9620182Y-12916079D01*
X9620182Y-12916079D02*
X9629705Y-12954174D01*
X9629705Y-12954174D02*
X9629705Y-13001793D01*
X9629705Y-13001793D02*
X9620182Y-13039888D01*
X9620182Y-13039888D02*
X9610658Y-13058936D01*
X9610658Y-13058936D02*
X9601134Y-13068460D01*
X9601134Y-13068460D02*
X9582086Y-13077984D01*
X9582086Y-13077984D02*
X9563039Y-13077984D01*
X9563039Y-13077984D02*
X9543991Y-13068460D01*
X9543991Y-13068460D02*
X9534467Y-13058936D01*
X9534467Y-13058936D02*
X9524944Y-13039888D01*
X9524944Y-13039888D02*
X9515420Y-13001793D01*
X9515420Y-13001793D02*
X9515420Y-12954174D01*
X9515420Y-12954174D02*
X9524944Y-12916079D01*
X9524944Y-12916079D02*
X9534467Y-12897031D01*
X9534467Y-12897031D02*
X9543991Y-12887508D01*
X9543991Y-12887508D02*
X9563039Y-12877984D01*
X9715420Y-13077984D02*
X9715420Y-12944650D01*
X9715420Y-12963698D02*
X9724944Y-12954174D01*
X9724944Y-12954174D02*
X9743991Y-12944650D01*
X9743991Y-12944650D02*
X9772563Y-12944650D01*
X9772563Y-12944650D02*
X9791610Y-12954174D01*
X9791610Y-12954174D02*
X9801134Y-12973222D01*
X9801134Y-12973222D02*
X9801134Y-13077984D01*
X9801134Y-12973222D02*
X9810658Y-12954174D01*
X9810658Y-12954174D02*
X9829705Y-12944650D01*
X9829705Y-12944650D02*
X9858277Y-12944650D01*
X9858277Y-12944650D02*
X9877325Y-12954174D01*
X9877325Y-12954174D02*
X9886848Y-12973222D01*
X9886848Y-12973222D02*
X9886848Y-13077984D01*
X9982086Y-13077984D02*
X9982086Y-12944650D01*
X9982086Y-12963698D02*
X9991610Y-12954174D01*
X9991610Y-12954174D02*
X10010658Y-12944650D01*
X10010658Y-12944650D02*
X10039229Y-12944650D01*
X10039229Y-12944650D02*
X10058277Y-12954174D01*
X10058277Y-12954174D02*
X10067801Y-12973222D01*
X10067801Y-12973222D02*
X10067801Y-13077984D01*
X10067801Y-12973222D02*
X10077325Y-12954174D01*
X10077325Y-12954174D02*
X10096372Y-12944650D01*
X10096372Y-12944650D02*
X10124944Y-12944650D01*
X10124944Y-12944650D02*
X10143991Y-12954174D01*
X10143991Y-12954174D02*
X10153515Y-12973222D01*
X10153515Y-12973222D02*
X10153515Y-13077984D01*
X10543991Y-12868460D02*
X10372563Y-13125603D01*
X10801134Y-12877984D02*
X10820182Y-12877984D01*
X10820182Y-12877984D02*
X10839229Y-12887508D01*
X10839229Y-12887508D02*
X10848753Y-12897031D01*
X10848753Y-12897031D02*
X10858277Y-12916079D01*
X10858277Y-12916079D02*
X10867801Y-12954174D01*
X10867801Y-12954174D02*
X10867801Y-13001793D01*
X10867801Y-13001793D02*
X10858277Y-13039888D01*
X10858277Y-13039888D02*
X10848753Y-13058936D01*
X10848753Y-13058936D02*
X10839229Y-13068460D01*
X10839229Y-13068460D02*
X10820182Y-13077984D01*
X10820182Y-13077984D02*
X10801134Y-13077984D01*
X10801134Y-13077984D02*
X10782087Y-13068460D01*
X10782087Y-13068460D02*
X10772563Y-13058936D01*
X10772563Y-13058936D02*
X10763039Y-13039888D01*
X10763039Y-13039888D02*
X10753515Y-13001793D01*
X10753515Y-13001793D02*
X10753515Y-12954174D01*
X10753515Y-12954174D02*
X10763039Y-12916079D01*
X10763039Y-12916079D02*
X10772563Y-12897031D01*
X10772563Y-12897031D02*
X10782087Y-12887508D01*
X10782087Y-12887508D02*
X10801134Y-12877984D01*
X10953515Y-13058936D02*
X10963039Y-13068460D01*
X10963039Y-13068460D02*
X10953515Y-13077984D01*
X10953515Y-13077984D02*
X10943991Y-13068460D01*
X10943991Y-13068460D02*
X10953515Y-13058936D01*
X10953515Y-13058936D02*
X10953515Y-13077984D01*
X11153515Y-13077984D02*
X11039229Y-13077984D01*
X11096372Y-13077984D02*
X11096372Y-12877984D01*
X11096372Y-12877984D02*
X11077325Y-12906555D01*
X11077325Y-12906555D02*
X11058277Y-12925603D01*
X11058277Y-12925603D02*
X11039229Y-12935127D01*
X11229706Y-12897031D02*
X11239229Y-12887508D01*
X11239229Y-12887508D02*
X11258277Y-12877984D01*
X11258277Y-12877984D02*
X11305896Y-12877984D01*
X11305896Y-12877984D02*
X11324944Y-12887508D01*
X11324944Y-12887508D02*
X11334467Y-12897031D01*
X11334467Y-12897031D02*
X11343991Y-12916079D01*
X11343991Y-12916079D02*
X11343991Y-12935127D01*
X11343991Y-12935127D02*
X11334467Y-12963698D01*
X11334467Y-12963698D02*
X11220182Y-13077984D01*
X11220182Y-13077984D02*
X11343991Y-13077984D01*
X11515420Y-12877984D02*
X11477325Y-12877984D01*
X11477325Y-12877984D02*
X11458277Y-12887508D01*
X11458277Y-12887508D02*
X11448753Y-12897031D01*
X11448753Y-12897031D02*
X11429706Y-12925603D01*
X11429706Y-12925603D02*
X11420182Y-12963698D01*
X11420182Y-12963698D02*
X11420182Y-13039888D01*
X11420182Y-13039888D02*
X11429706Y-13058936D01*
X11429706Y-13058936D02*
X11439229Y-13068460D01*
X11439229Y-13068460D02*
X11458277Y-13077984D01*
X11458277Y-13077984D02*
X11496372Y-13077984D01*
X11496372Y-13077984D02*
X11515420Y-13068460D01*
X11515420Y-13068460D02*
X11524944Y-13058936D01*
X11524944Y-13058936D02*
X11534467Y-13039888D01*
X11534467Y-13039888D02*
X11534467Y-12992269D01*
X11534467Y-12992269D02*
X11524944Y-12973222D01*
X11524944Y-12973222D02*
X11515420Y-12963698D01*
X11515420Y-12963698D02*
X11496372Y-12954174D01*
X11496372Y-12954174D02*
X11458277Y-12954174D01*
X11458277Y-12954174D02*
X11439229Y-12963698D01*
X11439229Y-12963698D02*
X11429706Y-12973222D01*
X11429706Y-12973222D02*
X11420182Y-12992269D01*
X11658277Y-12877984D02*
X11677325Y-12877984D01*
X11677325Y-12877984D02*
X11696372Y-12887508D01*
X11696372Y-12887508D02*
X11705896Y-12897031D01*
X11705896Y-12897031D02*
X11715420Y-12916079D01*
X11715420Y-12916079D02*
X11724944Y-12954174D01*
X11724944Y-12954174D02*
X11724944Y-13001793D01*
X11724944Y-13001793D02*
X11715420Y-13039888D01*
X11715420Y-13039888D02*
X11705896Y-13058936D01*
X11705896Y-13058936D02*
X11696372Y-13068460D01*
X11696372Y-13068460D02*
X11677325Y-13077984D01*
X11677325Y-13077984D02*
X11658277Y-13077984D01*
X11658277Y-13077984D02*
X11639229Y-13068460D01*
X11639229Y-13068460D02*
X11629706Y-13058936D01*
X11629706Y-13058936D02*
X11620182Y-13039888D01*
X11620182Y-13039888D02*
X11610658Y-13001793D01*
X11610658Y-13001793D02*
X11610658Y-12954174D01*
X11610658Y-12954174D02*
X11620182Y-12916079D01*
X11620182Y-12916079D02*
X11629706Y-12897031D01*
X11629706Y-12897031D02*
X11639229Y-12887508D01*
X11639229Y-12887508D02*
X11658277Y-12877984D01*
X11801134Y-12877984D02*
X11801134Y-12916079D01*
X11877325Y-12877984D02*
X11877325Y-12916079D01*
X12172563Y-13154174D02*
X12163039Y-13144650D01*
X12163039Y-13144650D02*
X12143991Y-13116079D01*
X12143991Y-13116079D02*
X12134468Y-13097031D01*
X12134468Y-13097031D02*
X12124944Y-13068460D01*
X12124944Y-13068460D02*
X12115420Y-13020841D01*
X12115420Y-13020841D02*
X12115420Y-12982746D01*
X12115420Y-12982746D02*
X12124944Y-12935127D01*
X12124944Y-12935127D02*
X12134468Y-12906555D01*
X12134468Y-12906555D02*
X12143991Y-12887508D01*
X12143991Y-12887508D02*
X12163039Y-12858936D01*
X12163039Y-12858936D02*
X12172563Y-12849412D01*
X12334468Y-12944650D02*
X12334468Y-13077984D01*
X12286848Y-12868460D02*
X12239229Y-13011317D01*
X12239229Y-13011317D02*
X12363039Y-13011317D01*
X12591610Y-13077984D02*
X12591610Y-12877984D01*
X12677325Y-13077984D02*
X12677325Y-12973222D01*
X12677325Y-12973222D02*
X12667801Y-12954174D01*
X12667801Y-12954174D02*
X12648753Y-12944650D01*
X12648753Y-12944650D02*
X12620182Y-12944650D01*
X12620182Y-12944650D02*
X12601134Y-12954174D01*
X12601134Y-12954174D02*
X12591610Y-12963698D01*
X12801134Y-13077984D02*
X12782087Y-13068460D01*
X12782087Y-13068460D02*
X12772563Y-13058936D01*
X12772563Y-13058936D02*
X12763039Y-13039888D01*
X12763039Y-13039888D02*
X12763039Y-12982746D01*
X12763039Y-12982746D02*
X12772563Y-12963698D01*
X12772563Y-12963698D02*
X12782087Y-12954174D01*
X12782087Y-12954174D02*
X12801134Y-12944650D01*
X12801134Y-12944650D02*
X12829706Y-12944650D01*
X12829706Y-12944650D02*
X12848753Y-12954174D01*
X12848753Y-12954174D02*
X12858277Y-12963698D01*
X12858277Y-12963698D02*
X12867801Y-12982746D01*
X12867801Y-12982746D02*
X12867801Y-13039888D01*
X12867801Y-13039888D02*
X12858277Y-13058936D01*
X12858277Y-13058936D02*
X12848753Y-13068460D01*
X12848753Y-13068460D02*
X12829706Y-13077984D01*
X12829706Y-13077984D02*
X12801134Y-13077984D01*
X12982087Y-13077984D02*
X12963039Y-13068460D01*
X12963039Y-13068460D02*
X12953515Y-13049412D01*
X12953515Y-13049412D02*
X12953515Y-12877984D01*
X13134468Y-13068460D02*
X13115420Y-13077984D01*
X13115420Y-13077984D02*
X13077325Y-13077984D01*
X13077325Y-13077984D02*
X13058277Y-13068460D01*
X13058277Y-13068460D02*
X13048753Y-13049412D01*
X13048753Y-13049412D02*
X13048753Y-12973222D01*
X13048753Y-12973222D02*
X13058277Y-12954174D01*
X13058277Y-12954174D02*
X13077325Y-12944650D01*
X13077325Y-12944650D02*
X13115420Y-12944650D01*
X13115420Y-12944650D02*
X13134468Y-12954174D01*
X13134468Y-12954174D02*
X13143991Y-12973222D01*
X13143991Y-12973222D02*
X13143991Y-12992269D01*
X13143991Y-12992269D02*
X13048753Y-13011317D01*
X13220182Y-13068460D02*
X13239230Y-13077984D01*
X13239230Y-13077984D02*
X13277325Y-13077984D01*
X13277325Y-13077984D02*
X13296372Y-13068460D01*
X13296372Y-13068460D02*
X13305896Y-13049412D01*
X13305896Y-13049412D02*
X13305896Y-13039888D01*
X13305896Y-13039888D02*
X13296372Y-13020841D01*
X13296372Y-13020841D02*
X13277325Y-13011317D01*
X13277325Y-13011317D02*
X13248753Y-13011317D01*
X13248753Y-13011317D02*
X13229706Y-13001793D01*
X13229706Y-13001793D02*
X13220182Y-12982746D01*
X13220182Y-12982746D02*
X13220182Y-12973222D01*
X13220182Y-12973222D02*
X13229706Y-12954174D01*
X13229706Y-12954174D02*
X13248753Y-12944650D01*
X13248753Y-12944650D02*
X13277325Y-12944650D01*
X13277325Y-12944650D02*
X13296372Y-12954174D01*
X13372563Y-13154174D02*
X13382087Y-13144650D01*
X13382087Y-13144650D02*
X13401134Y-13116079D01*
X13401134Y-13116079D02*
X13410658Y-13097031D01*
X13410658Y-13097031D02*
X13420182Y-13068460D01*
X13420182Y-13068460D02*
X13429706Y-13020841D01*
X13429706Y-13020841D02*
X13429706Y-12982746D01*
X13429706Y-12982746D02*
X13420182Y-12935127D01*
X13420182Y-12935127D02*
X13410658Y-12906555D01*
X13410658Y-12906555D02*
X13401134Y-12887508D01*
X13401134Y-12887508D02*
X13382087Y-12858936D01*
X13382087Y-12858936D02*
X13372563Y-12849412D01*
M02*
