%TF.GenerationSoftware,KiCad,Pcbnew,8.0.7*%
%TF.CreationDate,2025-01-30T08:13:14+10:00*%
%TF.ProjectId,MFOS_Power_Supply_PCB,4d464f53-5f50-46f7-9765-725f53757070,rev?*%
%TF.SameCoordinates,Original*%
%TF.FileFunction,Copper,L1,Top*%
%TF.FilePolarity,Positive*%
%FSLAX46Y46*%
G04 Gerber Fmt 4.6, Leading zero omitted, Abs format (unit mm)*
G04 Created by KiCad (PCBNEW 8.0.7) date 2025-01-30 08:13:14*
%MOMM*%
%LPD*%
G01*
G04 APERTURE LIST*
%TA.AperFunction,ComponentPad*%
%ADD10C,3.600000*%
%TD*%
%TA.AperFunction,ConnectorPad*%
%ADD11C,5.600000*%
%TD*%
%TA.AperFunction,ComponentPad*%
%ADD12R,2.400000X2.400000*%
%TD*%
%TA.AperFunction,ComponentPad*%
%ADD13C,2.400000*%
%TD*%
%TA.AperFunction,ComponentPad*%
%ADD14R,2.000000X2.000000*%
%TD*%
%TA.AperFunction,ComponentPad*%
%ADD15C,2.000000*%
%TD*%
%TA.AperFunction,ComponentPad*%
%ADD16O,2.000000X2.000000*%
%TD*%
%TA.AperFunction,ComponentPad*%
%ADD17R,2.200000X2.200000*%
%TD*%
%TA.AperFunction,ComponentPad*%
%ADD18O,2.200000X2.200000*%
%TD*%
%TA.AperFunction,ComponentPad*%
%ADD19R,2.800000X2.800000*%
%TD*%
%TA.AperFunction,ComponentPad*%
%ADD20C,2.800000*%
%TD*%
%TA.AperFunction,ComponentPad*%
%ADD21R,2.500000X1.905000*%
%TD*%
%TA.AperFunction,ComponentPad*%
%ADD22O,2.500000X1.905000*%
%TD*%
%TA.AperFunction,Conductor*%
%ADD23C,1.000000*%
%TD*%
G04 APERTURE END LIST*
D10*
%TO.P,M4,1*%
%TO.N,N/C*%
X197000000Y-109000000D03*
D11*
X197000000Y-109000000D03*
%TD*%
D12*
%TO.P,C8,1*%
%TO.N,Earth*%
X151000000Y-106500000D03*
D13*
%TO.P,C8,2*%
%TO.N,Net-(D1-A)*%
X151000000Y-99000000D03*
%TD*%
D14*
%TO.P,C7,1*%
%TO.N,Net-(D3-K)*%
X164000000Y-76500000D03*
D15*
%TO.P,C7,2*%
%TO.N,Earth*%
X164000000Y-81500000D03*
%TD*%
%TO.P,R2,1*%
%TO.N,Earth*%
X190000000Y-95920000D03*
D16*
%TO.P,R2,2*%
%TO.N,Net-(D5-A)*%
X190000000Y-106080000D03*
%TD*%
D12*
%TO.P,C6,1*%
%TO.N,Earth*%
X131000000Y-106500000D03*
D13*
%TO.P,C6,2*%
%TO.N,Net-(D1-A)*%
X131000000Y-99000000D03*
%TD*%
D17*
%TO.P,D2,1,K*%
%TO.N,Net-(D2-K)*%
X99000000Y-78920000D03*
D18*
%TO.P,D2,2,A*%
%TO.N,Net-(D1-K)*%
X99000000Y-89080000D03*
%TD*%
D17*
%TO.P,D3,1,K*%
%TO.N,Net-(D3-K)*%
X186000000Y-78920000D03*
D18*
%TO.P,D3,2,A*%
%TO.N,Earth*%
X186000000Y-89080000D03*
%TD*%
D12*
%TO.P,C4,1*%
%TO.N,Earth*%
X111000000Y-106500000D03*
D13*
%TO.P,C4,2*%
%TO.N,Net-(D1-A)*%
X111000000Y-99000000D03*
%TD*%
D14*
%TO.P,C5,1*%
%TO.N,Net-(D2-K)*%
X164000000Y-90500000D03*
D15*
%TO.P,C5,2*%
%TO.N,Earth*%
X164000000Y-85500000D03*
%TD*%
D12*
%TO.P,C1,1*%
%TO.N,Net-(D2-K)*%
X111000000Y-86000000D03*
D13*
%TO.P,C1,2*%
%TO.N,Earth*%
X111000000Y-78500000D03*
%TD*%
D15*
%TO.P,R1,1*%
%TO.N,Net-(D3-K)*%
X190000000Y-78920000D03*
D16*
%TO.P,R1,2*%
%TO.N,Earth*%
X190000000Y-89080000D03*
%TD*%
D19*
%TO.P,J1,1,Pin_1*%
%TO.N,Net-(D1-K)*%
X92000000Y-92000000D03*
D20*
%TO.P,J1,2,Pin_2*%
%TO.N,Earth*%
X92000000Y-97000000D03*
%TD*%
D21*
%TO.P,U1,1,VI*%
%TO.N,Net-(D2-K)*%
X176000000Y-86540000D03*
D22*
%TO.P,U1,2,GND*%
%TO.N,Earth*%
X176000000Y-84000000D03*
%TO.P,U1,3,VO*%
%TO.N,Net-(D3-K)*%
X176000000Y-81460000D03*
%TD*%
D12*
%TO.P,C2,1*%
%TO.N,Net-(D2-K)*%
X131000000Y-86000000D03*
D13*
%TO.P,C2,2*%
%TO.N,Earth*%
X131000000Y-78500000D03*
%TD*%
D10*
%TO.P,M3,1*%
%TO.N,N/C*%
X197000000Y-76000000D03*
D11*
X197000000Y-76000000D03*
%TD*%
D10*
%TO.P,M1,1*%
%TO.N,N/C*%
X93000000Y-76000000D03*
D11*
X93000000Y-76000000D03*
%TD*%
D17*
%TO.P,D4,1,K*%
%TO.N,Net-(D2-K)*%
X182000000Y-89080000D03*
D18*
%TO.P,D4,2,A*%
%TO.N,Net-(D3-K)*%
X182000000Y-78920000D03*
%TD*%
D17*
%TO.P,D6,1,K*%
%TO.N,Net-(D5-A)*%
X182000000Y-106080000D03*
D18*
%TO.P,D6,2,A*%
%TO.N,Net-(D1-A)*%
X182000000Y-95920000D03*
%TD*%
D17*
%TO.P,D5,1,K*%
%TO.N,Earth*%
X186000000Y-95920000D03*
D18*
%TO.P,D5,2,A*%
%TO.N,Net-(D5-A)*%
X186000000Y-106080000D03*
%TD*%
D21*
%TO.P,U2,1,GND*%
%TO.N,Earth*%
X171000000Y-99000000D03*
D22*
%TO.P,U2,2,VI*%
%TO.N,Net-(D1-A)*%
X171000000Y-101540000D03*
%TO.P,U2,3,VO*%
%TO.N,Net-(D5-A)*%
X171000000Y-104080000D03*
%TD*%
D17*
%TO.P,D1,1,K*%
%TO.N,Net-(D1-K)*%
X99000000Y-92920000D03*
D18*
%TO.P,D1,2,A*%
%TO.N,Net-(D1-A)*%
X99000000Y-103080000D03*
%TD*%
D10*
%TO.P,M2,1*%
%TO.N,N/C*%
X93000000Y-109000000D03*
D11*
X93000000Y-109000000D03*
%TD*%
D19*
%TO.P,J2,1,Pin_1*%
%TO.N,Net-(D3-K)*%
X196905000Y-87000000D03*
D20*
%TO.P,J2,2,Pin_2*%
%TO.N,Earth*%
X196905000Y-92000000D03*
%TO.P,J2,3,Pin_3*%
%TO.N,Net-(D5-A)*%
X196905000Y-97000000D03*
%TD*%
D14*
%TO.P,C10,1*%
%TO.N,Earth*%
X164000000Y-101500000D03*
D15*
%TO.P,C10,2*%
%TO.N,Net-(D1-A)*%
X164000000Y-96500000D03*
%TD*%
D14*
%TO.P,C9,1*%
%TO.N,Earth*%
X164000000Y-105000000D03*
D15*
%TO.P,C9,2*%
%TO.N,Net-(D5-A)*%
X164000000Y-110000000D03*
%TD*%
D12*
%TO.P,C3,1*%
%TO.N,Net-(D2-K)*%
X151000000Y-86000000D03*
D13*
%TO.P,C3,2*%
%TO.N,Earth*%
X151000000Y-78500000D03*
%TD*%
D23*
%TO.N,Earth*%
X171000000Y-92500000D02*
X164000000Y-85500000D01*
X171000000Y-99000000D02*
X166500000Y-99000000D01*
X166500000Y-99000000D02*
X164000000Y-101500000D01*
X171000000Y-92500000D02*
X171000000Y-99000000D01*
%TD*%
M02*
