%TF.GenerationSoftware,KiCad,Pcbnew,8.0.7*%
%TF.CreationDate,2025-01-29T21:02:50+10:00*%
%TF.ProjectId,MFOS_Power_Supply_PCB,4d464f53-5f50-46f7-9765-725f53757070,rev?*%
%TF.SameCoordinates,Original*%
%TF.FileFunction,Plated,1,2,PTH,Drill*%
%TF.FilePolarity,Positive*%
%FSLAX46Y46*%
G04 Gerber Fmt 4.6, Leading zero omitted, Abs format (unit mm)*
G04 Created by KiCad (PCBNEW 8.0.7) date 2025-01-29 21:02:50*
%MOMM*%
%LPD*%
G01*
G04 APERTURE LIST*
%TA.AperFunction,ComponentDrill*%
%ADD10C,0.800000*%
%TD*%
%TA.AperFunction,ComponentDrill*%
%ADD11C,1.100000*%
%TD*%
%TA.AperFunction,ComponentDrill*%
%ADD12C,1.200000*%
%TD*%
%TA.AperFunction,ComponentDrill*%
%ADD13C,1.300000*%
%TD*%
%TA.AperFunction,ComponentDrill*%
%ADD14C,3.200000*%
%TD*%
G04 APERTURE END LIST*
D10*
%TO.C,C7*%
X164000000Y-76500000D03*
X164000000Y-81500000D03*
%TO.C,C5*%
X164000000Y-85500000D03*
X164000000Y-90500000D03*
%TO.C,C10*%
X164000000Y-96500000D03*
X164000000Y-101500000D03*
%TO.C,C9*%
X164000000Y-105000000D03*
X164000000Y-110000000D03*
%TO.C,R1*%
X190000000Y-78920000D03*
X190000000Y-89080000D03*
%TO.C,R2*%
X190000000Y-95920000D03*
X190000000Y-106080000D03*
D11*
%TO.C,D2*%
X99000000Y-78920000D03*
X99000000Y-89080000D03*
%TO.C,D1*%
X99000000Y-92920000D03*
X99000000Y-103080000D03*
%TO.C,U2*%
X171000000Y-99000000D03*
X171000000Y-101540000D03*
X171000000Y-104080000D03*
%TO.C,U1*%
X176000000Y-81460000D03*
X176000000Y-84000000D03*
X176000000Y-86540000D03*
%TO.C,D4*%
X182000000Y-78920000D03*
X182000000Y-89080000D03*
%TO.C,D6*%
X182000000Y-95920000D03*
X182000000Y-106080000D03*
%TO.C,D3*%
X186000000Y-78920000D03*
X186000000Y-89080000D03*
%TO.C,D5*%
X186000000Y-95920000D03*
X186000000Y-106080000D03*
D12*
%TO.C,C1*%
X111000000Y-78500000D03*
X111000000Y-86000000D03*
%TO.C,C4*%
X111000000Y-99000000D03*
X111000000Y-106500000D03*
%TO.C,C2*%
X131000000Y-78500000D03*
X131000000Y-86000000D03*
%TO.C,C6*%
X131000000Y-99000000D03*
X131000000Y-106500000D03*
%TO.C,C3*%
X151000000Y-78500000D03*
X151000000Y-86000000D03*
%TO.C,C8*%
X151000000Y-99000000D03*
X151000000Y-106500000D03*
D13*
%TO.C,J1*%
X92000000Y-92000000D03*
X92000000Y-97000000D03*
%TO.C,J2*%
X196905000Y-87000000D03*
X196905000Y-92000000D03*
X196905000Y-97000000D03*
D14*
%TO.C,M1*%
X93000000Y-76000000D03*
%TO.C,M2*%
X93000000Y-109000000D03*
%TO.C,M3*%
X195000000Y-76000000D03*
%TO.C,M4*%
X195000000Y-109000000D03*
M02*
