%TF.GenerationSoftware,KiCad,Pcbnew,8.0.7*%
%TF.CreationDate,2025-01-25T21:28:20+10:00*%
%TF.ProjectId,MFOS_Power_Supply_PCB,4d464f53-5f50-46f7-9765-725f53757070,rev?*%
%TF.SameCoordinates,Original*%
%TF.FileFunction,Copper,L2,Bot*%
%TF.FilePolarity,Positive*%
%FSLAX46Y46*%
G04 Gerber Fmt 4.6, Leading zero omitted, Abs format (unit mm)*
G04 Created by KiCad (PCBNEW 8.0.7) date 2025-01-25 21:28:20*
%MOMM*%
%LPD*%
G01*
G04 APERTURE LIST*
%TA.AperFunction,ComponentPad*%
%ADD10R,1.700000X1.700000*%
%TD*%
%TA.AperFunction,ComponentPad*%
%ADD11C,3.600000*%
%TD*%
%TA.AperFunction,ConnectorPad*%
%ADD12C,5.600000*%
%TD*%
%TA.AperFunction,ComponentPad*%
%ADD13R,2.400000X2.400000*%
%TD*%
%TA.AperFunction,ComponentPad*%
%ADD14C,2.400000*%
%TD*%
%TA.AperFunction,ComponentPad*%
%ADD15C,1.600000*%
%TD*%
%TA.AperFunction,ComponentPad*%
%ADD16O,1.600000X1.600000*%
%TD*%
%TA.AperFunction,ComponentPad*%
%ADD17R,2.200000X2.200000*%
%TD*%
%TA.AperFunction,ComponentPad*%
%ADD18O,2.200000X2.200000*%
%TD*%
%TA.AperFunction,ComponentPad*%
%ADD19R,2.000000X1.905000*%
%TD*%
%TA.AperFunction,ComponentPad*%
%ADD20O,2.000000X1.905000*%
%TD*%
%TA.AperFunction,Conductor*%
%ADD21C,1.000000*%
%TD*%
G04 APERTURE END LIST*
D10*
%TO.P,J4,1,Pin_1*%
%TO.N,Net-(D3-K)*%
X195000000Y-83000000D03*
%TD*%
%TO.P,J5,1,Pin_1*%
%TO.N,Net-(D5-A)*%
X195000000Y-101000000D03*
%TD*%
D11*
%TO.P,M4,1*%
%TO.N,N/C*%
X195000000Y-109000000D03*
D12*
X195000000Y-109000000D03*
%TD*%
D13*
%TO.P,C8,1*%
%TO.N,Earth*%
X151000000Y-106500000D03*
D14*
%TO.P,C8,2*%
%TO.N,Net-(D1-A)*%
X151000000Y-99000000D03*
%TD*%
D15*
%TO.P,C7,1*%
%TO.N,Net-(D3-K)*%
X164000000Y-76500000D03*
%TO.P,C7,2*%
%TO.N,Earth*%
X164000000Y-81500000D03*
%TD*%
%TO.P,R2,1*%
%TO.N,Earth*%
X190000000Y-95920000D03*
D16*
%TO.P,R2,2*%
%TO.N,Net-(D5-A)*%
X190000000Y-106080000D03*
%TD*%
D13*
%TO.P,C6,1*%
%TO.N,Earth*%
X131000000Y-106500000D03*
D14*
%TO.P,C6,2*%
%TO.N,Net-(D1-A)*%
X131000000Y-99000000D03*
%TD*%
D17*
%TO.P,D2,1,K*%
%TO.N,Net-(D2-K)*%
X99000000Y-78920000D03*
D18*
%TO.P,D2,2,A*%
%TO.N,Net-(D1-K)*%
X99000000Y-89080000D03*
%TD*%
D17*
%TO.P,D3,1,K*%
%TO.N,Net-(D3-K)*%
X186000000Y-78920000D03*
D18*
%TO.P,D3,2,A*%
%TO.N,Earth*%
X186000000Y-89080000D03*
%TD*%
D13*
%TO.P,C4,1*%
%TO.N,Earth*%
X111000000Y-106500000D03*
D14*
%TO.P,C4,2*%
%TO.N,Net-(D1-A)*%
X111000000Y-99000000D03*
%TD*%
D15*
%TO.P,C5,1*%
%TO.N,Net-(D2-K)*%
X164000000Y-90500000D03*
%TO.P,C5,2*%
%TO.N,Earth*%
X164000000Y-85500000D03*
%TD*%
D10*
%TO.P,J1,1,Pin_1*%
%TO.N,Net-(D1-K)*%
X92000000Y-89000000D03*
%TD*%
D13*
%TO.P,C1,1*%
%TO.N,Net-(D2-K)*%
X111000000Y-86000000D03*
D14*
%TO.P,C1,2*%
%TO.N,Earth*%
X111000000Y-78500000D03*
%TD*%
D15*
%TO.P,R1,1*%
%TO.N,Net-(D3-K)*%
X190000000Y-78920000D03*
D16*
%TO.P,R1,2*%
%TO.N,Earth*%
X190000000Y-89080000D03*
%TD*%
D19*
%TO.P,U1,1,VI*%
%TO.N,Net-(D2-K)*%
X176000000Y-86540000D03*
D20*
%TO.P,U1,2,GND*%
%TO.N,Earth*%
X176000000Y-84000000D03*
%TO.P,U1,3,VO*%
%TO.N,Net-(D3-K)*%
X176000000Y-81460000D03*
%TD*%
D13*
%TO.P,C2,1*%
%TO.N,Net-(D2-K)*%
X131000000Y-86000000D03*
D14*
%TO.P,C2,2*%
%TO.N,Earth*%
X131000000Y-78500000D03*
%TD*%
D11*
%TO.P,M3,1*%
%TO.N,N/C*%
X195000000Y-76000000D03*
D12*
X195000000Y-76000000D03*
%TD*%
D10*
%TO.P,J2,1,Pin_1*%
%TO.N,Earth*%
X92000000Y-96000000D03*
%TD*%
D11*
%TO.P,M1,1*%
%TO.N,N/C*%
X93000000Y-76000000D03*
D12*
X93000000Y-76000000D03*
%TD*%
D17*
%TO.P,D4,1,K*%
%TO.N,Net-(D2-K)*%
X182000000Y-89080000D03*
D18*
%TO.P,D4,2,A*%
%TO.N,Net-(D3-K)*%
X182000000Y-78920000D03*
%TD*%
D10*
%TO.P,J3,1,Pin_1*%
%TO.N,Earth*%
X195000000Y-92000000D03*
%TD*%
D17*
%TO.P,D6,1,K*%
%TO.N,Net-(D5-A)*%
X182000000Y-106080000D03*
D18*
%TO.P,D6,2,A*%
%TO.N,Net-(D1-A)*%
X182000000Y-95920000D03*
%TD*%
D17*
%TO.P,D5,1,K*%
%TO.N,Earth*%
X186000000Y-95920000D03*
D18*
%TO.P,D5,2,A*%
%TO.N,Net-(D5-A)*%
X186000000Y-106080000D03*
%TD*%
D19*
%TO.P,U2,1,GND*%
%TO.N,Earth*%
X171000000Y-99000000D03*
D20*
%TO.P,U2,2,VI*%
%TO.N,Net-(D1-A)*%
X171000000Y-101540000D03*
%TO.P,U2,3,VO*%
%TO.N,Net-(D5-A)*%
X171000000Y-104080000D03*
%TD*%
D17*
%TO.P,D1,1,K*%
%TO.N,Net-(D1-K)*%
X99000000Y-92920000D03*
D18*
%TO.P,D1,2,A*%
%TO.N,Net-(D1-A)*%
X99000000Y-103080000D03*
%TD*%
D11*
%TO.P,M2,1*%
%TO.N,N/C*%
X93000000Y-109000000D03*
D12*
X93000000Y-109000000D03*
%TD*%
D15*
%TO.P,C10,1*%
%TO.N,Earth*%
X164000000Y-101500000D03*
%TO.P,C10,2*%
%TO.N,Net-(D1-A)*%
X164000000Y-96500000D03*
%TD*%
%TO.P,C9,1*%
%TO.N,Earth*%
X164000000Y-105000000D03*
%TO.P,C9,2*%
%TO.N,Net-(D5-A)*%
X164000000Y-110000000D03*
%TD*%
D13*
%TO.P,C3,1*%
%TO.N,Net-(D2-K)*%
X151000000Y-86000000D03*
D14*
%TO.P,C3,2*%
%TO.N,Earth*%
X151000000Y-78500000D03*
%TD*%
D21*
%TO.N,Net-(D2-K)*%
X172040000Y-90500000D02*
X176000000Y-86540000D01*
X99000000Y-81000000D02*
X104000000Y-86000000D01*
X104000000Y-86000000D02*
X111000000Y-86000000D01*
X164000000Y-90500000D02*
X155500000Y-90500000D01*
X164000000Y-90500000D02*
X172040000Y-90500000D01*
X182000000Y-89080000D02*
X178540000Y-89080000D01*
X131000000Y-86000000D02*
X151000000Y-86000000D01*
X178540000Y-89080000D02*
X176000000Y-86540000D01*
X99000000Y-78920000D02*
X99000000Y-81000000D01*
X155500000Y-90500000D02*
X151000000Y-86000000D01*
X111000000Y-86000000D02*
X131000000Y-86000000D01*
%TO.N,Earth*%
X190000000Y-89080000D02*
X192080000Y-89080000D01*
X162500000Y-106500000D02*
X164000000Y-105000000D01*
X186000000Y-95920000D02*
X190000000Y-95920000D01*
X176000000Y-84000000D02*
X168000000Y-84000000D01*
X190000000Y-95920000D02*
X191080000Y-95920000D01*
X151000000Y-78500000D02*
X154000000Y-81500000D01*
X154000000Y-81500000D02*
X164000000Y-81500000D01*
X131000000Y-106500000D02*
X151000000Y-106500000D01*
X186000000Y-89080000D02*
X190000000Y-89080000D01*
X151000000Y-106500000D02*
X162500000Y-106500000D01*
X111000000Y-106500000D02*
X131000000Y-106500000D01*
X92000000Y-96000000D02*
X92000000Y-101000000D01*
X182000000Y-84000000D02*
X186000000Y-88000000D01*
X92000000Y-101000000D02*
X97500000Y-106500000D01*
X131000000Y-78500000D02*
X151000000Y-78500000D01*
X166500000Y-85500000D02*
X164000000Y-85500000D01*
X186000000Y-88000000D02*
X186000000Y-89080000D01*
X111000000Y-78500000D02*
X131000000Y-78500000D01*
X192080000Y-89080000D02*
X195000000Y-92000000D01*
X191080000Y-95920000D02*
X195000000Y-92000000D01*
X164000000Y-105000000D02*
X164000000Y-101500000D01*
X164000000Y-81500000D02*
X164000000Y-85500000D01*
X97500000Y-106500000D02*
X111000000Y-106500000D01*
X168000000Y-84000000D02*
X166500000Y-85500000D01*
X176000000Y-84000000D02*
X182000000Y-84000000D01*
%TO.N,Net-(D1-A)*%
X131000000Y-99000000D02*
X151000000Y-99000000D01*
X103080000Y-99000000D02*
X111000000Y-99000000D01*
X111000000Y-99000000D02*
X131000000Y-99000000D01*
X169040000Y-101540000D02*
X171000000Y-101540000D01*
X164000000Y-96500000D02*
X153500000Y-96500000D01*
X176380000Y-101540000D02*
X182000000Y-95920000D01*
X99000000Y-103080000D02*
X103080000Y-99000000D01*
X169040000Y-101540000D02*
X164000000Y-96500000D01*
X153500000Y-96500000D02*
X151000000Y-99000000D01*
X171000000Y-101540000D02*
X176380000Y-101540000D01*
%TO.N,Net-(D3-K)*%
X171040000Y-76500000D02*
X176000000Y-81460000D01*
X186000000Y-78920000D02*
X190000000Y-78920000D01*
X176000000Y-81460000D02*
X179460000Y-81460000D01*
X190920000Y-78920000D02*
X195000000Y-83000000D01*
X179460000Y-81460000D02*
X182000000Y-78920000D01*
X182000000Y-78920000D02*
X186000000Y-78920000D01*
X190000000Y-78920000D02*
X190920000Y-78920000D01*
X164000000Y-76500000D02*
X171040000Y-76500000D01*
%TO.N,Net-(D5-A)*%
X182000000Y-106080000D02*
X173000000Y-106080000D01*
X190000000Y-106080000D02*
X190000000Y-106000000D01*
X190000000Y-106000000D02*
X195000000Y-101000000D01*
X186000000Y-106080000D02*
X190000000Y-106080000D01*
X173000000Y-106080000D02*
X171000000Y-104080000D01*
X182000000Y-106080000D02*
X186000000Y-106080000D01*
X164000000Y-110000000D02*
X169000000Y-110000000D01*
X169000000Y-110000000D02*
X171000000Y-108000000D01*
X171000000Y-108000000D02*
X171000000Y-104080000D01*
%TO.N,Net-(D1-K)*%
X99000000Y-89080000D02*
X99000000Y-92920000D01*
X99000000Y-89080000D02*
X92080000Y-89080000D01*
X92080000Y-89080000D02*
X92000000Y-89000000D01*
%TD*%
M02*
