%TF.GenerationSoftware,KiCad,Pcbnew,8.0.7*%
%TF.CreationDate,2025-01-29T21:02:38+10:00*%
%TF.ProjectId,MFOS_Power_Supply_PCB,4d464f53-5f50-46f7-9765-725f53757070,rev?*%
%TF.SameCoordinates,Original*%
%TF.FileFunction,Legend,Bot*%
%TF.FilePolarity,Positive*%
%FSLAX46Y46*%
G04 Gerber Fmt 4.6, Leading zero omitted, Abs format (unit mm)*
G04 Created by KiCad (PCBNEW 8.0.7) date 2025-01-29 21:02:38*
%MOMM*%
%LPD*%
G01*
G04 APERTURE LIST*
%ADD10C,0.100000*%
G04 APERTURE END LIST*
D10*
X139696115Y-93872419D02*
X139696115Y-92872419D01*
X139696115Y-93348609D02*
X139124687Y-93348609D01*
X139124687Y-93872419D02*
X139124687Y-92872419D01*
X138219925Y-93872419D02*
X138219925Y-93348609D01*
X138219925Y-93348609D02*
X138267544Y-93253371D01*
X138267544Y-93253371D02*
X138362782Y-93205752D01*
X138362782Y-93205752D02*
X138553258Y-93205752D01*
X138553258Y-93205752D02*
X138648496Y-93253371D01*
X138219925Y-93824800D02*
X138315163Y-93872419D01*
X138315163Y-93872419D02*
X138553258Y-93872419D01*
X138553258Y-93872419D02*
X138648496Y-93824800D01*
X138648496Y-93824800D02*
X138696115Y-93729561D01*
X138696115Y-93729561D02*
X138696115Y-93634323D01*
X138696115Y-93634323D02*
X138648496Y-93539085D01*
X138648496Y-93539085D02*
X138553258Y-93491466D01*
X138553258Y-93491466D02*
X138315163Y-93491466D01*
X138315163Y-93491466D02*
X138219925Y-93443847D01*
X137743734Y-93872419D02*
X137743734Y-93205752D01*
X137743734Y-93396228D02*
X137696115Y-93300990D01*
X137696115Y-93300990D02*
X137648496Y-93253371D01*
X137648496Y-93253371D02*
X137553258Y-93205752D01*
X137553258Y-93205752D02*
X137458020Y-93205752D01*
X137267543Y-93205752D02*
X136886591Y-93205752D01*
X137124686Y-92872419D02*
X137124686Y-93729561D01*
X137124686Y-93729561D02*
X137077067Y-93824800D01*
X137077067Y-93824800D02*
X136981829Y-93872419D01*
X136981829Y-93872419D02*
X136886591Y-93872419D01*
X135791352Y-93348609D02*
X135458019Y-93348609D01*
X135315162Y-93872419D02*
X135791352Y-93872419D01*
X135791352Y-93872419D02*
X135791352Y-92872419D01*
X135791352Y-92872419D02*
X135315162Y-92872419D01*
X134743733Y-93872419D02*
X134838971Y-93824800D01*
X134838971Y-93824800D02*
X134886590Y-93729561D01*
X134886590Y-93729561D02*
X134886590Y-92872419D01*
X133981828Y-93824800D02*
X134077066Y-93872419D01*
X134077066Y-93872419D02*
X134267542Y-93872419D01*
X134267542Y-93872419D02*
X134362780Y-93824800D01*
X134362780Y-93824800D02*
X134410399Y-93729561D01*
X134410399Y-93729561D02*
X134410399Y-93348609D01*
X134410399Y-93348609D02*
X134362780Y-93253371D01*
X134362780Y-93253371D02*
X134267542Y-93205752D01*
X134267542Y-93205752D02*
X134077066Y-93205752D01*
X134077066Y-93205752D02*
X133981828Y-93253371D01*
X133981828Y-93253371D02*
X133934209Y-93348609D01*
X133934209Y-93348609D02*
X133934209Y-93443847D01*
X133934209Y-93443847D02*
X134410399Y-93539085D01*
X133077066Y-93824800D02*
X133172304Y-93872419D01*
X133172304Y-93872419D02*
X133362780Y-93872419D01*
X133362780Y-93872419D02*
X133458018Y-93824800D01*
X133458018Y-93824800D02*
X133505637Y-93777180D01*
X133505637Y-93777180D02*
X133553256Y-93681942D01*
X133553256Y-93681942D02*
X133553256Y-93396228D01*
X133553256Y-93396228D02*
X133505637Y-93300990D01*
X133505637Y-93300990D02*
X133458018Y-93253371D01*
X133458018Y-93253371D02*
X133362780Y-93205752D01*
X133362780Y-93205752D02*
X133172304Y-93205752D01*
X133172304Y-93205752D02*
X133077066Y-93253371D01*
X132791351Y-93205752D02*
X132410399Y-93205752D01*
X132648494Y-92872419D02*
X132648494Y-93729561D01*
X132648494Y-93729561D02*
X132600875Y-93824800D01*
X132600875Y-93824800D02*
X132505637Y-93872419D01*
X132505637Y-93872419D02*
X132410399Y-93872419D01*
X132077065Y-93872419D02*
X132077065Y-93205752D01*
X132077065Y-93396228D02*
X132029446Y-93300990D01*
X132029446Y-93300990D02*
X131981827Y-93253371D01*
X131981827Y-93253371D02*
X131886589Y-93205752D01*
X131886589Y-93205752D02*
X131791351Y-93205752D01*
X131315160Y-93872419D02*
X131410398Y-93824800D01*
X131410398Y-93824800D02*
X131458017Y-93777180D01*
X131458017Y-93777180D02*
X131505636Y-93681942D01*
X131505636Y-93681942D02*
X131505636Y-93396228D01*
X131505636Y-93396228D02*
X131458017Y-93300990D01*
X131458017Y-93300990D02*
X131410398Y-93253371D01*
X131410398Y-93253371D02*
X131315160Y-93205752D01*
X131315160Y-93205752D02*
X131172303Y-93205752D01*
X131172303Y-93205752D02*
X131077065Y-93253371D01*
X131077065Y-93253371D02*
X131029446Y-93300990D01*
X131029446Y-93300990D02*
X130981827Y-93396228D01*
X130981827Y-93396228D02*
X130981827Y-93681942D01*
X130981827Y-93681942D02*
X131029446Y-93777180D01*
X131029446Y-93777180D02*
X131077065Y-93824800D01*
X131077065Y-93824800D02*
X131172303Y-93872419D01*
X131172303Y-93872419D02*
X131315160Y-93872419D01*
X130553255Y-93205752D02*
X130553255Y-93872419D01*
X130553255Y-93300990D02*
X130505636Y-93253371D01*
X130505636Y-93253371D02*
X130410398Y-93205752D01*
X130410398Y-93205752D02*
X130267541Y-93205752D01*
X130267541Y-93205752D02*
X130172303Y-93253371D01*
X130172303Y-93253371D02*
X130124684Y-93348609D01*
X130124684Y-93348609D02*
X130124684Y-93872419D01*
X129648493Y-93872419D02*
X129648493Y-93205752D01*
X129648493Y-92872419D02*
X129696112Y-92920038D01*
X129696112Y-92920038D02*
X129648493Y-92967657D01*
X129648493Y-92967657D02*
X129600874Y-92920038D01*
X129600874Y-92920038D02*
X129648493Y-92872419D01*
X129648493Y-92872419D02*
X129648493Y-92967657D01*
X128743732Y-93824800D02*
X128838970Y-93872419D01*
X128838970Y-93872419D02*
X129029446Y-93872419D01*
X129029446Y-93872419D02*
X129124684Y-93824800D01*
X129124684Y-93824800D02*
X129172303Y-93777180D01*
X129172303Y-93777180D02*
X129219922Y-93681942D01*
X129219922Y-93681942D02*
X129219922Y-93396228D01*
X129219922Y-93396228D02*
X129172303Y-93300990D01*
X129172303Y-93300990D02*
X129124684Y-93253371D01*
X129124684Y-93253371D02*
X129029446Y-93205752D01*
X129029446Y-93205752D02*
X128838970Y-93205752D01*
X128838970Y-93205752D02*
X128743732Y-93253371D01*
X128362779Y-93824800D02*
X128267541Y-93872419D01*
X128267541Y-93872419D02*
X128077065Y-93872419D01*
X128077065Y-93872419D02*
X127981827Y-93824800D01*
X127981827Y-93824800D02*
X127934208Y-93729561D01*
X127934208Y-93729561D02*
X127934208Y-93681942D01*
X127934208Y-93681942D02*
X127981827Y-93586704D01*
X127981827Y-93586704D02*
X128077065Y-93539085D01*
X128077065Y-93539085D02*
X128219922Y-93539085D01*
X128219922Y-93539085D02*
X128315160Y-93491466D01*
X128315160Y-93491466D02*
X128362779Y-93396228D01*
X128362779Y-93396228D02*
X128362779Y-93348609D01*
X128362779Y-93348609D02*
X128315160Y-93253371D01*
X128315160Y-93253371D02*
X128219922Y-93205752D01*
X128219922Y-93205752D02*
X128077065Y-93205752D01*
X128077065Y-93205752D02*
X127981827Y-93253371D01*
X126791350Y-92967657D02*
X126743731Y-92920038D01*
X126743731Y-92920038D02*
X126648493Y-92872419D01*
X126648493Y-92872419D02*
X126410398Y-92872419D01*
X126410398Y-92872419D02*
X126315160Y-92920038D01*
X126315160Y-92920038D02*
X126267541Y-92967657D01*
X126267541Y-92967657D02*
X126219922Y-93062895D01*
X126219922Y-93062895D02*
X126219922Y-93158133D01*
X126219922Y-93158133D02*
X126267541Y-93300990D01*
X126267541Y-93300990D02*
X126838969Y-93872419D01*
X126838969Y-93872419D02*
X126219922Y-93872419D01*
X125600874Y-92872419D02*
X125505636Y-92872419D01*
X125505636Y-92872419D02*
X125410398Y-92920038D01*
X125410398Y-92920038D02*
X125362779Y-92967657D01*
X125362779Y-92967657D02*
X125315160Y-93062895D01*
X125315160Y-93062895D02*
X125267541Y-93253371D01*
X125267541Y-93253371D02*
X125267541Y-93491466D01*
X125267541Y-93491466D02*
X125315160Y-93681942D01*
X125315160Y-93681942D02*
X125362779Y-93777180D01*
X125362779Y-93777180D02*
X125410398Y-93824800D01*
X125410398Y-93824800D02*
X125505636Y-93872419D01*
X125505636Y-93872419D02*
X125600874Y-93872419D01*
X125600874Y-93872419D02*
X125696112Y-93824800D01*
X125696112Y-93824800D02*
X125743731Y-93777180D01*
X125743731Y-93777180D02*
X125791350Y-93681942D01*
X125791350Y-93681942D02*
X125838969Y-93491466D01*
X125838969Y-93491466D02*
X125838969Y-93253371D01*
X125838969Y-93253371D02*
X125791350Y-93062895D01*
X125791350Y-93062895D02*
X125743731Y-92967657D01*
X125743731Y-92967657D02*
X125696112Y-92920038D01*
X125696112Y-92920038D02*
X125600874Y-92872419D01*
X124886588Y-92967657D02*
X124838969Y-92920038D01*
X124838969Y-92920038D02*
X124743731Y-92872419D01*
X124743731Y-92872419D02*
X124505636Y-92872419D01*
X124505636Y-92872419D02*
X124410398Y-92920038D01*
X124410398Y-92920038D02*
X124362779Y-92967657D01*
X124362779Y-92967657D02*
X124315160Y-93062895D01*
X124315160Y-93062895D02*
X124315160Y-93158133D01*
X124315160Y-93158133D02*
X124362779Y-93300990D01*
X124362779Y-93300990D02*
X124934207Y-93872419D01*
X124934207Y-93872419D02*
X124315160Y-93872419D01*
X123410398Y-92872419D02*
X123886588Y-92872419D01*
X123886588Y-92872419D02*
X123934207Y-93348609D01*
X123934207Y-93348609D02*
X123886588Y-93300990D01*
X123886588Y-93300990D02*
X123791350Y-93253371D01*
X123791350Y-93253371D02*
X123553255Y-93253371D01*
X123553255Y-93253371D02*
X123458017Y-93300990D01*
X123458017Y-93300990D02*
X123410398Y-93348609D01*
X123410398Y-93348609D02*
X123362779Y-93443847D01*
X123362779Y-93443847D02*
X123362779Y-93681942D01*
X123362779Y-93681942D02*
X123410398Y-93777180D01*
X123410398Y-93777180D02*
X123458017Y-93824800D01*
X123458017Y-93824800D02*
X123553255Y-93872419D01*
X123553255Y-93872419D02*
X123791350Y-93872419D01*
X123791350Y-93872419D02*
X123886588Y-93824800D01*
X123886588Y-93824800D02*
X123934207Y-93777180D01*
X122315159Y-92872419D02*
X121981826Y-93872419D01*
X121981826Y-93872419D02*
X121648493Y-92872419D01*
X120791350Y-93872419D02*
X121362778Y-93872419D01*
X121077064Y-93872419D02*
X121077064Y-92872419D01*
X121077064Y-92872419D02*
X121172302Y-93015276D01*
X121172302Y-93015276D02*
X121267540Y-93110514D01*
X121267540Y-93110514D02*
X121362778Y-93158133D01*
X120362778Y-93777180D02*
X120315159Y-93824800D01*
X120315159Y-93824800D02*
X120362778Y-93872419D01*
X120362778Y-93872419D02*
X120410397Y-93824800D01*
X120410397Y-93824800D02*
X120362778Y-93777180D01*
X120362778Y-93777180D02*
X120362778Y-93872419D01*
X119696112Y-92872419D02*
X119600874Y-92872419D01*
X119600874Y-92872419D02*
X119505636Y-92920038D01*
X119505636Y-92920038D02*
X119458017Y-92967657D01*
X119458017Y-92967657D02*
X119410398Y-93062895D01*
X119410398Y-93062895D02*
X119362779Y-93253371D01*
X119362779Y-93253371D02*
X119362779Y-93491466D01*
X119362779Y-93491466D02*
X119410398Y-93681942D01*
X119410398Y-93681942D02*
X119458017Y-93777180D01*
X119458017Y-93777180D02*
X119505636Y-93824800D01*
X119505636Y-93824800D02*
X119600874Y-93872419D01*
X119600874Y-93872419D02*
X119696112Y-93872419D01*
X119696112Y-93872419D02*
X119791350Y-93824800D01*
X119791350Y-93824800D02*
X119838969Y-93777180D01*
X119838969Y-93777180D02*
X119886588Y-93681942D01*
X119886588Y-93681942D02*
X119934207Y-93491466D01*
X119934207Y-93491466D02*
X119934207Y-93253371D01*
X119934207Y-93253371D02*
X119886588Y-93062895D01*
X119886588Y-93062895D02*
X119838969Y-92967657D01*
X119838969Y-92967657D02*
X119791350Y-92920038D01*
X119791350Y-92920038D02*
X119696112Y-92872419D01*
X136696115Y-91872419D02*
X136696115Y-90872419D01*
X136696115Y-90872419D02*
X136362782Y-91586704D01*
X136362782Y-91586704D02*
X136029449Y-90872419D01*
X136029449Y-90872419D02*
X136029449Y-91872419D01*
X135219925Y-91348609D02*
X135553258Y-91348609D01*
X135553258Y-91872419D02*
X135553258Y-90872419D01*
X135553258Y-90872419D02*
X135077068Y-90872419D01*
X134505639Y-90872419D02*
X134315163Y-90872419D01*
X134315163Y-90872419D02*
X134219925Y-90920038D01*
X134219925Y-90920038D02*
X134124687Y-91015276D01*
X134124687Y-91015276D02*
X134077068Y-91205752D01*
X134077068Y-91205752D02*
X134077068Y-91539085D01*
X134077068Y-91539085D02*
X134124687Y-91729561D01*
X134124687Y-91729561D02*
X134219925Y-91824800D01*
X134219925Y-91824800D02*
X134315163Y-91872419D01*
X134315163Y-91872419D02*
X134505639Y-91872419D01*
X134505639Y-91872419D02*
X134600877Y-91824800D01*
X134600877Y-91824800D02*
X134696115Y-91729561D01*
X134696115Y-91729561D02*
X134743734Y-91539085D01*
X134743734Y-91539085D02*
X134743734Y-91205752D01*
X134743734Y-91205752D02*
X134696115Y-91015276D01*
X134696115Y-91015276D02*
X134600877Y-90920038D01*
X134600877Y-90920038D02*
X134505639Y-90872419D01*
X133696115Y-91824800D02*
X133553258Y-91872419D01*
X133553258Y-91872419D02*
X133315163Y-91872419D01*
X133315163Y-91872419D02*
X133219925Y-91824800D01*
X133219925Y-91824800D02*
X133172306Y-91777180D01*
X133172306Y-91777180D02*
X133124687Y-91681942D01*
X133124687Y-91681942D02*
X133124687Y-91586704D01*
X133124687Y-91586704D02*
X133172306Y-91491466D01*
X133172306Y-91491466D02*
X133219925Y-91443847D01*
X133219925Y-91443847D02*
X133315163Y-91396228D01*
X133315163Y-91396228D02*
X133505639Y-91348609D01*
X133505639Y-91348609D02*
X133600877Y-91300990D01*
X133600877Y-91300990D02*
X133648496Y-91253371D01*
X133648496Y-91253371D02*
X133696115Y-91158133D01*
X133696115Y-91158133D02*
X133696115Y-91062895D01*
X133696115Y-91062895D02*
X133648496Y-90967657D01*
X133648496Y-90967657D02*
X133600877Y-90920038D01*
X133600877Y-90920038D02*
X133505639Y-90872419D01*
X133505639Y-90872419D02*
X133267544Y-90872419D01*
X133267544Y-90872419D02*
X133124687Y-90920038D01*
X131934210Y-91872419D02*
X131934210Y-90872419D01*
X131934210Y-90872419D02*
X131553258Y-90872419D01*
X131553258Y-90872419D02*
X131458020Y-90920038D01*
X131458020Y-90920038D02*
X131410401Y-90967657D01*
X131410401Y-90967657D02*
X131362782Y-91062895D01*
X131362782Y-91062895D02*
X131362782Y-91205752D01*
X131362782Y-91205752D02*
X131410401Y-91300990D01*
X131410401Y-91300990D02*
X131458020Y-91348609D01*
X131458020Y-91348609D02*
X131553258Y-91396228D01*
X131553258Y-91396228D02*
X131934210Y-91396228D01*
X130791353Y-91872419D02*
X130886591Y-91824800D01*
X130886591Y-91824800D02*
X130934210Y-91777180D01*
X130934210Y-91777180D02*
X130981829Y-91681942D01*
X130981829Y-91681942D02*
X130981829Y-91396228D01*
X130981829Y-91396228D02*
X130934210Y-91300990D01*
X130934210Y-91300990D02*
X130886591Y-91253371D01*
X130886591Y-91253371D02*
X130791353Y-91205752D01*
X130791353Y-91205752D02*
X130648496Y-91205752D01*
X130648496Y-91205752D02*
X130553258Y-91253371D01*
X130553258Y-91253371D02*
X130505639Y-91300990D01*
X130505639Y-91300990D02*
X130458020Y-91396228D01*
X130458020Y-91396228D02*
X130458020Y-91681942D01*
X130458020Y-91681942D02*
X130505639Y-91777180D01*
X130505639Y-91777180D02*
X130553258Y-91824800D01*
X130553258Y-91824800D02*
X130648496Y-91872419D01*
X130648496Y-91872419D02*
X130791353Y-91872419D01*
X130124686Y-91205752D02*
X129934210Y-91872419D01*
X129934210Y-91872419D02*
X129743734Y-91396228D01*
X129743734Y-91396228D02*
X129553258Y-91872419D01*
X129553258Y-91872419D02*
X129362782Y-91205752D01*
X128600877Y-91824800D02*
X128696115Y-91872419D01*
X128696115Y-91872419D02*
X128886591Y-91872419D01*
X128886591Y-91872419D02*
X128981829Y-91824800D01*
X128981829Y-91824800D02*
X129029448Y-91729561D01*
X129029448Y-91729561D02*
X129029448Y-91348609D01*
X129029448Y-91348609D02*
X128981829Y-91253371D01*
X128981829Y-91253371D02*
X128886591Y-91205752D01*
X128886591Y-91205752D02*
X128696115Y-91205752D01*
X128696115Y-91205752D02*
X128600877Y-91253371D01*
X128600877Y-91253371D02*
X128553258Y-91348609D01*
X128553258Y-91348609D02*
X128553258Y-91443847D01*
X128553258Y-91443847D02*
X129029448Y-91539085D01*
X128124686Y-91872419D02*
X128124686Y-91205752D01*
X128124686Y-91396228D02*
X128077067Y-91300990D01*
X128077067Y-91300990D02*
X128029448Y-91253371D01*
X128029448Y-91253371D02*
X127934210Y-91205752D01*
X127934210Y-91205752D02*
X127838972Y-91205752D01*
X126791352Y-91824800D02*
X126648495Y-91872419D01*
X126648495Y-91872419D02*
X126410400Y-91872419D01*
X126410400Y-91872419D02*
X126315162Y-91824800D01*
X126315162Y-91824800D02*
X126267543Y-91777180D01*
X126267543Y-91777180D02*
X126219924Y-91681942D01*
X126219924Y-91681942D02*
X126219924Y-91586704D01*
X126219924Y-91586704D02*
X126267543Y-91491466D01*
X126267543Y-91491466D02*
X126315162Y-91443847D01*
X126315162Y-91443847D02*
X126410400Y-91396228D01*
X126410400Y-91396228D02*
X126600876Y-91348609D01*
X126600876Y-91348609D02*
X126696114Y-91300990D01*
X126696114Y-91300990D02*
X126743733Y-91253371D01*
X126743733Y-91253371D02*
X126791352Y-91158133D01*
X126791352Y-91158133D02*
X126791352Y-91062895D01*
X126791352Y-91062895D02*
X126743733Y-90967657D01*
X126743733Y-90967657D02*
X126696114Y-90920038D01*
X126696114Y-90920038D02*
X126600876Y-90872419D01*
X126600876Y-90872419D02*
X126362781Y-90872419D01*
X126362781Y-90872419D02*
X126219924Y-90920038D01*
X125362781Y-91205752D02*
X125362781Y-91872419D01*
X125791352Y-91205752D02*
X125791352Y-91729561D01*
X125791352Y-91729561D02*
X125743733Y-91824800D01*
X125743733Y-91824800D02*
X125648495Y-91872419D01*
X125648495Y-91872419D02*
X125505638Y-91872419D01*
X125505638Y-91872419D02*
X125410400Y-91824800D01*
X125410400Y-91824800D02*
X125362781Y-91777180D01*
X124886590Y-91205752D02*
X124886590Y-92205752D01*
X124886590Y-91253371D02*
X124791352Y-91205752D01*
X124791352Y-91205752D02*
X124600876Y-91205752D01*
X124600876Y-91205752D02*
X124505638Y-91253371D01*
X124505638Y-91253371D02*
X124458019Y-91300990D01*
X124458019Y-91300990D02*
X124410400Y-91396228D01*
X124410400Y-91396228D02*
X124410400Y-91681942D01*
X124410400Y-91681942D02*
X124458019Y-91777180D01*
X124458019Y-91777180D02*
X124505638Y-91824800D01*
X124505638Y-91824800D02*
X124600876Y-91872419D01*
X124600876Y-91872419D02*
X124791352Y-91872419D01*
X124791352Y-91872419D02*
X124886590Y-91824800D01*
X123981828Y-91205752D02*
X123981828Y-92205752D01*
X123981828Y-91253371D02*
X123886590Y-91205752D01*
X123886590Y-91205752D02*
X123696114Y-91205752D01*
X123696114Y-91205752D02*
X123600876Y-91253371D01*
X123600876Y-91253371D02*
X123553257Y-91300990D01*
X123553257Y-91300990D02*
X123505638Y-91396228D01*
X123505638Y-91396228D02*
X123505638Y-91681942D01*
X123505638Y-91681942D02*
X123553257Y-91777180D01*
X123553257Y-91777180D02*
X123600876Y-91824800D01*
X123600876Y-91824800D02*
X123696114Y-91872419D01*
X123696114Y-91872419D02*
X123886590Y-91872419D01*
X123886590Y-91872419D02*
X123981828Y-91824800D01*
X122934209Y-91872419D02*
X123029447Y-91824800D01*
X123029447Y-91824800D02*
X123077066Y-91729561D01*
X123077066Y-91729561D02*
X123077066Y-90872419D01*
X122648494Y-91205752D02*
X122410399Y-91872419D01*
X122172304Y-91205752D02*
X122410399Y-91872419D01*
X122410399Y-91872419D02*
X122505637Y-92110514D01*
X122505637Y-92110514D02*
X122553256Y-92158133D01*
X122553256Y-92158133D02*
X122648494Y-92205752D01*
M02*
